<?xml version="1.0" encoding="UTF-8" standalone="no"?>
<!DOCTYPE svg PUBLIC "-//W3C//DTD SVG 1.1//EN"
 "http://www.w3.org/Graphics/SVG/1.1/DTD/svg11.dtd">
<!-- Generated by graphviz version 2.40.1 (20161225.0304)
 -->
<!-- Title: dependencies Pages: 1 -->
<svg width="978pt" height="284pt"
 viewBox="0.00 0.00 978.00 284.00" xmlns="http://www.w3.org/2000/svg" xmlns:xlink="http://www.w3.org/1999/xlink">
<g id="graph0" class="graph" transform="scale(1 1) rotate(0) translate(4 280)">
<title>dependencies</title>
<polygon fill="#ffffff" stroke="transparent" points="-4,4 -4,-280 974,-280 974,4 -4,4"/>
<text text-anchor="start" x="464.0091" y="-42.4" font-family="sans-serif" font-weight="bold" font-size="14.00" fill="#000000">Legend</text>
<polygon fill="#ffffb3" stroke="transparent" points="251,-10 251,-30 271,-30 271,-10 251,-10"/>
<text text-anchor="start" x="274.629" y="-15.4" font-family="sans-serif" font-size="14.00" fill="#000000"> &#160;Declarations</text>
<polygon fill="#8dd3c7" stroke="transparent" points="364,-10 364,-30 384,-30 384,-10 364,-10"/>
<text text-anchor="start" x="387.7251" y="-15.4" font-family="sans-serif" font-size="14.00" fill="#000000"> &#160;Module</text>
<polygon fill="#80b1d3" stroke="transparent" points="450,-10 450,-30 470,-30 470,-10 450,-10"/>
<text text-anchor="start" x="473.7812" y="-15.4" font-family="sans-serif" font-size="14.00" fill="#000000"> &#160;Bootstrap</text>
<polygon fill="#fdb462" stroke="transparent" points="547,-10 547,-30 567,-30 567,-10 547,-10"/>
<text text-anchor="start" x="570.6732" y="-15.4" font-family="sans-serif" font-size="14.00" fill="#000000"> &#160;Providers</text>
<polygon fill="#fb8072" stroke="transparent" points="643,-10 643,-30 663,-30 663,-10 643,-10"/>
<text text-anchor="start" x="666.7258" y="-15.4" font-family="sans-serif" font-size="14.00" fill="#000000"> &#160;Exports</text>
<g id="clust1" class="cluster">
<title>cluster_SharedModule</title>
<polygon fill="none" stroke="#000000" stroke-dasharray="1,5" points="8,-70 8,-268 962,-268 962,-70 8,-70"/>
</g>
<g id="clust2" class="cluster">
<title>cluster_SharedModule_declarations</title>
<polygon fill="none" stroke="#000000" points="16,-78 16,-130 954,-130 954,-78 16,-78"/>
</g>
<g id="clust10" class="cluster">
<title>cluster_SharedModule_exports</title>
<polygon fill="none" stroke="#000000" points="228,-208 228,-260 816,-260 816,-208 228,-208"/>
</g>
<!-- ToolbarComponent -->
<g id="node1" class="node">
<title>ToolbarComponent</title>
<polygon fill="#ffffb3" stroke="#000000" points="945.6513,-122 820.3487,-122 820.3487,-86 945.6513,-86 945.6513,-122"/>
<text text-anchor="middle" x="883" y="-99.8" font-family="Times,serif" font-size="14.00" fill="#000000">ToolbarComponent</text>
</g>
<!-- SharedModule -->
<g id="node7" class="node">
<title>SharedModule</title>
<polygon fill="#8dd3c7" stroke="#000000" points="576.4231,-187 573.4231,-191 552.4231,-191 549.4231,-187 477.5769,-187 477.5769,-151 576.4231,-151 576.4231,-187"/>
<text text-anchor="middle" x="527" y="-164.8" font-family="Times,serif" font-size="14.00" fill="#000000">SharedModule</text>
</g>
<!-- ToolbarComponent&#45;&gt;SharedModule -->
<g id="edge1" class="edge">
<title>ToolbarComponent&#45;&gt;SharedModule</title>
<path fill="none" stroke="#000000" d="M883,-122.1061C883,-141.3391 883,-169 883,-169 883,-169 586.5003,-169 586.5003,-169"/>
<polygon fill="#000000" stroke="#000000" points="586.5003,-165.5001 576.5003,-169 586.5002,-172.5001 586.5003,-165.5001"/>
</g>
<!-- NavbarComponent -->
<g id="node2" class="node">
<title>NavbarComponent</title>
<polygon fill="#ffffb3" stroke="#000000" points="802.0297,-122 679.9703,-122 679.9703,-86 802.0297,-86 802.0297,-122"/>
<text text-anchor="middle" x="741" y="-99.8" font-family="Times,serif" font-size="14.00" fill="#000000">NavbarComponent</text>
</g>
<!-- NavbarComponent&#45;&gt;SharedModule -->
<g id="edge2" class="edge">
<title>NavbarComponent&#45;&gt;SharedModule</title>
<path fill="none" stroke="#000000" d="M761.4215,-122.027C761.4215,-138.3976 761.4215,-160 761.4215,-160 761.4215,-160 586.4283,-160 586.4283,-160"/>
<polygon fill="#000000" stroke="#000000" points="586.4284,-156.5001 576.4283,-160 586.4283,-163.5001 586.4284,-156.5001"/>
</g>
<!-- LoginComponent -->
<g id="node3" class="node">
<title>LoginComponent</title>
<polygon fill="#ffffb3" stroke="#000000" points="661.2758,-122 546.7242,-122 546.7242,-86 661.2758,-86 661.2758,-122"/>
<text text-anchor="middle" x="604" y="-99.8" font-family="Times,serif" font-size="14.00" fill="#000000">LoginComponent</text>
</g>
<!-- LoginComponent&#45;&gt;SharedModule -->
<g id="edge3" class="edge">
<title>LoginComponent&#45;&gt;SharedModule</title>
<path fill="none" stroke="#000000" d="M561.4117,-122.1061C561.4117,-122.1061 561.4117,-140.991 561.4117,-140.991"/>
<polygon fill="#000000" stroke="#000000" points="557.9117,-140.9909 561.4117,-150.991 564.9117,-140.991 557.9117,-140.9909"/>
</g>
<!-- AuthFormComponent -->
<g id="node4" class="node">
<title>AuthFormComponent</title>
<polygon fill="#ffffb3" stroke="#000000" points="528.6638,-122 389.3362,-122 389.3362,-86 528.6638,-86 528.6638,-122"/>
<text text-anchor="middle" x="459" y="-99.8" font-family="Times,serif" font-size="14.00" fill="#000000">AuthFormComponent</text>
</g>
<!-- AuthFormComponent&#45;&gt;SharedModule -->
<g id="edge4" class="edge">
<title>AuthFormComponent&#45;&gt;SharedModule</title>
<path fill="none" stroke="#000000" d="M503.3103,-122.1061C503.3103,-122.1061 503.3103,-140.991 503.3103,-140.991"/>
<polygon fill="#000000" stroke="#000000" points="499.8104,-140.9909 503.3103,-150.991 506.8104,-140.991 499.8104,-140.9909"/>
</g>
<!-- AuthRememberComponent -->
<g id="node5" class="node">
<title>AuthRememberComponent</title>
<polygon fill="#ffffb3" stroke="#000000" points="371.252,-122 200.748,-122 200.748,-86 371.252,-86 371.252,-122"/>
<text text-anchor="middle" x="286" y="-99.8" font-family="Times,serif" font-size="14.00" fill="#000000">AuthRememberComponent</text>
</g>
<!-- AuthRememberComponent&#45;&gt;SharedModule -->
<g id="edge5" class="edge">
<title>AuthRememberComponent&#45;&gt;SharedModule</title>
<path fill="none" stroke="#000000" d="M303.8971,-122.027C303.8971,-138.3976 303.8971,-160 303.8971,-160 303.8971,-160 467.7629,-160 467.7629,-160"/>
<polygon fill="#000000" stroke="#000000" points="467.763,-163.5001 477.7629,-160 467.7629,-156.5001 467.763,-163.5001"/>
</g>
<!-- AuthMessageComponent -->
<g id="node6" class="node">
<title>AuthMessageComponent</title>
<polygon fill="#ffffb3" stroke="#000000" points="182.3075,-122 23.6925,-122 23.6925,-86 182.3075,-86 182.3075,-122"/>
<text text-anchor="middle" x="103" y="-99.8" font-family="Times,serif" font-size="14.00" fill="#000000">AuthMessageComponent</text>
</g>
<!-- AuthMessageComponent&#45;&gt;SharedModule -->
<g id="edge6" class="edge">
<title>AuthMessageComponent&#45;&gt;SharedModule</title>
<path fill="none" stroke="#000000" d="M103,-122.1061C103,-141.3391 103,-169 103,-169 103,-169 467.532,-169 467.532,-169"/>
<polygon fill="#000000" stroke="#000000" points="467.532,-172.5001 477.532,-169 467.532,-165.5001 467.532,-172.5001"/>
</g>
<!-- ToolbarComponent  -->
<g id="node8" class="node">
<title>ToolbarComponent </title>
<polygon fill="#fb8072" stroke="#000000" points="807.6509,-252 678.3491,-252 678.3491,-216 807.6509,-216 807.6509,-252"/>
<text text-anchor="middle" x="743" y="-229.8" font-family="Times,serif" font-size="14.00" fill="#000000">ToolbarComponent </text>
</g>
<!-- SharedModule&#45;&gt;ToolbarComponent  -->
<g id="edge7" class="edge">
<title>SharedModule&#45;&gt;ToolbarComponent </title>
<path fill="none" stroke="#000000" stroke-dasharray="5,2" d="M576.3489,-178C633.7014,-178 720.5785,-178 720.5785,-178 720.5785,-178 720.5785,-205.973 720.5785,-205.973"/>
<polygon fill="#000000" stroke="#000000" points="717.0786,-205.973 720.5785,-215.973 724.0786,-205.973 717.0786,-205.973"/>
</g>
<!-- NavbarComponent  -->
<g id="node9" class="node">
<title>NavbarComponent </title>
<polygon fill="#fb8072" stroke="#000000" points="660.0288,-252 533.9712,-252 533.9712,-216 660.0288,-216 660.0288,-252"/>
<text text-anchor="middle" x="597" y="-229.8" font-family="Times,serif" font-size="14.00" fill="#000000">NavbarComponent </text>
</g>
<!-- SharedModule&#45;&gt;NavbarComponent  -->
<g id="edge8" class="edge">
<title>SharedModule&#45;&gt;NavbarComponent </title>
<path fill="none" stroke="#000000" stroke-dasharray="5,2" d="M555.0984,-187.1061C555.0984,-187.1061 555.0984,-205.991 555.0984,-205.991"/>
<polygon fill="#000000" stroke="#000000" points="551.5984,-205.9909 555.0984,-215.991 558.5984,-205.991 551.5984,-205.9909"/>
</g>
<!-- LoginComponent  -->
<g id="node10" class="node">
<title>LoginComponent </title>
<polygon fill="#fb8072" stroke="#000000" points="516.2759,-252 397.7241,-252 397.7241,-216 516.2759,-216 516.2759,-252"/>
<text text-anchor="middle" x="457" y="-229.8" font-family="Times,serif" font-size="14.00" fill="#000000">LoginComponent </text>
</g>
<!-- SharedModule&#45;&gt;LoginComponent  -->
<g id="edge9" class="edge">
<title>SharedModule&#45;&gt;LoginComponent </title>
<path fill="none" stroke="#000000" stroke-dasharray="5,2" d="M496.9634,-187.1061C496.9634,-187.1061 496.9634,-205.991 496.9634,-205.991"/>
<polygon fill="#000000" stroke="#000000" points="493.4634,-205.9909 496.9634,-215.991 500.4634,-205.991 493.4634,-205.9909"/>
</g>
<!-- AuthFormComponent  -->
<g id="node11" class="node">
<title>AuthFormComponent </title>
<polygon fill="#fb8072" stroke="#000000" points="379.6635,-252 236.3365,-252 236.3365,-216 379.6635,-216 379.6635,-252"/>
<text text-anchor="middle" x="308" y="-229.8" font-family="Times,serif" font-size="14.00" fill="#000000">AuthFormComponent </text>
</g>
<!-- SharedModule&#45;&gt;AuthFormComponent  -->
<g id="edge10" class="edge">
<title>SharedModule&#45;&gt;AuthFormComponent </title>
<path fill="none" stroke="#000000" stroke-dasharray="5,2" d="M477.3863,-178C433.1963,-178 375.4788,-178 375.4788,-178 375.4788,-178 375.4788,-205.973 375.4788,-205.973"/>
<polygon fill="#000000" stroke="#000000" points="371.9789,-205.973 375.4788,-215.973 378.9789,-205.973 371.9789,-205.973"/>
</g>
</g>
</svg>
