<?xml version="1.0" encoding="UTF-8" standalone="no"?>
<!DOCTYPE svg PUBLIC "-//W3C//DTD SVG 1.1//EN"
 "http://www.w3.org/Graphics/SVG/1.1/DTD/svg11.dtd">
<!-- Generated by graphviz version 2.40.1 (20161225.0304)
 -->
<!-- Title: dependencies Pages: 1 -->
<svg width="834pt" height="284pt"
 viewBox="0.00 0.00 834.00 284.00" xmlns="http://www.w3.org/2000/svg" xmlns:xlink="http://www.w3.org/1999/xlink">
<g id="graph0" class="graph" transform="scale(1 1) rotate(0) translate(4 280)">
<title>dependencies</title>
<polygon fill="#ffffff" stroke="transparent" points="-4,4 -4,-280 830,-280 830,4 -4,4"/>
<text text-anchor="start" x="392.0091" y="-42.4" font-family="sans-serif" font-weight="bold" font-size="14.00" fill="#000000">Legend</text>
<polygon fill="#ffffb3" stroke="transparent" points="179,-10 179,-30 199,-30 199,-10 179,-10"/>
<text text-anchor="start" x="202.629" y="-15.4" font-family="sans-serif" font-size="14.00" fill="#000000"> &#160;Declarations</text>
<polygon fill="#8dd3c7" stroke="transparent" points="292,-10 292,-30 312,-30 312,-10 292,-10"/>
<text text-anchor="start" x="315.7251" y="-15.4" font-family="sans-serif" font-size="14.00" fill="#000000"> &#160;Module</text>
<polygon fill="#80b1d3" stroke="transparent" points="378,-10 378,-30 398,-30 398,-10 378,-10"/>
<text text-anchor="start" x="401.7812" y="-15.4" font-family="sans-serif" font-size="14.00" fill="#000000"> &#160;Bootstrap</text>
<polygon fill="#fdb462" stroke="transparent" points="475,-10 475,-30 495,-30 495,-10 475,-10"/>
<text text-anchor="start" x="498.6732" y="-15.4" font-family="sans-serif" font-size="14.00" fill="#000000"> &#160;Providers</text>
<polygon fill="#fb8072" stroke="transparent" points="571,-10 571,-30 591,-30 591,-10 571,-10"/>
<text text-anchor="start" x="594.7258" y="-15.4" font-family="sans-serif" font-size="14.00" fill="#000000"> &#160;Exports</text>
<g id="clust1" class="cluster">
<title>cluster_SharedModule</title>
<polygon fill="none" stroke="#000000" stroke-dasharray="1,5" points="8,-70 8,-268 818,-268 818,-70 8,-70"/>
</g>
<g id="clust2" class="cluster">
<title>cluster_SharedModule_declarations</title>
<polygon fill="none" stroke="#000000" points="16,-78 16,-130 810,-130 810,-78 16,-78"/>
</g>
<g id="clust9" class="cluster">
<title>cluster_SharedModule_exports</title>
<polygon fill="none" stroke="#000000" points="230,-208 230,-260 670,-260 670,-208 230,-208"/>
</g>
<!-- NavbarComponent -->
<g id="node1" class="node">
<title>NavbarComponent</title>
<polygon fill="#ffffb3" stroke="#000000" points="802.0297,-122 679.9703,-122 679.9703,-86 802.0297,-86 802.0297,-122"/>
<text text-anchor="middle" x="741" y="-99.8" font-family="Times,serif" font-size="14.00" fill="#000000">NavbarComponent</text>
</g>
<!-- SharedModule -->
<g id="node6" class="node">
<title>SharedModule</title>
<polygon fill="#8dd3c7" stroke="#000000" points="508.4231,-187 505.4231,-191 484.4231,-191 481.4231,-187 409.5769,-187 409.5769,-151 508.4231,-151 508.4231,-187"/>
<text text-anchor="middle" x="459" y="-164.8" font-family="Times,serif" font-size="14.00" fill="#000000">SharedModule</text>
</g>
<!-- NavbarComponent&#45;&gt;SharedModule -->
<g id="edge1" class="edge">
<title>NavbarComponent&#45;&gt;SharedModule</title>
<path fill="none" stroke="#000000" d="M741,-122.1061C741,-141.3391 741,-169 741,-169 741,-169 518.4433,-169 518.4433,-169"/>
<polygon fill="#000000" stroke="#000000" points="518.4434,-165.5001 508.4433,-169 518.4433,-172.5001 518.4434,-165.5001"/>
</g>
<!-- LoginComponent -->
<g id="node2" class="node">
<title>LoginComponent</title>
<polygon fill="#ffffb3" stroke="#000000" points="661.2758,-122 546.7242,-122 546.7242,-86 661.2758,-86 661.2758,-122"/>
<text text-anchor="middle" x="604" y="-99.8" font-family="Times,serif" font-size="14.00" fill="#000000">LoginComponent</text>
</g>
<!-- LoginComponent&#45;&gt;SharedModule -->
<g id="edge2" class="edge">
<title>LoginComponent&#45;&gt;SharedModule</title>
<path fill="none" stroke="#000000" d="M604,-122.027C604,-138.3976 604,-160 604,-160 604,-160 518.4952,-160 518.4952,-160"/>
<polygon fill="#000000" stroke="#000000" points="518.4953,-156.5001 508.4952,-160 518.4952,-163.5001 518.4953,-156.5001"/>
</g>
<!-- AuthFormComponent -->
<g id="node3" class="node">
<title>AuthFormComponent</title>
<polygon fill="#ffffb3" stroke="#000000" points="528.6638,-122 389.3362,-122 389.3362,-86 528.6638,-86 528.6638,-122"/>
<text text-anchor="middle" x="459" y="-99.8" font-family="Times,serif" font-size="14.00" fill="#000000">AuthFormComponent</text>
</g>
<!-- AuthFormComponent&#45;&gt;SharedModule -->
<g id="edge3" class="edge">
<title>AuthFormComponent&#45;&gt;SharedModule</title>
<path fill="none" stroke="#000000" d="M459,-122.1061C459,-122.1061 459,-140.991 459,-140.991"/>
<polygon fill="#000000" stroke="#000000" points="455.5001,-140.9909 459,-150.991 462.5001,-140.991 455.5001,-140.9909"/>
</g>
<!-- AuthRememberComponent -->
<g id="node4" class="node">
<title>AuthRememberComponent</title>
<polygon fill="#ffffb3" stroke="#000000" points="371.252,-122 200.748,-122 200.748,-86 371.252,-86 371.252,-122"/>
<text text-anchor="middle" x="286" y="-99.8" font-family="Times,serif" font-size="14.00" fill="#000000">AuthRememberComponent</text>
</g>
<!-- AuthRememberComponent&#45;&gt;SharedModule -->
<g id="edge4" class="edge">
<title>AuthRememberComponent&#45;&gt;SharedModule</title>
<path fill="none" stroke="#000000" d="M304.8971,-122.027C304.8971,-138.3976 304.8971,-160 304.8971,-160 304.8971,-160 399.3926,-160 399.3926,-160"/>
<polygon fill="#000000" stroke="#000000" points="399.3927,-163.5001 409.3926,-160 399.3926,-156.5001 399.3927,-163.5001"/>
</g>
<!-- AuthMessageComponent -->
<g id="node5" class="node">
<title>AuthMessageComponent</title>
<polygon fill="#ffffb3" stroke="#000000" points="182.3075,-122 23.6925,-122 23.6925,-86 182.3075,-86 182.3075,-122"/>
<text text-anchor="middle" x="103" y="-99.8" font-family="Times,serif" font-size="14.00" fill="#000000">AuthMessageComponent</text>
</g>
<!-- AuthMessageComponent&#45;&gt;SharedModule -->
<g id="edge5" class="edge">
<title>AuthMessageComponent&#45;&gt;SharedModule</title>
<path fill="none" stroke="#000000" d="M103,-122.1061C103,-141.3391 103,-169 103,-169 103,-169 399.4997,-169 399.4997,-169"/>
<polygon fill="#000000" stroke="#000000" points="399.4998,-172.5001 409.4997,-169 399.4997,-165.5001 399.4998,-172.5001"/>
</g>
<!-- NavbarComponent  -->
<g id="node7" class="node">
<title>NavbarComponent </title>
<polygon fill="#fb8072" stroke="#000000" points="662.0288,-252 535.9712,-252 535.9712,-216 662.0288,-216 662.0288,-252"/>
<text text-anchor="middle" x="599" y="-229.8" font-family="Times,serif" font-size="14.00" fill="#000000">NavbarComponent </text>
</g>
<!-- SharedModule&#45;&gt;NavbarComponent  -->
<g id="edge6" class="edge">
<title>SharedModule&#45;&gt;NavbarComponent </title>
<path fill="none" stroke="#000000" stroke-dasharray="5,2" d="M508.299,-178C525.8264,-178 541.2989,-178 541.2989,-178 541.2989,-178 541.2989,-205.973 541.2989,-205.973"/>
<polygon fill="#000000" stroke="#000000" points="537.799,-205.973 541.2989,-215.973 544.799,-205.973 537.799,-205.973"/>
</g>
<!-- LoginComponent  -->
<g id="node8" class="node">
<title>LoginComponent </title>
<polygon fill="#fb8072" stroke="#000000" points="518.2759,-252 399.7241,-252 399.7241,-216 518.2759,-216 518.2759,-252"/>
<text text-anchor="middle" x="459" y="-229.8" font-family="Times,serif" font-size="14.00" fill="#000000">LoginComponent </text>
</g>
<!-- SharedModule&#45;&gt;LoginComponent  -->
<g id="edge7" class="edge">
<title>SharedModule&#45;&gt;LoginComponent </title>
<path fill="none" stroke="#000000" stroke-dasharray="5,2" d="M459,-187.1061C459,-187.1061 459,-205.991 459,-205.991"/>
<polygon fill="#000000" stroke="#000000" points="455.5001,-205.9909 459,-215.991 462.5001,-205.991 455.5001,-205.9909"/>
</g>
<!-- AuthFormComponent  -->
<g id="node9" class="node">
<title>AuthFormComponent </title>
<polygon fill="#fb8072" stroke="#000000" points="381.6635,-252 238.3365,-252 238.3365,-216 381.6635,-216 381.6635,-252"/>
<text text-anchor="middle" x="310" y="-229.8" font-family="Times,serif" font-size="14.00" fill="#000000">AuthFormComponent </text>
</g>
<!-- SharedModule&#45;&gt;AuthFormComponent  -->
<g id="edge8" class="edge">
<title>SharedModule&#45;&gt;AuthFormComponent </title>
<path fill="none" stroke="#000000" stroke-dasharray="5,2" d="M409.5678,-178C391.9931,-178 376.4788,-178 376.4788,-178 376.4788,-178 376.4788,-205.973 376.4788,-205.973"/>
<polygon fill="#000000" stroke="#000000" points="372.9789,-205.973 376.4788,-215.973 379.9789,-205.973 372.9789,-205.973"/>
</g>
</g>
</svg>
