<?xml version="1.0" encoding="UTF-8" standalone="no"?>
<!DOCTYPE svg PUBLIC "-//W3C//DTD SVG 1.1//EN"
 "http://www.w3.org/Graphics/SVG/1.1/DTD/svg11.dtd">
<!-- Generated by graphviz version 2.40.1 (20161225.0304)
 -->
<!-- Title: dependencies Pages: 1 -->
<svg width="742pt" height="284pt"
 viewBox="0.00 0.00 742.00 284.00" xmlns="http://www.w3.org/2000/svg" xmlns:xlink="http://www.w3.org/1999/xlink">
<g id="graph0" class="graph" transform="scale(1 1) rotate(0) translate(4 280)">
<title>dependencies</title>
<polygon fill="#ffffff" stroke="transparent" points="-4,4 -4,-280 738,-280 738,4 -4,4"/>
<text text-anchor="start" x="346.0091" y="-42.4" font-family="sans-serif" font-weight="bold" font-size="14.00" fill="#000000">Legend</text>
<polygon fill="#ffffb3" stroke="transparent" points="133,-10 133,-30 153,-30 153,-10 133,-10"/>
<text text-anchor="start" x="156.629" y="-15.4" font-family="sans-serif" font-size="14.00" fill="#000000"> &#160;Declarations</text>
<polygon fill="#8dd3c7" stroke="transparent" points="246,-10 246,-30 266,-30 266,-10 246,-10"/>
<text text-anchor="start" x="269.7251" y="-15.4" font-family="sans-serif" font-size="14.00" fill="#000000"> &#160;Module</text>
<polygon fill="#80b1d3" stroke="transparent" points="332,-10 332,-30 352,-30 352,-10 332,-10"/>
<text text-anchor="start" x="355.7812" y="-15.4" font-family="sans-serif" font-size="14.00" fill="#000000"> &#160;Bootstrap</text>
<polygon fill="#fdb462" stroke="transparent" points="429,-10 429,-30 449,-30 449,-10 429,-10"/>
<text text-anchor="start" x="452.6732" y="-15.4" font-family="sans-serif" font-size="14.00" fill="#000000"> &#160;Providers</text>
<polygon fill="#fb8072" stroke="transparent" points="525,-10 525,-30 545,-30 545,-10 525,-10"/>
<text text-anchor="start" x="548.7258" y="-15.4" font-family="sans-serif" font-size="14.00" fill="#000000"> &#160;Exports</text>
<g id="clust1" class="cluster">
<title>cluster_SerialModule</title>
<polygon fill="none" stroke="#000000" stroke-dasharray="1,5" points="8,-70 8,-268 726,-268 726,-70 8,-70"/>
</g>
<g id="clust2" class="cluster">
<title>cluster_SerialModule_declarations</title>
<polygon fill="none" stroke="#000000" points="288,-78 288,-130 718,-130 718,-78 288,-78"/>
</g>
<g id="clust6" class="cluster">
<title>cluster_SerialModule_imports</title>
<polygon fill="none" stroke="#000000" points="166,-78 166,-130 280,-130 280,-78 166,-78"/>
</g>
<g id="clust7" class="cluster">
<title>cluster_SerialModule_exports</title>
<polygon fill="none" stroke="#000000" points="286,-208 286,-260 450,-260 450,-208 286,-208"/>
</g>
<g id="clust9" class="cluster">
<title>cluster_SerialModule_providers</title>
<polygon fill="none" stroke="#000000" points="16,-78 16,-130 158,-130 158,-78 16,-78"/>
</g>
<!-- SerialComponent -->
<g id="node1" class="node">
<title>SerialComponent</title>
<polygon fill="#ffffb3" stroke="#000000" points="709.986,-122 596.014,-122 596.014,-86 709.986,-86 709.986,-122"/>
<text text-anchor="middle" x="653" y="-99.8" font-family="Times,serif" font-size="14.00" fill="#000000">SerialComponent</text>
</g>
<!-- SerialModule -->
<g id="node4" class="node">
<title>SerialModule</title>
<polygon fill="#8dd3c7" stroke="#000000" points="414.2036,-187 411.2036,-191 390.2036,-191 387.2036,-187 321.7964,-187 321.7964,-151 414.2036,-151 414.2036,-187"/>
<text text-anchor="middle" x="368" y="-164.8" font-family="Times,serif" font-size="14.00" fill="#000000">SerialModule</text>
</g>
<!-- SerialComponent&#45;&gt;SerialModule -->
<g id="edge1" class="edge">
<title>SerialComponent&#45;&gt;SerialModule</title>
<path fill="none" stroke="#000000" d="M653,-122.2843C653,-143.3211 653,-175 653,-175 653,-175 424.1069,-175 424.1069,-175"/>
<polygon fill="#000000" stroke="#000000" points="424.107,-171.5001 414.1069,-175 424.1069,-178.5001 424.107,-171.5001"/>
</g>
<!-- SerialsComponent -->
<g id="node2" class="node">
<title>SerialsComponent</title>
<polygon fill="#ffffb3" stroke="#000000" points="577.9314,-122 458.0686,-122 458.0686,-86 577.9314,-86 577.9314,-122"/>
<text text-anchor="middle" x="518" y="-99.8" font-family="Times,serif" font-size="14.00" fill="#000000">SerialsComponent</text>
</g>
<!-- SerialsComponent&#45;&gt;SerialModule -->
<g id="edge2" class="edge">
<title>SerialsComponent&#45;&gt;SerialModule</title>
<path fill="none" stroke="#000000" d="M518,-122.0225C518,-139.3734 518,-163 518,-163 518,-163 424.2289,-163 424.2289,-163"/>
<polygon fill="#000000" stroke="#000000" points="424.2289,-159.5001 414.2289,-163 424.2289,-166.5001 424.2289,-159.5001"/>
</g>
<!-- SerialFormComponent -->
<g id="node3" class="node">
<title>SerialFormComponent</title>
<polygon fill="#ffffb3" stroke="#000000" points="440.3202,-122 295.6798,-122 295.6798,-86 440.3202,-86 440.3202,-122"/>
<text text-anchor="middle" x="368" y="-99.8" font-family="Times,serif" font-size="14.00" fill="#000000">SerialFormComponent</text>
</g>
<!-- SerialFormComponent&#45;&gt;SerialModule -->
<g id="edge3" class="edge">
<title>SerialFormComponent&#45;&gt;SerialModule</title>
<path fill="none" stroke="#000000" d="M368,-122.1061C368,-122.1061 368,-140.991 368,-140.991"/>
<polygon fill="#000000" stroke="#000000" points="364.5001,-140.9909 368,-150.991 371.5001,-140.991 364.5001,-140.9909"/>
</g>
<!-- SerialFormComponent  -->
<g id="node6" class="node">
<title>SerialFormComponent </title>
<polygon fill="#fb8072" stroke="#000000" points="441.8199,-252 294.1801,-252 294.1801,-216 441.8199,-216 441.8199,-252"/>
<text text-anchor="middle" x="368" y="-229.8" font-family="Times,serif" font-size="14.00" fill="#000000">SerialFormComponent </text>
</g>
<!-- SerialModule&#45;&gt;SerialFormComponent  -->
<g id="edge5" class="edge">
<title>SerialModule&#45;&gt;SerialFormComponent </title>
<path fill="none" stroke="#000000" stroke-dasharray="5,2" d="M368,-187.1061C368,-187.1061 368,-205.991 368,-205.991"/>
<polygon fill="#000000" stroke="#000000" points="364.5001,-205.9909 368,-215.991 371.5001,-205.991 364.5001,-205.9909"/>
</g>
<!-- SharedModule -->
<g id="node5" class="node">
<title>SharedModule</title>
<polygon fill="#8dd3c7" stroke="#000000" points="272.4231,-122 269.4231,-126 248.4231,-126 245.4231,-122 173.5769,-122 173.5769,-86 272.4231,-86 272.4231,-122"/>
<text text-anchor="middle" x="223" y="-99.8" font-family="Times,serif" font-size="14.00" fill="#000000">SharedModule</text>
</g>
<!-- SharedModule&#45;&gt;SerialModule -->
<g id="edge4" class="edge">
<title>SharedModule&#45;&gt;SerialModule</title>
<path fill="none" stroke="#000000" d="M223,-122.0225C223,-139.3734 223,-163 223,-163 223,-163 311.7224,-163 311.7224,-163"/>
<polygon fill="#000000" stroke="#000000" points="311.7225,-166.5001 321.7224,-163 311.7224,-159.5001 311.7225,-166.5001"/>
</g>
<!-- SerialService -->
<g id="node7" class="node">
<title>SerialService</title>
<ellipse fill="#fdb462" stroke="#000000" cx="87" cy="-104" rx="62.5315" ry="18"/>
<text text-anchor="middle" x="87" y="-99.8" font-family="Times,serif" font-size="14.00" fill="#000000">SerialService</text>
</g>
<!-- SerialService&#45;&gt;SerialModule -->
<g id="edge6" class="edge">
<title>SerialService&#45;&gt;SerialModule</title>
<path fill="none" stroke="#000000" d="M87,-122.2843C87,-143.3211 87,-175 87,-175 87,-175 311.5986,-175 311.5986,-175"/>
<polygon fill="#000000" stroke="#000000" points="311.5986,-178.5001 321.5986,-175 311.5985,-171.5001 311.5986,-178.5001"/>
</g>
</g>
</svg>
