<?xml version="1.0" encoding="UTF-8" standalone="no"?>
<!DOCTYPE svg PUBLIC "-//W3C//DTD SVG 1.1//EN"
 "http://www.w3.org/Graphics/SVG/1.1/DTD/svg11.dtd">
<!-- Generated by graphviz version 2.40.1 (20161225.0304)
 -->
<!-- Title: dependencies Pages: 1 -->
<svg width="504pt" height="211pt"
 viewBox="0.00 0.00 504.00 211.00" xmlns="http://www.w3.org/2000/svg" xmlns:xlink="http://www.w3.org/1999/xlink">
<g id="graph0" class="graph" transform="scale(1 1) rotate(0) translate(4 207)">
<title>dependencies</title>
<polygon fill="#ffffff" stroke="transparent" points="-4,4 -4,-207 500,-207 500,4 -4,4"/>
<text text-anchor="start" x="227.0091" y="-42.4" font-family="sans-serif" font-weight="bold" font-size="14.00" fill="#000000">Legend</text>
<polygon fill="#ffffb3" stroke="transparent" points="14,-10 14,-30 34,-30 34,-10 14,-10"/>
<text text-anchor="start" x="37.629" y="-15.4" font-family="sans-serif" font-size="14.00" fill="#000000"> &#160;Declarations</text>
<polygon fill="#8dd3c7" stroke="transparent" points="127,-10 127,-30 147,-30 147,-10 127,-10"/>
<text text-anchor="start" x="150.7251" y="-15.4" font-family="sans-serif" font-size="14.00" fill="#000000"> &#160;Module</text>
<polygon fill="#80b1d3" stroke="transparent" points="213,-10 213,-30 233,-30 233,-10 213,-10"/>
<text text-anchor="start" x="236.7812" y="-15.4" font-family="sans-serif" font-size="14.00" fill="#000000"> &#160;Bootstrap</text>
<polygon fill="#fdb462" stroke="transparent" points="310,-10 310,-30 330,-30 330,-10 310,-10"/>
<text text-anchor="start" x="333.6732" y="-15.4" font-family="sans-serif" font-size="14.00" fill="#000000"> &#160;Providers</text>
<polygon fill="#fb8072" stroke="transparent" points="406,-10 406,-30 426,-30 426,-10 406,-10"/>
<text text-anchor="start" x="429.7258" y="-15.4" font-family="sans-serif" font-size="14.00" fill="#000000"> &#160;Exports</text>
<g id="clust1" class="cluster">
<title>cluster_SerialModule</title>
<polygon fill="none" stroke="#000000" stroke-dasharray="1,5" points="114,-70 114,-195 382,-195 382,-70 114,-70"/>
</g>
<g id="clust2" class="cluster">
<title>cluster_SerialModule_declarations</title>
<polygon fill="none" stroke="#000000" points="244,-78 244,-130 374,-130 374,-78 244,-78"/>
</g>
<g id="clust4" class="cluster">
<title>cluster_SerialModule_imports</title>
<polygon fill="none" stroke="#000000" points="122,-78 122,-130 236,-130 236,-78 122,-78"/>
</g>
<!-- SerialComponent -->
<g id="node1" class="node">
<title>SerialComponent</title>
<polygon fill="#ffffb3" stroke="#000000" points="365.986,-122 252.014,-122 252.014,-86 365.986,-86 365.986,-122"/>
<text text-anchor="middle" x="309" y="-99.8" font-family="Times,serif" font-size="14.00" fill="#000000">SerialComponent</text>
</g>
<!-- SerialModule -->
<g id="node2" class="node">
<title>SerialModule</title>
<polygon fill="#8dd3c7" stroke="#000000" points="290.2036,-187 287.2036,-191 266.2036,-191 263.2036,-187 197.7964,-187 197.7964,-151 290.2036,-151 290.2036,-187"/>
<text text-anchor="middle" x="244" y="-164.8" font-family="Times,serif" font-size="14.00" fill="#000000">SerialModule</text>
</g>
<!-- SerialComponent&#45;&gt;SerialModule -->
<g id="edge1" class="edge">
<title>SerialComponent&#45;&gt;SerialModule</title>
<path fill="none" stroke="#000000" d="M271.0544,-122.1061C271.0544,-122.1061 271.0544,-140.991 271.0544,-140.991"/>
<polygon fill="#000000" stroke="#000000" points="267.5544,-140.9909 271.0544,-150.991 274.5544,-140.991 267.5544,-140.9909"/>
</g>
<!-- SharedModule -->
<g id="node3" class="node">
<title>SharedModule</title>
<polygon fill="#8dd3c7" stroke="#000000" points="228.4231,-122 225.4231,-126 204.4231,-126 201.4231,-122 129.5769,-122 129.5769,-86 228.4231,-86 228.4231,-122"/>
<text text-anchor="middle" x="179" y="-99.8" font-family="Times,serif" font-size="14.00" fill="#000000">SharedModule</text>
</g>
<!-- SharedModule&#45;&gt;SerialModule -->
<g id="edge2" class="edge">
<title>SharedModule&#45;&gt;SerialModule</title>
<path fill="none" stroke="#000000" d="M213.0547,-122.1061C213.0547,-122.1061 213.0547,-140.991 213.0547,-140.991"/>
<polygon fill="#000000" stroke="#000000" points="209.5548,-140.9909 213.0547,-150.991 216.5548,-140.991 209.5548,-140.9909"/>
</g>
</g>
</svg>
