<?xml version="1.0" encoding="UTF-8" standalone="no"?>
<!DOCTYPE svg PUBLIC "-//W3C//DTD SVG 1.1//EN"
 "http://www.w3.org/Graphics/SVG/1.1/DTD/svg11.dtd">
<!-- Generated by graphviz version 2.40.1 (20161225.0304)
 -->
<!-- Title: dependencies Pages: 1 -->
<svg width="794pt" height="284pt"
 viewBox="0.00 0.00 794.00 284.00" xmlns="http://www.w3.org/2000/svg" xmlns:xlink="http://www.w3.org/1999/xlink">
<g id="graph0" class="graph" transform="scale(1 1) rotate(0) translate(4 280)">
<title>dependencies</title>
<polygon fill="#ffffff" stroke="transparent" points="-4,4 -4,-280 790,-280 790,4 -4,4"/>
<text text-anchor="start" x="372.0091" y="-42.4" font-family="sans-serif" font-weight="bold" font-size="14.00" fill="#000000">Legend</text>
<polygon fill="#ffffb3" stroke="transparent" points="159,-10 159,-30 179,-30 179,-10 159,-10"/>
<text text-anchor="start" x="182.629" y="-15.4" font-family="sans-serif" font-size="14.00" fill="#000000"> &#160;Declarations</text>
<polygon fill="#8dd3c7" stroke="transparent" points="272,-10 272,-30 292,-30 292,-10 272,-10"/>
<text text-anchor="start" x="295.7251" y="-15.4" font-family="sans-serif" font-size="14.00" fill="#000000"> &#160;Module</text>
<polygon fill="#80b1d3" stroke="transparent" points="358,-10 358,-30 378,-30 378,-10 358,-10"/>
<text text-anchor="start" x="381.7812" y="-15.4" font-family="sans-serif" font-size="14.00" fill="#000000"> &#160;Bootstrap</text>
<polygon fill="#fdb462" stroke="transparent" points="455,-10 455,-30 475,-30 475,-10 455,-10"/>
<text text-anchor="start" x="478.6732" y="-15.4" font-family="sans-serif" font-size="14.00" fill="#000000"> &#160;Providers</text>
<polygon fill="#fb8072" stroke="transparent" points="551,-10 551,-30 571,-30 571,-10 551,-10"/>
<text text-anchor="start" x="574.7258" y="-15.4" font-family="sans-serif" font-size="14.00" fill="#000000"> &#160;Exports</text>
<g id="clust1" class="cluster">
<title>cluster_EpisodeModule</title>
<polygon fill="none" stroke="#000000" stroke-dasharray="1,5" points="8,-70 8,-268 778,-268 778,-70 8,-70"/>
</g>
<g id="clust2" class="cluster">
<title>cluster_EpisodeModule_declarations</title>
<polygon fill="none" stroke="#000000" points="304,-78 304,-130 770,-130 770,-78 304,-78"/>
</g>
<g id="clust6" class="cluster">
<title>cluster_EpisodeModule_imports</title>
<polygon fill="none" stroke="#000000" points="182,-78 182,-130 296,-130 296,-78 182,-78"/>
</g>
<g id="clust7" class="cluster">
<title>cluster_EpisodeModule_exports</title>
<polygon fill="none" stroke="#000000" points="302,-208 302,-260 478,-260 478,-208 302,-208"/>
</g>
<g id="clust9" class="cluster">
<title>cluster_EpisodeModule_providers</title>
<polygon fill="none" stroke="#000000" points="16,-78 16,-130 174,-130 174,-78 16,-78"/>
</g>
<!-- EpisodeComponent -->
<g id="node1" class="node">
<title>EpisodeComponent</title>
<polygon fill="#ffffb3" stroke="#000000" points="762.4356,-122 635.5644,-122 635.5644,-86 762.4356,-86 762.4356,-122"/>
<text text-anchor="middle" x="699" y="-99.8" font-family="Times,serif" font-size="14.00" fill="#000000">EpisodeComponent</text>
</g>
<!-- EpisodeModule -->
<g id="node4" class="node">
<title>EpisodeModule</title>
<polygon fill="#8dd3c7" stroke="#000000" points="442.1528,-187 439.1528,-191 418.1528,-191 415.1528,-187 337.8472,-187 337.8472,-151 442.1528,-151 442.1528,-187"/>
<text text-anchor="middle" x="390" y="-164.8" font-family="Times,serif" font-size="14.00" fill="#000000">EpisodeModule</text>
</g>
<!-- EpisodeComponent&#45;&gt;EpisodeModule -->
<g id="edge1" class="edge">
<title>EpisodeComponent&#45;&gt;EpisodeModule</title>
<path fill="none" stroke="#000000" d="M699,-122.2843C699,-143.3211 699,-175 699,-175 699,-175 452.4176,-175 452.4176,-175"/>
<polygon fill="#000000" stroke="#000000" points="452.4177,-171.5001 442.4176,-175 452.4176,-178.5001 452.4177,-171.5001"/>
</g>
<!-- EpisodesComponent -->
<g id="node2" class="node">
<title>EpisodesComponent</title>
<polygon fill="#ffffb3" stroke="#000000" points="617.8795,-122 486.1205,-122 486.1205,-86 617.8795,-86 617.8795,-122"/>
<text text-anchor="middle" x="552" y="-99.8" font-family="Times,serif" font-size="14.00" fill="#000000">EpisodesComponent</text>
</g>
<!-- EpisodesComponent&#45;&gt;EpisodeModule -->
<g id="edge2" class="edge">
<title>EpisodesComponent&#45;&gt;EpisodeModule</title>
<path fill="none" stroke="#000000" d="M552,-122.0225C552,-139.3734 552,-163 552,-163 552,-163 452.5968,-163 452.5968,-163"/>
<polygon fill="#000000" stroke="#000000" points="452.5968,-159.5001 442.5968,-163 452.5967,-166.5001 452.5968,-159.5001"/>
</g>
<!-- EpisodeFormComponent -->
<g id="node3" class="node">
<title>EpisodeFormComponent</title>
<polygon fill="#ffffb3" stroke="#000000" points="468.2688,-122 311.7312,-122 311.7312,-86 468.2688,-86 468.2688,-122"/>
<text text-anchor="middle" x="390" y="-99.8" font-family="Times,serif" font-size="14.00" fill="#000000">EpisodeFormComponent</text>
</g>
<!-- EpisodeFormComponent&#45;&gt;EpisodeModule -->
<g id="edge3" class="edge">
<title>EpisodeFormComponent&#45;&gt;EpisodeModule</title>
<path fill="none" stroke="#000000" d="M390,-122.1061C390,-122.1061 390,-140.991 390,-140.991"/>
<polygon fill="#000000" stroke="#000000" points="386.5001,-140.9909 390,-150.991 393.5001,-140.991 386.5001,-140.9909"/>
</g>
<!-- EpisodeFormComponent  -->
<g id="node6" class="node">
<title>EpisodeFormComponent </title>
<polygon fill="#fb8072" stroke="#000000" points="470.2688,-252 309.7312,-252 309.7312,-216 470.2688,-216 470.2688,-252"/>
<text text-anchor="middle" x="390" y="-229.8" font-family="Times,serif" font-size="14.00" fill="#000000">EpisodeFormComponent </text>
</g>
<!-- EpisodeModule&#45;&gt;EpisodeFormComponent  -->
<g id="edge5" class="edge">
<title>EpisodeModule&#45;&gt;EpisodeFormComponent </title>
<path fill="none" stroke="#000000" stroke-dasharray="5,2" d="M390,-187.1061C390,-187.1061 390,-205.991 390,-205.991"/>
<polygon fill="#000000" stroke="#000000" points="386.5001,-205.9909 390,-215.991 393.5001,-205.991 386.5001,-205.9909"/>
</g>
<!-- SharedModule -->
<g id="node5" class="node">
<title>SharedModule</title>
<polygon fill="#8dd3c7" stroke="#000000" points="288.4231,-122 285.4231,-126 264.4231,-126 261.4231,-122 189.5769,-122 189.5769,-86 288.4231,-86 288.4231,-122"/>
<text text-anchor="middle" x="239" y="-99.8" font-family="Times,serif" font-size="14.00" fill="#000000">SharedModule</text>
</g>
<!-- SharedModule&#45;&gt;EpisodeModule -->
<g id="edge4" class="edge">
<title>SharedModule&#45;&gt;EpisodeModule</title>
<path fill="none" stroke="#000000" d="M239,-122.0225C239,-139.3734 239,-163 239,-163 239,-163 327.6113,-163 327.6113,-163"/>
<polygon fill="#000000" stroke="#000000" points="327.6113,-166.5001 337.6113,-163 327.6113,-159.5001 327.6113,-166.5001"/>
</g>
<!-- EpisodeService -->
<g id="node7" class="node">
<title>EpisodeService</title>
<ellipse fill="#fdb462" stroke="#000000" cx="95" cy="-104" rx="71.2056" ry="18"/>
<text text-anchor="middle" x="95" y="-99.8" font-family="Times,serif" font-size="14.00" fill="#000000">EpisodeService</text>
</g>
<!-- EpisodeService&#45;&gt;EpisodeModule -->
<g id="edge6" class="edge">
<title>EpisodeService&#45;&gt;EpisodeModule</title>
<path fill="none" stroke="#000000" d="M95,-122.2843C95,-143.3211 95,-175 95,-175 95,-175 327.5998,-175 327.5998,-175"/>
<polygon fill="#000000" stroke="#000000" points="327.5999,-178.5001 337.5998,-175 327.5998,-171.5001 327.5999,-178.5001"/>
</g>
</g>
</svg>
