<?xml version="1.0" encoding="UTF-8" standalone="no"?>
<!DOCTYPE svg PUBLIC "-//W3C//DTD SVG 1.1//EN"
 "http://www.w3.org/Graphics/SVG/1.1/DTD/svg11.dtd">
<!-- Generated by graphviz version 2.40.1 (20161225.0304)
 -->
<!-- Title: dependencies Pages: 1 -->
<svg width="1948pt" height="349pt"
 viewBox="0.00 0.00 1948.00 349.00" xmlns="http://www.w3.org/2000/svg" xmlns:xlink="http://www.w3.org/1999/xlink">
<g id="graph0" class="graph" transform="scale(1 1) rotate(0) translate(4 345)">
<title>dependencies</title>
<polygon fill="#ffffff" stroke="transparent" points="-4,4 -4,-345 1944,-345 1944,4 -4,4"/>
<text text-anchor="start" x="949.0091" y="-42.4" font-family="sans-serif" font-weight="bold" font-size="14.00" fill="#000000">Legend</text>
<polygon fill="#ffffb3" stroke="transparent" points="736,-10 736,-30 756,-30 756,-10 736,-10"/>
<text text-anchor="start" x="759.629" y="-15.4" font-family="sans-serif" font-size="14.00" fill="#000000"> &#160;Declarations</text>
<polygon fill="#8dd3c7" stroke="transparent" points="849,-10 849,-30 869,-30 869,-10 849,-10"/>
<text text-anchor="start" x="872.7251" y="-15.4" font-family="sans-serif" font-size="14.00" fill="#000000"> &#160;Module</text>
<polygon fill="#80b1d3" stroke="transparent" points="935,-10 935,-30 955,-30 955,-10 935,-10"/>
<text text-anchor="start" x="958.7812" y="-15.4" font-family="sans-serif" font-size="14.00" fill="#000000"> &#160;Bootstrap</text>
<polygon fill="#fdb462" stroke="transparent" points="1032,-10 1032,-30 1052,-30 1052,-10 1032,-10"/>
<text text-anchor="start" x="1055.6732" y="-15.4" font-family="sans-serif" font-size="14.00" fill="#000000"> &#160;Providers</text>
<polygon fill="#fb8072" stroke="transparent" points="1128,-10 1128,-30 1148,-30 1148,-10 1128,-10"/>
<text text-anchor="start" x="1151.7258" y="-15.4" font-family="sans-serif" font-size="14.00" fill="#000000"> &#160;Exports</text>
<g id="clust1" class="cluster">
<title>cluster_AppModule</title>
<polygon fill="none" stroke="#000000" stroke-dasharray="1,5" points="8,-70 8,-333 1932,-333 1932,-70 8,-70"/>
</g>
<g id="clust2" class="cluster">
<title>cluster_AppModule_declarations</title>
<polygon fill="none" stroke="#000000" points="920,-143 920,-195 1924,-195 1924,-143 920,-143"/>
</g>
<g id="clust3" class="cluster">
<title>cluster_AppModule_AppComponent_providers</title>
<polygon fill="none" stroke="#000000" points="1762,-78 1762,-130 1924,-130 1924,-78 1762,-78"/>
</g>
<g id="clust10" class="cluster">
<title>cluster_AppModule_imports</title>
<polygon fill="none" stroke="#000000" points="158,-143 158,-195 912,-195 912,-143 158,-143"/>
</g>
<g id="clust12" class="cluster">
<title>cluster_AppModule_bootstrap</title>
<polygon fill="none" stroke="#000000" points="862,-273 862,-325 986,-325 986,-273 862,-273"/>
</g>
<g id="clust13" class="cluster">
<title>cluster_AppModule_providers</title>
<polygon fill="none" stroke="#000000" points="16,-143 16,-195 150,-195 150,-143 16,-143"/>
</g>
<!-- AppComponent -->
<g id="node1" class="node">
<title>AppComponent</title>
<polygon fill="#ffffb3" stroke="#000000" points="1915.9399,-187 1810.0601,-187 1810.0601,-151 1915.9399,-151 1915.9399,-187"/>
<text text-anchor="middle" x="1863" y="-164.8" font-family="Times,serif" font-size="14.00" fill="#000000">AppComponent</text>
</g>
<!-- AppModule -->
<g id="node8" class="node">
<title>AppModule</title>
<polygon fill="#8dd3c7" stroke="#000000" points="965.6571,-252 962.6571,-256 941.6571,-256 938.6571,-252 882.3429,-252 882.3429,-216 965.6571,-216 965.6571,-252"/>
<text text-anchor="middle" x="924" y="-229.8" font-family="Times,serif" font-size="14.00" fill="#000000">AppModule</text>
</g>
<!-- AppComponent&#45;&gt;AppModule -->
<g id="edge1" class="edge">
<title>AppComponent&#45;&gt;AppModule</title>
<path fill="none" stroke="#000000" d="M1863,-187.0908C1863,-210.1328 1863,-247 1863,-247 1863,-247 975.8647,-247 975.8647,-247"/>
<polygon fill="#000000" stroke="#000000" points="975.8647,-243.5001 965.8647,-247 975.8646,-250.5001 975.8647,-243.5001"/>
</g>
<!-- ProseComponent -->
<g id="node2" class="node">
<title>ProseComponent</title>
<polygon fill="#ffffb3" stroke="#000000" points="1792.4356,-187 1679.5644,-187 1679.5644,-151 1792.4356,-151 1792.4356,-187"/>
<text text-anchor="middle" x="1736" y="-164.8" font-family="Times,serif" font-size="14.00" fill="#000000">ProseComponent</text>
</g>
<!-- ProseComponent&#45;&gt;AppModule -->
<g id="edge3" class="edge">
<title>ProseComponent&#45;&gt;AppModule</title>
<path fill="none" stroke="#000000" d="M1736,-187.0449C1736,-208.6623 1736,-242 1736,-242 1736,-242 975.6647,-242 975.6647,-242"/>
<polygon fill="#000000" stroke="#000000" points="975.6648,-238.5001 965.6647,-242 975.6647,-245.5001 975.6648,-238.5001"/>
</g>
<!-- ChapterComponent -->
<g id="node3" class="node">
<title>ChapterComponent</title>
<polygon fill="#ffffb3" stroke="#000000" points="1661.6499,-187 1536.3501,-187 1536.3501,-151 1661.6499,-151 1661.6499,-187"/>
<text text-anchor="middle" x="1599" y="-164.8" font-family="Times,serif" font-size="14.00" fill="#000000">ChapterComponent</text>
</g>
<!-- ChapterComponent&#45;&gt;AppModule -->
<g id="edge4" class="edge">
<title>ChapterComponent&#45;&gt;AppModule</title>
<path fill="none" stroke="#000000" d="M1599,-187.2228C1599,-207.3652 1599,-237 1599,-237 1599,-237 975.7149,-237 975.7149,-237"/>
<polygon fill="#000000" stroke="#000000" points="975.7149,-233.5001 965.7149,-237 975.7148,-240.5001 975.7149,-233.5001"/>
</g>
<!-- ChapterIdComponent -->
<g id="node4" class="node">
<title>ChapterIdComponent</title>
<polygon fill="#ffffb3" stroke="#000000" points="1518.8104,-187 1381.1896,-187 1381.1896,-151 1518.8104,-151 1518.8104,-187"/>
<text text-anchor="middle" x="1450" y="-164.8" font-family="Times,serif" font-size="14.00" fill="#000000">ChapterIdComponent</text>
</g>
<!-- ChapterIdComponent&#45;&gt;AppModule -->
<g id="edge5" class="edge">
<title>ChapterIdComponent&#45;&gt;AppModule</title>
<path fill="none" stroke="#000000" d="M1450,-187.2222C1450,-205.8285 1450,-232 1450,-232 1450,-232 975.714,-232 975.714,-232"/>
<polygon fill="#000000" stroke="#000000" points="975.714,-228.5001 965.714,-232 975.714,-235.5001 975.714,-228.5001"/>
</g>
<!-- HomeComponent -->
<g id="node5" class="node">
<title>HomeComponent</title>
<polygon fill="#ffffb3" stroke="#000000" points="1363.5451,-187 1248.4549,-187 1248.4549,-151 1363.5451,-151 1363.5451,-187"/>
<text text-anchor="middle" x="1306" y="-164.8" font-family="Times,serif" font-size="14.00" fill="#000000">HomeComponent</text>
</g>
<!-- HomeComponent&#45;&gt;AppModule -->
<g id="edge6" class="edge">
<title>HomeComponent&#45;&gt;AppModule</title>
<path fill="none" stroke="#000000" d="M1306,-187.0336C1306,-204.0597 1306,-227 1306,-227 1306,-227 975.9734,-227 975.9734,-227"/>
<polygon fill="#000000" stroke="#000000" points="975.9734,-223.5001 965.9734,-227 975.9734,-230.5001 975.9734,-223.5001"/>
</g>
<!-- NotFoundComponent -->
<g id="node6" class="node">
<title>NotFoundComponent</title>
<polygon fill="#ffffb3" stroke="#000000" points="1230.1122,-187 1091.8878,-187 1091.8878,-151 1230.1122,-151 1230.1122,-187"/>
<text text-anchor="middle" x="1161" y="-164.8" font-family="Times,serif" font-size="14.00" fill="#000000">NotFoundComponent</text>
</g>
<!-- NotFoundComponent&#45;&gt;AppModule -->
<g id="edge7" class="edge">
<title>NotFoundComponent&#45;&gt;AppModule</title>
<path fill="none" stroke="#000000" d="M1161,-187.2396C1161,-202.5706 1161,-222 1161,-222 1161,-222 975.8253,-222 975.8253,-222"/>
<polygon fill="#000000" stroke="#000000" points="975.8253,-218.5001 965.8253,-222 975.8253,-225.5001 975.8253,-218.5001"/>
</g>
<!-- AppHeaderComponent -->
<g id="node7" class="node">
<title>AppHeaderComponent</title>
<polygon fill="#ffffb3" stroke="#000000" points="1073.8501,-187 928.1499,-187 928.1499,-151 1073.8501,-151 1073.8501,-187"/>
<text text-anchor="middle" x="1001" y="-164.8" font-family="Times,serif" font-size="14.00" fill="#000000">AppHeaderComponent</text>
</g>
<!-- AppHeaderComponent&#45;&gt;AppModule -->
<g id="edge8" class="edge">
<title>AppHeaderComponent&#45;&gt;AppModule</title>
<path fill="none" stroke="#000000" d="M946.9516,-187.1061C946.9516,-187.1061 946.9516,-205.991 946.9516,-205.991"/>
<polygon fill="#000000" stroke="#000000" points="943.4517,-205.9909 946.9516,-215.991 950.4517,-205.991 943.4517,-205.9909"/>
</g>
<!-- AppComponent  -->
<g id="node16" class="node">
<title>AppComponent </title>
<polygon fill="#80b1d3" stroke="#000000" points="978.439,-317 869.561,-317 869.561,-281 978.439,-281 978.439,-317"/>
<text text-anchor="middle" x="924" y="-294.8" font-family="Times,serif" font-size="14.00" fill="#000000">AppComponent </text>
</g>
<!-- AppModule&#45;&gt;AppComponent  -->
<g id="edge15" class="edge">
<title>AppModule&#45;&gt;AppComponent </title>
<path fill="none" stroke="#000000" stroke-dasharray="1,5" d="M924,-252.1061C924,-252.1061 924,-270.991 924,-270.991"/>
<polygon fill="#000000" stroke="#000000" points="920.5001,-270.9909 924,-280.991 927.5001,-270.991 920.5001,-270.9909"/>
</g>
<!-- FirebaseService -->
<g id="node9" class="node">
<title>FirebaseService</title>
<ellipse fill="#fdb462" stroke="#000000" cx="1843" cy="-104" rx="72.9063" ry="18"/>
<text text-anchor="middle" x="1843" y="-99.8" font-family="Times,serif" font-size="14.00" fill="#000000">FirebaseService</text>
</g>
<!-- FirebaseService&#45;&gt;AppComponent -->
<g id="edge2" class="edge">
<title>FirebaseService&#45;&gt;AppComponent</title>
<path fill="none" stroke="#000000" d="M1862.9917,-121.4188C1862.9917,-121.4188 1862.9917,-140.6234 1862.9917,-140.6234"/>
<polygon fill="#000000" stroke="#000000" points="1859.4918,-140.6234 1862.9917,-150.6234 1866.4918,-140.6234 1859.4918,-140.6234"/>
</g>
<!-- AddStoryModule -->
<g id="node10" class="node">
<title>AddStoryModule</title>
<polygon fill="#8dd3c7" stroke="#000000" points="903.9902,-187 900.9902,-191 879.9902,-191 876.9902,-187 790.0098,-187 790.0098,-151 903.9902,-151 903.9902,-187"/>
<text text-anchor="middle" x="847" y="-164.8" font-family="Times,serif" font-size="14.00" fill="#000000">AddStoryModule</text>
</g>
<!-- AddStoryModule&#45;&gt;AppModule -->
<g id="edge9" class="edge">
<title>AddStoryModule&#45;&gt;AppModule</title>
<path fill="none" stroke="#000000" d="M893.0835,-187.1061C893.0835,-187.1061 893.0835,-205.991 893.0835,-205.991"/>
<polygon fill="#000000" stroke="#000000" points="889.5835,-205.9909 893.0835,-215.991 896.5835,-205.991 889.5835,-205.9909"/>
</g>
<!-- SharedModule -->
<g id="node11" class="node">
<title>SharedModule</title>
<polygon fill="#8dd3c7" stroke="#000000" points="772.4231,-187 769.4231,-191 748.4231,-191 745.4231,-187 673.5769,-187 673.5769,-151 772.4231,-151 772.4231,-187"/>
<text text-anchor="middle" x="723" y="-164.8" font-family="Times,serif" font-size="14.00" fill="#000000">SharedModule</text>
</g>
<!-- SharedModule&#45;&gt;AppModule -->
<g id="edge10" class="edge">
<title>SharedModule&#45;&gt;AppModule</title>
<path fill="none" stroke="#000000" d="M723,-187.2396C723,-202.5706 723,-222 723,-222 723,-222 871.8638,-222 871.8638,-222"/>
<polygon fill="#000000" stroke="#000000" points="871.8638,-225.5001 881.8638,-222 871.8638,-218.5001 871.8638,-225.5001"/>
</g>
<!-- LoginModule -->
<g id="node12" class="node">
<title>LoginModule</title>
<polygon fill="#8dd3c7" stroke="#000000" points="655.493,-187 652.493,-191 631.493,-191 628.493,-187 562.507,-187 562.507,-151 655.493,-151 655.493,-187"/>
<text text-anchor="middle" x="609" y="-164.8" font-family="Times,serif" font-size="14.00" fill="#000000">LoginModule</text>
</g>
<!-- LoginModule&#45;&gt;AppModule -->
<g id="edge11" class="edge">
<title>LoginModule&#45;&gt;AppModule</title>
<path fill="none" stroke="#000000" d="M609,-187.0336C609,-204.0597 609,-227 609,-227 609,-227 872.1704,-227 872.1704,-227"/>
<polygon fill="#000000" stroke="#000000" points="872.1705,-230.5001 882.1704,-227 872.1704,-223.5001 872.1705,-230.5001"/>
</g>
<!-- RegisterModule -->
<g id="node13" class="node">
<title>RegisterModule</title>
<polygon fill="#8dd3c7" stroke="#000000" points="544.2022,-187 541.2022,-191 520.2022,-191 517.2022,-187 437.7978,-187 437.7978,-151 544.2022,-151 544.2022,-187"/>
<text text-anchor="middle" x="491" y="-164.8" font-family="Times,serif" font-size="14.00" fill="#000000">RegisterModule</text>
</g>
<!-- RegisterModule&#45;&gt;AppModule -->
<g id="edge12" class="edge">
<title>RegisterModule&#45;&gt;AppModule</title>
<path fill="none" stroke="#000000" d="M491,-187.2222C491,-205.8285 491,-232 491,-232 491,-232 872.0887,-232 872.0887,-232"/>
<polygon fill="#000000" stroke="#000000" points="872.0887,-235.5001 882.0887,-232 872.0887,-228.5001 872.0887,-235.5001"/>
</g>
<!-- ContentModule -->
<g id="node14" class="node">
<title>ContentModule</title>
<polygon fill="#8dd3c7" stroke="#000000" points="419.8823,-187 416.8823,-191 395.8823,-191 392.8823,-187 316.1177,-187 316.1177,-151 419.8823,-151 419.8823,-187"/>
<text text-anchor="middle" x="368" y="-164.8" font-family="Times,serif" font-size="14.00" fill="#000000">ContentModule</text>
</g>
<!-- ContentModule&#45;&gt;AppModule -->
<g id="edge13" class="edge">
<title>ContentModule&#45;&gt;AppModule</title>
<path fill="none" stroke="#000000" d="M368,-187.2228C368,-207.3652 368,-237 368,-237 368,-237 872.2096,-237 872.2096,-237"/>
<polygon fill="#000000" stroke="#000000" points="872.2097,-240.5001 882.2096,-237 872.2096,-233.5001 872.2097,-240.5001"/>
</g>
<!-- SharedLoginModule -->
<g id="node15" class="node">
<title>SharedLoginModule</title>
<polygon fill="#8dd3c7" stroke="#000000" points="297.8655,-187 294.8655,-191 273.8655,-191 270.8655,-187 166.1345,-187 166.1345,-151 297.8655,-151 297.8655,-187"/>
<text text-anchor="middle" x="232" y="-164.8" font-family="Times,serif" font-size="14.00" fill="#000000">SharedLoginModule</text>
</g>
<!-- SharedLoginModule&#45;&gt;AppModule -->
<g id="edge14" class="edge">
<title>SharedLoginModule&#45;&gt;AppModule</title>
<path fill="none" stroke="#000000" d="M232,-187.0449C232,-208.6623 232,-242 232,-242 232,-242 872.2707,-242 872.2707,-242"/>
<polygon fill="#000000" stroke="#000000" points="872.2707,-245.5001 882.2707,-242 872.2706,-238.5001 872.2707,-245.5001"/>
</g>
<!-- AuthService -->
<g id="node17" class="node">
<title>AuthService</title>
<ellipse fill="#fdb462" stroke="#000000" cx="83" cy="-169" rx="59.1083" ry="18"/>
<text text-anchor="middle" x="83" y="-164.8" font-family="Times,serif" font-size="14.00" fill="#000000">AuthService</text>
</g>
<!-- AuthService&#45;&gt;AppModule -->
<g id="edge16" class="edge">
<title>AuthService&#45;&gt;AppModule</title>
<path fill="none" stroke="#000000" d="M83,-187.0908C83,-210.1328 83,-247 83,-247 83,-247 872.2947,-247 872.2947,-247"/>
<polygon fill="#000000" stroke="#000000" points="872.2947,-250.5001 882.2947,-247 872.2946,-243.5001 872.2947,-250.5001"/>
</g>
</g>
</svg>
