<?xml version="1.0" encoding="UTF-8" standalone="no"?>
<!DOCTYPE svg PUBLIC "-//W3C//DTD SVG 1.1//EN"
 "http://www.w3.org/Graphics/SVG/1.1/DTD/svg11.dtd">
<!-- Generated by graphviz version 2.40.1 (20161225.0304)
 -->
<!-- Title: dependencies Pages: 1 -->
<svg width="2094pt" height="349pt"
 viewBox="0.00 0.00 2094.00 349.00" xmlns="http://www.w3.org/2000/svg" xmlns:xlink="http://www.w3.org/1999/xlink">
<g id="graph0" class="graph" transform="scale(1 1) rotate(0) translate(4 345)">
<title>dependencies</title>
<polygon fill="#ffffff" stroke="transparent" points="-4,4 -4,-345 2090,-345 2090,4 -4,4"/>
<text text-anchor="start" x="1022.0091" y="-42.4" font-family="sans-serif" font-weight="bold" font-size="14.00" fill="#000000">Legend</text>
<polygon fill="#ffffb3" stroke="transparent" points="809,-10 809,-30 829,-30 829,-10 809,-10"/>
<text text-anchor="start" x="832.629" y="-15.4" font-family="sans-serif" font-size="14.00" fill="#000000"> &#160;Declarations</text>
<polygon fill="#8dd3c7" stroke="transparent" points="922,-10 922,-30 942,-30 942,-10 922,-10"/>
<text text-anchor="start" x="945.7251" y="-15.4" font-family="sans-serif" font-size="14.00" fill="#000000"> &#160;Module</text>
<polygon fill="#80b1d3" stroke="transparent" points="1008,-10 1008,-30 1028,-30 1028,-10 1008,-10"/>
<text text-anchor="start" x="1031.7812" y="-15.4" font-family="sans-serif" font-size="14.00" fill="#000000"> &#160;Bootstrap</text>
<polygon fill="#fdb462" stroke="transparent" points="1105,-10 1105,-30 1125,-30 1125,-10 1105,-10"/>
<text text-anchor="start" x="1128.6732" y="-15.4" font-family="sans-serif" font-size="14.00" fill="#000000"> &#160;Providers</text>
<polygon fill="#fb8072" stroke="transparent" points="1201,-10 1201,-30 1221,-30 1221,-10 1201,-10"/>
<text text-anchor="start" x="1224.7258" y="-15.4" font-family="sans-serif" font-size="14.00" fill="#000000"> &#160;Exports</text>
<g id="clust1" class="cluster">
<title>cluster_AppModule</title>
<polygon fill="none" stroke="#000000" stroke-dasharray="1,5" points="8,-70 8,-333 2078,-333 2078,-70 8,-70"/>
</g>
<g id="clust2" class="cluster">
<title>cluster_AppModule_declarations</title>
<polygon fill="none" stroke="#000000" points="1066,-143 1066,-195 2070,-195 2070,-143 1066,-143"/>
</g>
<g id="clust3" class="cluster">
<title>cluster_AppModule_AppComponent_providers</title>
<polygon fill="none" stroke="#000000" points="1908,-78 1908,-130 2070,-130 2070,-78 1908,-78"/>
</g>
<g id="clust10" class="cluster">
<title>cluster_AppModule_imports</title>
<polygon fill="none" stroke="#000000" points="158,-143 158,-195 1058,-195 1058,-143 158,-143"/>
</g>
<g id="clust12" class="cluster">
<title>cluster_AppModule_bootstrap</title>
<polygon fill="none" stroke="#000000" points="924,-273 924,-325 1048,-325 1048,-273 924,-273"/>
</g>
<g id="clust13" class="cluster">
<title>cluster_AppModule_providers</title>
<polygon fill="none" stroke="#000000" points="16,-143 16,-195 150,-195 150,-143 16,-143"/>
</g>
<!-- AppComponent -->
<g id="node1" class="node">
<title>AppComponent</title>
<polygon fill="#ffffb3" stroke="#000000" points="2061.9399,-187 1956.0601,-187 1956.0601,-151 2061.9399,-151 2061.9399,-187"/>
<text text-anchor="middle" x="2009" y="-164.8" font-family="Times,serif" font-size="14.00" fill="#000000">AppComponent</text>
</g>
<!-- AppModule -->
<g id="node8" class="node">
<title>AppModule</title>
<polygon fill="#8dd3c7" stroke="#000000" points="1027.6571,-252 1024.6571,-256 1003.6571,-256 1000.6571,-252 944.3429,-252 944.3429,-216 1027.6571,-216 1027.6571,-252"/>
<text text-anchor="middle" x="986" y="-229.8" font-family="Times,serif" font-size="14.00" fill="#000000">AppModule</text>
</g>
<!-- AppComponent&#45;&gt;AppModule -->
<g id="edge1" class="edge">
<title>AppComponent&#45;&gt;AppModule</title>
<path fill="none" stroke="#000000" d="M2009,-187.3228C2009,-210.6602 2009,-248 2009,-248 2009,-248 1037.6894,-248 1037.6894,-248"/>
<polygon fill="#000000" stroke="#000000" points="1037.6894,-244.5001 1027.6894,-248 1037.6893,-251.5001 1037.6894,-244.5001"/>
</g>
<!-- ProseComponent -->
<g id="node2" class="node">
<title>ProseComponent</title>
<polygon fill="#ffffb3" stroke="#000000" points="1938.4356,-187 1825.5644,-187 1825.5644,-151 1938.4356,-151 1938.4356,-187"/>
<text text-anchor="middle" x="1882" y="-164.8" font-family="Times,serif" font-size="14.00" fill="#000000">ProseComponent</text>
</g>
<!-- ProseComponent&#45;&gt;AppModule -->
<g id="edge3" class="edge">
<title>ProseComponent&#45;&gt;AppModule</title>
<path fill="none" stroke="#000000" d="M1882,-187.2921C1882,-209.2057 1882,-243 1882,-243 1882,-243 1037.7161,-243 1037.7161,-243"/>
<polygon fill="#000000" stroke="#000000" points="1037.7161,-239.5001 1027.7161,-243 1037.716,-246.5001 1037.7161,-239.5001"/>
</g>
<!-- ChapterComponent -->
<g id="node3" class="node">
<title>ChapterComponent</title>
<polygon fill="#ffffb3" stroke="#000000" points="1807.6499,-187 1682.3501,-187 1682.3501,-151 1807.6499,-151 1807.6499,-187"/>
<text text-anchor="middle" x="1745" y="-164.8" font-family="Times,serif" font-size="14.00" fill="#000000">ChapterComponent</text>
</g>
<!-- ChapterComponent&#45;&gt;AppModule -->
<g id="edge4" class="edge">
<title>ChapterComponent&#45;&gt;AppModule</title>
<path fill="none" stroke="#000000" d="M1745,-187.0267C1745,-207.7672 1745,-239 1745,-239 1745,-239 1037.8883,-239 1037.8883,-239"/>
<polygon fill="#000000" stroke="#000000" points="1037.8883,-235.5001 1027.8883,-239 1037.8882,-242.5001 1037.8883,-235.5001"/>
</g>
<!-- ChapterIdComponent -->
<g id="node4" class="node">
<title>ChapterIdComponent</title>
<polygon fill="#ffffb3" stroke="#000000" points="1664.8104,-187 1527.1896,-187 1527.1896,-151 1664.8104,-151 1664.8104,-187"/>
<text text-anchor="middle" x="1596" y="-164.8" font-family="Times,serif" font-size="14.00" fill="#000000">ChapterIdComponent</text>
</g>
<!-- ChapterIdComponent&#45;&gt;AppModule -->
<g id="edge5" class="edge">
<title>ChapterIdComponent&#45;&gt;AppModule</title>
<path fill="none" stroke="#000000" d="M1596,-187.1061C1596,-206.3391 1596,-234 1596,-234 1596,-234 1037.9278,-234 1037.9278,-234"/>
<polygon fill="#000000" stroke="#000000" points="1037.9278,-230.5001 1027.9278,-234 1037.9277,-237.5001 1037.9278,-230.5001"/>
</g>
<!-- HomeComponent -->
<g id="node5" class="node">
<title>HomeComponent</title>
<polygon fill="#ffffb3" stroke="#000000" points="1509.5451,-187 1394.4549,-187 1394.4549,-151 1509.5451,-151 1509.5451,-187"/>
<text text-anchor="middle" x="1452" y="-164.8" font-family="Times,serif" font-size="14.00" fill="#000000">HomeComponent</text>
</g>
<!-- HomeComponent&#45;&gt;AppModule -->
<g id="edge6" class="edge">
<title>HomeComponent&#45;&gt;AppModule</title>
<path fill="none" stroke="#000000" d="M1452,-187.302C1452,-205.2699 1452,-230 1452,-230 1452,-230 1037.7645,-230 1037.7645,-230"/>
<polygon fill="#000000" stroke="#000000" points="1037.7645,-226.5001 1027.7645,-230 1037.7645,-233.5001 1037.7645,-226.5001"/>
</g>
<!-- NotFoundComponent -->
<g id="node6" class="node">
<title>NotFoundComponent</title>
<polygon fill="#ffffb3" stroke="#000000" points="1376.1122,-187 1237.8878,-187 1237.8878,-151 1376.1122,-151 1376.1122,-187"/>
<text text-anchor="middle" x="1307" y="-164.8" font-family="Times,serif" font-size="14.00" fill="#000000">NotFoundComponent</text>
</g>
<!-- NotFoundComponent&#45;&gt;AppModule -->
<g id="edge7" class="edge">
<title>NotFoundComponent&#45;&gt;AppModule</title>
<path fill="none" stroke="#000000" d="M1307,-187.027C1307,-203.3976 1307,-225 1307,-225 1307,-225 1037.9651,-225 1037.9651,-225"/>
<polygon fill="#000000" stroke="#000000" points="1037.9652,-221.5001 1027.9651,-225 1037.9651,-228.5001 1037.9652,-221.5001"/>
</g>
<!-- AppHeaderComponent -->
<g id="node7" class="node">
<title>AppHeaderComponent</title>
<polygon fill="#ffffb3" stroke="#000000" points="1219.8501,-187 1074.1499,-187 1074.1499,-151 1219.8501,-151 1219.8501,-187"/>
<text text-anchor="middle" x="1147" y="-164.8" font-family="Times,serif" font-size="14.00" fill="#000000">AppHeaderComponent</text>
</g>
<!-- AppHeaderComponent&#45;&gt;AppModule -->
<g id="edge8" class="edge">
<title>AppHeaderComponent&#45;&gt;AppModule</title>
<path fill="none" stroke="#000000" d="M1147,-187.1871C1147,-202.1824 1147,-221 1147,-221 1147,-221 1037.8806,-221 1037.8806,-221"/>
<polygon fill="#000000" stroke="#000000" points="1037.8806,-217.5001 1027.8806,-221 1037.8805,-224.5001 1037.8806,-217.5001"/>
</g>
<!-- AppComponent  -->
<g id="node17" class="node">
<title>AppComponent </title>
<polygon fill="#80b1d3" stroke="#000000" points="1040.439,-317 931.561,-317 931.561,-281 1040.439,-281 1040.439,-317"/>
<text text-anchor="middle" x="986" y="-294.8" font-family="Times,serif" font-size="14.00" fill="#000000">AppComponent </text>
</g>
<!-- AppModule&#45;&gt;AppComponent  -->
<g id="edge16" class="edge">
<title>AppModule&#45;&gt;AppComponent </title>
<path fill="none" stroke="#000000" stroke-dasharray="1,5" d="M986,-252.1061C986,-252.1061 986,-270.991 986,-270.991"/>
<polygon fill="#000000" stroke="#000000" points="982.5001,-270.9909 986,-280.991 989.5001,-270.991 982.5001,-270.9909"/>
</g>
<!-- FirebaseService -->
<g id="node9" class="node">
<title>FirebaseService</title>
<ellipse fill="#fdb462" stroke="#000000" cx="1989" cy="-104" rx="72.9063" ry="18"/>
<text text-anchor="middle" x="1989" y="-99.8" font-family="Times,serif" font-size="14.00" fill="#000000">FirebaseService</text>
</g>
<!-- FirebaseService&#45;&gt;AppComponent -->
<g id="edge2" class="edge">
<title>FirebaseService&#45;&gt;AppComponent</title>
<path fill="none" stroke="#000000" d="M2008.9917,-121.4188C2008.9917,-121.4188 2008.9917,-140.6234 2008.9917,-140.6234"/>
<polygon fill="#000000" stroke="#000000" points="2005.4918,-140.6234 2008.9917,-150.6234 2012.4918,-140.6234 2005.4918,-140.6234"/>
</g>
<!-- AppRoutingModule -->
<g id="node10" class="node">
<title>AppRoutingModule</title>
<polygon fill="#8dd3c7" stroke="#000000" points="1050.2744,-187 1047.2744,-191 1026.2744,-191 1023.2744,-187 921.7256,-187 921.7256,-151 1050.2744,-151 1050.2744,-187"/>
<text text-anchor="middle" x="986" y="-164.8" font-family="Times,serif" font-size="14.00" fill="#000000">AppRoutingModule</text>
</g>
<!-- AppRoutingModule&#45;&gt;AppModule -->
<g id="edge9" class="edge">
<title>AppRoutingModule&#45;&gt;AppModule</title>
<path fill="none" stroke="#000000" d="M986,-187.1061C986,-187.1061 986,-205.991 986,-205.991"/>
<polygon fill="#000000" stroke="#000000" points="982.5001,-205.9909 986,-215.991 989.5001,-205.991 982.5001,-205.9909"/>
</g>
<!-- AddStoryModule -->
<g id="node11" class="node">
<title>AddStoryModule</title>
<polygon fill="#8dd3c7" stroke="#000000" points="903.9902,-187 900.9902,-191 879.9902,-191 876.9902,-187 790.0098,-187 790.0098,-151 903.9902,-151 903.9902,-187"/>
<text text-anchor="middle" x="847" y="-164.8" font-family="Times,serif" font-size="14.00" fill="#000000">AddStoryModule</text>
</g>
<!-- AddStoryModule&#45;&gt;AppModule -->
<g id="edge10" class="edge">
<title>AddStoryModule&#45;&gt;AppModule</title>
<path fill="none" stroke="#000000" d="M847,-187.1871C847,-202.1824 847,-221 847,-221 847,-221 934.2954,-221 934.2954,-221"/>
<polygon fill="#000000" stroke="#000000" points="934.2955,-224.5001 944.2954,-221 934.2954,-217.5001 934.2955,-224.5001"/>
</g>
<!-- SharedModule -->
<g id="node12" class="node">
<title>SharedModule</title>
<polygon fill="#8dd3c7" stroke="#000000" points="772.4231,-187 769.4231,-191 748.4231,-191 745.4231,-187 673.5769,-187 673.5769,-151 772.4231,-151 772.4231,-187"/>
<text text-anchor="middle" x="723" y="-164.8" font-family="Times,serif" font-size="14.00" fill="#000000">SharedModule</text>
</g>
<!-- SharedModule&#45;&gt;AppModule -->
<g id="edge11" class="edge">
<title>SharedModule&#45;&gt;AppModule</title>
<path fill="none" stroke="#000000" d="M723,-187.027C723,-203.3976 723,-225 723,-225 723,-225 934.3269,-225 934.3269,-225"/>
<polygon fill="#000000" stroke="#000000" points="934.3269,-228.5001 944.3269,-225 934.3268,-221.5001 934.3269,-228.5001"/>
</g>
<!-- LoginModule -->
<g id="node13" class="node">
<title>LoginModule</title>
<polygon fill="#8dd3c7" stroke="#000000" points="655.493,-187 652.493,-191 631.493,-191 628.493,-187 562.507,-187 562.507,-151 655.493,-151 655.493,-187"/>
<text text-anchor="middle" x="609" y="-164.8" font-family="Times,serif" font-size="14.00" fill="#000000">LoginModule</text>
</g>
<!-- LoginModule&#45;&gt;AppModule -->
<g id="edge12" class="edge">
<title>LoginModule&#45;&gt;AppModule</title>
<path fill="none" stroke="#000000" d="M609,-187.302C609,-205.2699 609,-230 609,-230 609,-230 934.214,-230 934.214,-230"/>
<polygon fill="#000000" stroke="#000000" points="934.214,-233.5001 944.214,-230 934.2139,-226.5001 934.214,-233.5001"/>
</g>
<!-- RegisterModule -->
<g id="node14" class="node">
<title>RegisterModule</title>
<polygon fill="#8dd3c7" stroke="#000000" points="544.2022,-187 541.2022,-191 520.2022,-191 517.2022,-187 437.7978,-187 437.7978,-151 544.2022,-151 544.2022,-187"/>
<text text-anchor="middle" x="491" y="-164.8" font-family="Times,serif" font-size="14.00" fill="#000000">RegisterModule</text>
</g>
<!-- RegisterModule&#45;&gt;AppModule -->
<g id="edge13" class="edge">
<title>RegisterModule&#45;&gt;AppModule</title>
<path fill="none" stroke="#000000" d="M491,-187.1061C491,-206.3391 491,-234 491,-234 491,-234 934.2232,-234 934.2232,-234"/>
<polygon fill="#000000" stroke="#000000" points="934.2232,-237.5001 944.2232,-234 934.2232,-230.5001 934.2232,-237.5001"/>
</g>
<!-- ContentModule -->
<g id="node15" class="node">
<title>ContentModule</title>
<polygon fill="#8dd3c7" stroke="#000000" points="419.8823,-187 416.8823,-191 395.8823,-191 392.8823,-187 316.1177,-187 316.1177,-151 419.8823,-151 419.8823,-187"/>
<text text-anchor="middle" x="368" y="-164.8" font-family="Times,serif" font-size="14.00" fill="#000000">ContentModule</text>
</g>
<!-- ContentModule&#45;&gt;AppModule -->
<g id="edge14" class="edge">
<title>ContentModule&#45;&gt;AppModule</title>
<path fill="none" stroke="#000000" d="M368,-187.0267C368,-207.7672 368,-239 368,-239 368,-239 934.0082,-239 934.0082,-239"/>
<polygon fill="#000000" stroke="#000000" points="934.0082,-242.5001 944.0082,-239 934.0082,-235.5001 934.0082,-242.5001"/>
</g>
<!-- SharedLoginModule -->
<g id="node16" class="node">
<title>SharedLoginModule</title>
<polygon fill="#8dd3c7" stroke="#000000" points="297.8655,-187 294.8655,-191 273.8655,-191 270.8655,-187 166.1345,-187 166.1345,-151 297.8655,-151 297.8655,-187"/>
<text text-anchor="middle" x="232" y="-164.8" font-family="Times,serif" font-size="14.00" fill="#000000">SharedLoginModule</text>
</g>
<!-- SharedLoginModule&#45;&gt;AppModule -->
<g id="edge15" class="edge">
<title>SharedLoginModule&#45;&gt;AppModule</title>
<path fill="none" stroke="#000000" d="M232,-187.2921C232,-209.2057 232,-243 232,-243 232,-243 934.1172,-243 934.1172,-243"/>
<polygon fill="#000000" stroke="#000000" points="934.1173,-246.5001 944.1172,-243 934.1172,-239.5001 934.1173,-246.5001"/>
</g>
<!-- AuthService -->
<g id="node18" class="node">
<title>AuthService</title>
<ellipse fill="#fdb462" stroke="#000000" cx="83" cy="-169" rx="59.1083" ry="18"/>
<text text-anchor="middle" x="83" y="-164.8" font-family="Times,serif" font-size="14.00" fill="#000000">AuthService</text>
</g>
<!-- AuthService&#45;&gt;AppModule -->
<g id="edge17" class="edge">
<title>AuthService&#45;&gt;AppModule</title>
<path fill="none" stroke="#000000" d="M83,-187.3228C83,-210.6602 83,-248 83,-248 83,-248 934.2575,-248 934.2575,-248"/>
<polygon fill="#000000" stroke="#000000" points="934.2575,-251.5001 944.2575,-248 934.2574,-244.5001 934.2575,-251.5001"/>
</g>
</g>
</svg>
