<?xml version="1.0" encoding="UTF-8" standalone="no"?>
<!DOCTYPE svg PUBLIC "-//W3C//DTD SVG 1.1//EN"
 "http://www.w3.org/Graphics/SVG/1.1/DTD/svg11.dtd">
<!-- Generated by graphviz version 2.40.1 (20161225.0304)
 -->
<!-- Title: dependencies Pages: 1 -->
<svg width="2062pt" height="349pt"
 viewBox="0.00 0.00 2062.00 349.00" xmlns="http://www.w3.org/2000/svg" xmlns:xlink="http://www.w3.org/1999/xlink">
<g id="graph0" class="graph" transform="scale(1 1) rotate(0) translate(4 345)">
<title>dependencies</title>
<polygon fill="#ffffff" stroke="transparent" points="-4,4 -4,-345 2058,-345 2058,4 -4,4"/>
<text text-anchor="start" x="1006.0091" y="-42.4" font-family="sans-serif" font-weight="bold" font-size="14.00" fill="#000000">Legend</text>
<polygon fill="#ffffb3" stroke="transparent" points="793,-10 793,-30 813,-30 813,-10 793,-10"/>
<text text-anchor="start" x="816.629" y="-15.4" font-family="sans-serif" font-size="14.00" fill="#000000"> &#160;Declarations</text>
<polygon fill="#8dd3c7" stroke="transparent" points="906,-10 906,-30 926,-30 926,-10 906,-10"/>
<text text-anchor="start" x="929.7251" y="-15.4" font-family="sans-serif" font-size="14.00" fill="#000000"> &#160;Module</text>
<polygon fill="#80b1d3" stroke="transparent" points="992,-10 992,-30 1012,-30 1012,-10 992,-10"/>
<text text-anchor="start" x="1015.7812" y="-15.4" font-family="sans-serif" font-size="14.00" fill="#000000"> &#160;Bootstrap</text>
<polygon fill="#fdb462" stroke="transparent" points="1089,-10 1089,-30 1109,-30 1109,-10 1089,-10"/>
<text text-anchor="start" x="1112.6732" y="-15.4" font-family="sans-serif" font-size="14.00" fill="#000000"> &#160;Providers</text>
<polygon fill="#fb8072" stroke="transparent" points="1185,-10 1185,-30 1205,-30 1205,-10 1185,-10"/>
<text text-anchor="start" x="1208.7258" y="-15.4" font-family="sans-serif" font-size="14.00" fill="#000000"> &#160;Exports</text>
<g id="clust1" class="cluster">
<title>cluster_AppModule</title>
<polygon fill="none" stroke="#000000" stroke-dasharray="1,5" points="8,-70 8,-333 2046,-333 2046,-70 8,-70"/>
</g>
<g id="clust2" class="cluster">
<title>cluster_AppModule_declarations</title>
<polygon fill="none" stroke="#000000" points="888,-143 888,-195 2038,-195 2038,-143 888,-143"/>
</g>
<g id="clust3" class="cluster">
<title>cluster_AppModule_AppComponent_providers</title>
<polygon fill="none" stroke="#000000" points="1876,-78 1876,-130 2038,-130 2038,-78 1876,-78"/>
</g>
<g id="clust11" class="cluster">
<title>cluster_AppModule_imports</title>
<polygon fill="none" stroke="#000000" points="16,-143 16,-195 880,-195 880,-143 16,-143"/>
</g>
<g id="clust13" class="cluster">
<title>cluster_AppModule_bootstrap</title>
<polygon fill="none" stroke="#000000" points="898,-273 898,-325 1022,-325 1022,-273 898,-273"/>
</g>
<!-- AppComponent -->
<g id="node1" class="node">
<title>AppComponent</title>
<polygon fill="#ffffb3" stroke="#000000" points="2029.9399,-187 1924.0601,-187 1924.0601,-151 2029.9399,-151 2029.9399,-187"/>
<text text-anchor="middle" x="1977" y="-164.8" font-family="Times,serif" font-size="14.00" fill="#000000">AppComponent</text>
</g>
<!-- AppModule -->
<g id="node9" class="node">
<title>AppModule</title>
<polygon fill="#8dd3c7" stroke="#000000" points="1001.6571,-252 998.6571,-256 977.6571,-256 974.6571,-252 918.3429,-252 918.3429,-216 1001.6571,-216 1001.6571,-252"/>
<text text-anchor="middle" x="960" y="-229.8" font-family="Times,serif" font-size="14.00" fill="#000000">AppModule</text>
</g>
<!-- AppComponent&#45;&gt;AppModule -->
<g id="edge1" class="edge">
<title>AppComponent&#45;&gt;AppModule</title>
<path fill="none" stroke="#000000" d="M1977,-187.3228C1977,-210.6602 1977,-248 1977,-248 1977,-248 1011.7636,-248 1011.7636,-248"/>
<polygon fill="#000000" stroke="#000000" points="1011.7637,-244.5001 1001.7636,-248 1011.7636,-251.5001 1011.7637,-244.5001"/>
</g>
<!-- ProseComponent -->
<g id="node2" class="node">
<title>ProseComponent</title>
<polygon fill="#ffffb3" stroke="#000000" points="1906.4356,-187 1793.5644,-187 1793.5644,-151 1906.4356,-151 1906.4356,-187"/>
<text text-anchor="middle" x="1850" y="-164.8" font-family="Times,serif" font-size="14.00" fill="#000000">ProseComponent</text>
</g>
<!-- ProseComponent&#45;&gt;AppModule -->
<g id="edge3" class="edge">
<title>ProseComponent&#45;&gt;AppModule</title>
<path fill="none" stroke="#000000" d="M1850,-187.2921C1850,-209.2057 1850,-243 1850,-243 1850,-243 1011.7328,-243 1011.7328,-243"/>
<polygon fill="#000000" stroke="#000000" points="1011.7329,-239.5001 1001.7328,-243 1011.7328,-246.5001 1011.7329,-239.5001"/>
</g>
<!-- ChapterComponent -->
<g id="node3" class="node">
<title>ChapterComponent</title>
<polygon fill="#ffffb3" stroke="#000000" points="1775.6499,-187 1650.3501,-187 1650.3501,-151 1775.6499,-151 1775.6499,-187"/>
<text text-anchor="middle" x="1713" y="-164.8" font-family="Times,serif" font-size="14.00" fill="#000000">ChapterComponent</text>
</g>
<!-- ChapterComponent&#45;&gt;AppModule -->
<g id="edge4" class="edge">
<title>ChapterComponent&#45;&gt;AppModule</title>
<path fill="none" stroke="#000000" d="M1713,-187.0267C1713,-207.7672 1713,-239 1713,-239 1713,-239 1011.8272,-239 1011.8272,-239"/>
<polygon fill="#000000" stroke="#000000" points="1011.8272,-235.5001 1001.8272,-239 1011.8272,-242.5001 1011.8272,-235.5001"/>
</g>
<!-- ChapterIdComponent -->
<g id="node4" class="node">
<title>ChapterIdComponent</title>
<polygon fill="#ffffb3" stroke="#000000" points="1632.8104,-187 1495.1896,-187 1495.1896,-151 1632.8104,-151 1632.8104,-187"/>
<text text-anchor="middle" x="1564" y="-164.8" font-family="Times,serif" font-size="14.00" fill="#000000">ChapterIdComponent</text>
</g>
<!-- ChapterIdComponent&#45;&gt;AppModule -->
<g id="edge5" class="edge">
<title>ChapterIdComponent&#45;&gt;AppModule</title>
<path fill="none" stroke="#000000" d="M1564,-187.1061C1564,-206.3391 1564,-234 1564,-234 1564,-234 1011.9926,-234 1011.9926,-234"/>
<polygon fill="#000000" stroke="#000000" points="1011.9926,-230.5001 1001.9926,-234 1011.9925,-237.5001 1011.9926,-230.5001"/>
</g>
<!-- HomeComponent -->
<g id="node5" class="node">
<title>HomeComponent</title>
<polygon fill="#ffffb3" stroke="#000000" points="1477.5451,-187 1362.4549,-187 1362.4549,-151 1477.5451,-151 1477.5451,-187"/>
<text text-anchor="middle" x="1420" y="-164.8" font-family="Times,serif" font-size="14.00" fill="#000000">HomeComponent</text>
</g>
<!-- HomeComponent&#45;&gt;AppModule -->
<g id="edge6" class="edge">
<title>HomeComponent&#45;&gt;AppModule</title>
<path fill="none" stroke="#000000" d="M1420,-187.302C1420,-205.2699 1420,-230 1420,-230 1420,-230 1012.0414,-230 1012.0414,-230"/>
<polygon fill="#000000" stroke="#000000" points="1012.0414,-226.5001 1002.0414,-230 1012.0413,-233.5001 1012.0414,-226.5001"/>
</g>
<!-- NotFoundComponent -->
<g id="node6" class="node">
<title>NotFoundComponent</title>
<polygon fill="#ffffb3" stroke="#000000" points="1344.1122,-187 1205.8878,-187 1205.8878,-151 1344.1122,-151 1344.1122,-187"/>
<text text-anchor="middle" x="1275" y="-164.8" font-family="Times,serif" font-size="14.00" fill="#000000">NotFoundComponent</text>
</g>
<!-- NotFoundComponent&#45;&gt;AppModule -->
<g id="edge7" class="edge">
<title>NotFoundComponent&#45;&gt;AppModule</title>
<path fill="none" stroke="#000000" d="M1275,-187.027C1275,-203.3976 1275,-225 1275,-225 1275,-225 1011.8296,-225 1011.8296,-225"/>
<polygon fill="#000000" stroke="#000000" points="1011.8296,-221.5001 1001.8296,-225 1011.8295,-228.5001 1011.8296,-221.5001"/>
</g>
<!-- AppHeaderComponent -->
<g id="node7" class="node">
<title>AppHeaderComponent</title>
<polygon fill="#ffffb3" stroke="#000000" points="1187.8501,-187 1042.1499,-187 1042.1499,-151 1187.8501,-151 1187.8501,-187"/>
<text text-anchor="middle" x="1115" y="-164.8" font-family="Times,serif" font-size="14.00" fill="#000000">AppHeaderComponent</text>
</g>
<!-- AppHeaderComponent&#45;&gt;AppModule -->
<g id="edge8" class="edge">
<title>AppHeaderComponent&#45;&gt;AppModule</title>
<path fill="none" stroke="#000000" d="M1115,-187.1871C1115,-202.1824 1115,-221 1115,-221 1115,-221 1011.9452,-221 1011.9452,-221"/>
<polygon fill="#000000" stroke="#000000" points="1011.9453,-217.5001 1001.9452,-221 1011.9452,-224.5001 1011.9453,-217.5001"/>
</g>
<!-- EditNavComponent -->
<g id="node8" class="node">
<title>EditNavComponent</title>
<polygon fill="#ffffb3" stroke="#000000" points="1023.9874,-187 896.0126,-187 896.0126,-151 1023.9874,-151 1023.9874,-187"/>
<text text-anchor="middle" x="960" y="-164.8" font-family="Times,serif" font-size="14.00" fill="#000000">EditNavComponent</text>
</g>
<!-- EditNavComponent&#45;&gt;AppModule -->
<g id="edge9" class="edge">
<title>EditNavComponent&#45;&gt;AppModule</title>
<path fill="none" stroke="#000000" d="M960,-187.1061C960,-187.1061 960,-205.991 960,-205.991"/>
<polygon fill="#000000" stroke="#000000" points="956.5001,-205.9909 960,-215.991 963.5001,-205.991 956.5001,-205.9909"/>
</g>
<!-- AppComponent  -->
<g id="node18" class="node">
<title>AppComponent </title>
<polygon fill="#80b1d3" stroke="#000000" points="1014.439,-317 905.561,-317 905.561,-281 1014.439,-281 1014.439,-317"/>
<text text-anchor="middle" x="960" y="-294.8" font-family="Times,serif" font-size="14.00" fill="#000000">AppComponent </text>
</g>
<!-- AppModule&#45;&gt;AppComponent  -->
<g id="edge17" class="edge">
<title>AppModule&#45;&gt;AppComponent </title>
<path fill="none" stroke="#000000" stroke-dasharray="1,5" d="M960,-252.1061C960,-252.1061 960,-270.991 960,-270.991"/>
<polygon fill="#000000" stroke="#000000" points="956.5001,-270.9909 960,-280.991 963.5001,-270.991 956.5001,-270.9909"/>
</g>
<!-- FirebaseService -->
<g id="node10" class="node">
<title>FirebaseService</title>
<ellipse fill="#fdb462" stroke="#000000" cx="1957" cy="-104" rx="72.9063" ry="18"/>
<text text-anchor="middle" x="1957" y="-99.8" font-family="Times,serif" font-size="14.00" fill="#000000">FirebaseService</text>
</g>
<!-- FirebaseService&#45;&gt;AppComponent -->
<g id="edge2" class="edge">
<title>FirebaseService&#45;&gt;AppComponent</title>
<path fill="none" stroke="#000000" d="M1976.9917,-121.4188C1976.9917,-121.4188 1976.9917,-140.6234 1976.9917,-140.6234"/>
<polygon fill="#000000" stroke="#000000" points="1973.4918,-140.6234 1976.9917,-150.6234 1980.4918,-140.6234 1973.4918,-140.6234"/>
</g>
<!-- AddStoryModule -->
<g id="node11" class="node">
<title>AddStoryModule</title>
<polygon fill="#8dd3c7" stroke="#000000" points="871.9902,-187 868.9902,-191 847.9902,-191 844.9902,-187 758.0098,-187 758.0098,-151 871.9902,-151 871.9902,-187"/>
<text text-anchor="middle" x="815" y="-164.8" font-family="Times,serif" font-size="14.00" fill="#000000">AddStoryModule</text>
</g>
<!-- AddStoryModule&#45;&gt;AppModule -->
<g id="edge10" class="edge">
<title>AddStoryModule&#45;&gt;AppModule</title>
<path fill="none" stroke="#000000" d="M815,-187.1871C815,-202.1824 815,-221 815,-221 815,-221 908.06,-221 908.06,-221"/>
<polygon fill="#000000" stroke="#000000" points="908.06,-224.5001 918.06,-221 908.06,-217.5001 908.06,-224.5001"/>
</g>
<!-- SharedModule -->
<g id="node12" class="node">
<title>SharedModule</title>
<polygon fill="#8dd3c7" stroke="#000000" points="740.4231,-187 737.4231,-191 716.4231,-191 713.4231,-187 641.5769,-187 641.5769,-151 740.4231,-151 740.4231,-187"/>
<text text-anchor="middle" x="691" y="-164.8" font-family="Times,serif" font-size="14.00" fill="#000000">SharedModule</text>
</g>
<!-- SharedModule&#45;&gt;AppModule -->
<g id="edge11" class="edge">
<title>SharedModule&#45;&gt;AppModule</title>
<path fill="none" stroke="#000000" d="M691,-187.027C691,-203.3976 691,-225 691,-225 691,-225 908.2639,-225 908.2639,-225"/>
<polygon fill="#000000" stroke="#000000" points="908.2639,-228.5001 918.2639,-225 908.2639,-221.5001 908.2639,-228.5001"/>
</g>
<!-- LoginModule -->
<g id="node13" class="node">
<title>LoginModule</title>
<polygon fill="#8dd3c7" stroke="#000000" points="623.493,-187 620.493,-191 599.493,-191 596.493,-187 530.507,-187 530.507,-151 623.493,-151 623.493,-187"/>
<text text-anchor="middle" x="577" y="-164.8" font-family="Times,serif" font-size="14.00" fill="#000000">LoginModule</text>
</g>
<!-- LoginModule&#45;&gt;AppModule -->
<g id="edge12" class="edge">
<title>LoginModule&#45;&gt;AppModule</title>
<path fill="none" stroke="#000000" d="M577,-187.302C577,-205.2699 577,-230 577,-230 577,-230 908.2832,-230 908.2832,-230"/>
<polygon fill="#000000" stroke="#000000" points="908.2832,-233.5001 918.2832,-230 908.2832,-226.5001 908.2832,-233.5001"/>
</g>
<!-- RegisterModule -->
<g id="node14" class="node">
<title>RegisterModule</title>
<polygon fill="#8dd3c7" stroke="#000000" points="512.2022,-187 509.2022,-191 488.2022,-191 485.2022,-187 405.7978,-187 405.7978,-151 512.2022,-151 512.2022,-187"/>
<text text-anchor="middle" x="459" y="-164.8" font-family="Times,serif" font-size="14.00" fill="#000000">RegisterModule</text>
</g>
<!-- RegisterModule&#45;&gt;AppModule -->
<g id="edge13" class="edge">
<title>RegisterModule&#45;&gt;AppModule</title>
<path fill="none" stroke="#000000" d="M459,-187.1061C459,-206.3391 459,-234 459,-234 459,-234 908.1467,-234 908.1467,-234"/>
<polygon fill="#000000" stroke="#000000" points="908.1468,-237.5001 918.1467,-234 908.1467,-230.5001 908.1468,-237.5001"/>
</g>
<!-- SerialModule -->
<g id="node15" class="node">
<title>SerialModule</title>
<polygon fill="#8dd3c7" stroke="#000000" points="388.2036,-187 385.2036,-191 364.2036,-191 361.2036,-187 295.7964,-187 295.7964,-151 388.2036,-151 388.2036,-187"/>
<text text-anchor="middle" x="342" y="-164.8" font-family="Times,serif" font-size="14.00" fill="#000000">SerialModule</text>
</g>
<!-- SerialModule&#45;&gt;AppModule -->
<g id="edge14" class="edge">
<title>SerialModule&#45;&gt;AppModule</title>
<path fill="none" stroke="#000000" d="M342,-187.0267C342,-207.7672 342,-239 342,-239 342,-239 908.0082,-239 908.0082,-239"/>
<polygon fill="#000000" stroke="#000000" points="908.0082,-242.5001 918.0082,-239 908.0082,-235.5001 908.0082,-242.5001"/>
</g>
<!-- ContentModule -->
<g id="node16" class="node">
<title>ContentModule</title>
<polygon fill="#8dd3c7" stroke="#000000" points="277.8823,-187 274.8823,-191 253.8823,-191 250.8823,-187 174.1177,-187 174.1177,-151 277.8823,-151 277.8823,-187"/>
<text text-anchor="middle" x="226" y="-164.8" font-family="Times,serif" font-size="14.00" fill="#000000">ContentModule</text>
</g>
<!-- ContentModule&#45;&gt;AppModule -->
<g id="edge15" class="edge">
<title>ContentModule&#45;&gt;AppModule</title>
<path fill="none" stroke="#000000" d="M226,-187.2921C226,-209.2057 226,-243 226,-243 226,-243 908.1677,-243 908.1677,-243"/>
<polygon fill="#000000" stroke="#000000" points="908.1677,-246.5001 918.1677,-243 908.1676,-239.5001 908.1677,-246.5001"/>
</g>
<!-- SharedLoginModule -->
<g id="node17" class="node">
<title>SharedLoginModule</title>
<polygon fill="#8dd3c7" stroke="#000000" points="155.8655,-187 152.8655,-191 131.8655,-191 128.8655,-187 24.1345,-187 24.1345,-151 155.8655,-151 155.8655,-187"/>
<text text-anchor="middle" x="90" y="-164.8" font-family="Times,serif" font-size="14.00" fill="#000000">SharedLoginModule</text>
</g>
<!-- SharedLoginModule&#45;&gt;AppModule -->
<g id="edge16" class="edge">
<title>SharedLoginModule&#45;&gt;AppModule</title>
<path fill="none" stroke="#000000" d="M90,-187.3228C90,-210.6602 90,-248 90,-248 90,-248 908.3312,-248 908.3312,-248"/>
<polygon fill="#000000" stroke="#000000" points="908.3312,-251.5001 918.3312,-248 908.3312,-244.5001 908.3312,-251.5001"/>
</g>
</g>
</svg>
