<?xml version="1.0" encoding="UTF-8" standalone="no"?>
<!DOCTYPE svg PUBLIC "-//W3C//DTD SVG 1.1//EN"
 "http://www.w3.org/Graphics/SVG/1.1/DTD/svg11.dtd">
<!-- Generated by graphviz version 2.40.1 (20161225.0304)
 -->
<!-- Title: dependencies Pages: 1 -->
<svg width="1948pt" height="284pt"
 viewBox="0.00 0.00 1948.00 284.00" xmlns="http://www.w3.org/2000/svg" xmlns:xlink="http://www.w3.org/1999/xlink">
<g id="graph0" class="graph" transform="scale(1 1) rotate(0) translate(4 280)">
<title>dependencies</title>
<polygon fill="#ffffff" stroke="transparent" points="-4,4 -4,-280 1944,-280 1944,4 -4,4"/>
<text text-anchor="start" x="949.0091" y="-42.4" font-family="sans-serif" font-weight="bold" font-size="14.00" fill="#000000">Legend</text>
<polygon fill="#ffffb3" stroke="transparent" points="736,-10 736,-30 756,-30 756,-10 736,-10"/>
<text text-anchor="start" x="759.629" y="-15.4" font-family="sans-serif" font-size="14.00" fill="#000000"> &#160;Declarations</text>
<polygon fill="#8dd3c7" stroke="transparent" points="849,-10 849,-30 869,-30 869,-10 849,-10"/>
<text text-anchor="start" x="872.7251" y="-15.4" font-family="sans-serif" font-size="14.00" fill="#000000"> &#160;Module</text>
<polygon fill="#80b1d3" stroke="transparent" points="935,-10 935,-30 955,-30 955,-10 935,-10"/>
<text text-anchor="start" x="958.7812" y="-15.4" font-family="sans-serif" font-size="14.00" fill="#000000"> &#160;Bootstrap</text>
<polygon fill="#fdb462" stroke="transparent" points="1032,-10 1032,-30 1052,-30 1052,-10 1032,-10"/>
<text text-anchor="start" x="1055.6732" y="-15.4" font-family="sans-serif" font-size="14.00" fill="#000000"> &#160;Providers</text>
<polygon fill="#fb8072" stroke="transparent" points="1128,-10 1128,-30 1148,-30 1148,-10 1128,-10"/>
<text text-anchor="start" x="1151.7258" y="-15.4" font-family="sans-serif" font-size="14.00" fill="#000000"> &#160;Exports</text>
<g id="clust1" class="cluster">
<title>cluster_AppModule</title>
<polygon fill="none" stroke="#000000" stroke-dasharray="1,5" points="8,-70 8,-268 1932,-268 1932,-70 8,-70"/>
</g>
<g id="clust2" class="cluster">
<title>cluster_AppModule_declarations</title>
<polygon fill="none" stroke="#000000" points="920,-78 920,-130 1924,-130 1924,-78 920,-78"/>
</g>
<g id="clust10" class="cluster">
<title>cluster_AppModule_imports</title>
<polygon fill="none" stroke="#000000" points="158,-78 158,-130 912,-130 912,-78 158,-78"/>
</g>
<g id="clust12" class="cluster">
<title>cluster_AppModule_bootstrap</title>
<polygon fill="none" stroke="#000000" points="862,-208 862,-260 986,-260 986,-208 862,-208"/>
</g>
<g id="clust13" class="cluster">
<title>cluster_AppModule_providers</title>
<polygon fill="none" stroke="#000000" points="16,-78 16,-130 150,-130 150,-78 16,-78"/>
</g>
<!-- AppComponent -->
<g id="node1" class="node">
<title>AppComponent</title>
<polygon fill="#ffffb3" stroke="#000000" points="1915.9399,-122 1810.0601,-122 1810.0601,-86 1915.9399,-86 1915.9399,-122"/>
<text text-anchor="middle" x="1863" y="-99.8" font-family="Times,serif" font-size="14.00" fill="#000000">AppComponent</text>
</g>
<!-- AppModule -->
<g id="node8" class="node">
<title>AppModule</title>
<polygon fill="#8dd3c7" stroke="#000000" points="965.6571,-187 962.6571,-191 941.6571,-191 938.6571,-187 882.3429,-187 882.3429,-151 965.6571,-151 965.6571,-187"/>
<text text-anchor="middle" x="924" y="-164.8" font-family="Times,serif" font-size="14.00" fill="#000000">AppModule</text>
</g>
<!-- AppComponent&#45;&gt;AppModule -->
<g id="edge1" class="edge">
<title>AppComponent&#45;&gt;AppModule</title>
<path fill="none" stroke="#000000" d="M1863,-122.0908C1863,-145.1328 1863,-182 1863,-182 1863,-182 975.8647,-182 975.8647,-182"/>
<polygon fill="#000000" stroke="#000000" points="975.8647,-178.5001 965.8647,-182 975.8646,-185.5001 975.8647,-178.5001"/>
</g>
<!-- ProseComponent -->
<g id="node2" class="node">
<title>ProseComponent</title>
<polygon fill="#ffffb3" stroke="#000000" points="1792.4356,-122 1679.5644,-122 1679.5644,-86 1792.4356,-86 1792.4356,-122"/>
<text text-anchor="middle" x="1736" y="-99.8" font-family="Times,serif" font-size="14.00" fill="#000000">ProseComponent</text>
</g>
<!-- ProseComponent&#45;&gt;AppModule -->
<g id="edge2" class="edge">
<title>ProseComponent&#45;&gt;AppModule</title>
<path fill="none" stroke="#000000" d="M1736,-122.0449C1736,-143.6623 1736,-177 1736,-177 1736,-177 975.6647,-177 975.6647,-177"/>
<polygon fill="#000000" stroke="#000000" points="975.6648,-173.5001 965.6647,-177 975.6647,-180.5001 975.6648,-173.5001"/>
</g>
<!-- ChapterComponent -->
<g id="node3" class="node">
<title>ChapterComponent</title>
<polygon fill="#ffffb3" stroke="#000000" points="1661.6499,-122 1536.3501,-122 1536.3501,-86 1661.6499,-86 1661.6499,-122"/>
<text text-anchor="middle" x="1599" y="-99.8" font-family="Times,serif" font-size="14.00" fill="#000000">ChapterComponent</text>
</g>
<!-- ChapterComponent&#45;&gt;AppModule -->
<g id="edge3" class="edge">
<title>ChapterComponent&#45;&gt;AppModule</title>
<path fill="none" stroke="#000000" d="M1599,-122.2228C1599,-142.3652 1599,-172 1599,-172 1599,-172 975.7149,-172 975.7149,-172"/>
<polygon fill="#000000" stroke="#000000" points="975.7149,-168.5001 965.7149,-172 975.7148,-175.5001 975.7149,-168.5001"/>
</g>
<!-- ChapterIdComponent -->
<g id="node4" class="node">
<title>ChapterIdComponent</title>
<polygon fill="#ffffb3" stroke="#000000" points="1518.8104,-122 1381.1896,-122 1381.1896,-86 1518.8104,-86 1518.8104,-122"/>
<text text-anchor="middle" x="1450" y="-99.8" font-family="Times,serif" font-size="14.00" fill="#000000">ChapterIdComponent</text>
</g>
<!-- ChapterIdComponent&#45;&gt;AppModule -->
<g id="edge4" class="edge">
<title>ChapterIdComponent&#45;&gt;AppModule</title>
<path fill="none" stroke="#000000" d="M1450,-122.2222C1450,-140.8285 1450,-167 1450,-167 1450,-167 975.714,-167 975.714,-167"/>
<polygon fill="#000000" stroke="#000000" points="975.714,-163.5001 965.714,-167 975.714,-170.5001 975.714,-163.5001"/>
</g>
<!-- HomeComponent -->
<g id="node5" class="node">
<title>HomeComponent</title>
<polygon fill="#ffffb3" stroke="#000000" points="1363.5451,-122 1248.4549,-122 1248.4549,-86 1363.5451,-86 1363.5451,-122"/>
<text text-anchor="middle" x="1306" y="-99.8" font-family="Times,serif" font-size="14.00" fill="#000000">HomeComponent</text>
</g>
<!-- HomeComponent&#45;&gt;AppModule -->
<g id="edge5" class="edge">
<title>HomeComponent&#45;&gt;AppModule</title>
<path fill="none" stroke="#000000" d="M1306,-122.0336C1306,-139.0597 1306,-162 1306,-162 1306,-162 975.9734,-162 975.9734,-162"/>
<polygon fill="#000000" stroke="#000000" points="975.9734,-158.5001 965.9734,-162 975.9734,-165.5001 975.9734,-158.5001"/>
</g>
<!-- NotFoundComponent -->
<g id="node6" class="node">
<title>NotFoundComponent</title>
<polygon fill="#ffffb3" stroke="#000000" points="1230.1122,-122 1091.8878,-122 1091.8878,-86 1230.1122,-86 1230.1122,-122"/>
<text text-anchor="middle" x="1161" y="-99.8" font-family="Times,serif" font-size="14.00" fill="#000000">NotFoundComponent</text>
</g>
<!-- NotFoundComponent&#45;&gt;AppModule -->
<g id="edge6" class="edge">
<title>NotFoundComponent&#45;&gt;AppModule</title>
<path fill="none" stroke="#000000" d="M1161,-122.2396C1161,-137.5706 1161,-157 1161,-157 1161,-157 975.8253,-157 975.8253,-157"/>
<polygon fill="#000000" stroke="#000000" points="975.8253,-153.5001 965.8253,-157 975.8253,-160.5001 975.8253,-153.5001"/>
</g>
<!-- AppHeaderComponent -->
<g id="node7" class="node">
<title>AppHeaderComponent</title>
<polygon fill="#ffffb3" stroke="#000000" points="1073.8501,-122 928.1499,-122 928.1499,-86 1073.8501,-86 1073.8501,-122"/>
<text text-anchor="middle" x="1001" y="-99.8" font-family="Times,serif" font-size="14.00" fill="#000000">AppHeaderComponent</text>
</g>
<!-- AppHeaderComponent&#45;&gt;AppModule -->
<g id="edge7" class="edge">
<title>AppHeaderComponent&#45;&gt;AppModule</title>
<path fill="none" stroke="#000000" d="M946.9516,-122.1061C946.9516,-122.1061 946.9516,-140.991 946.9516,-140.991"/>
<polygon fill="#000000" stroke="#000000" points="943.4517,-140.9909 946.9516,-150.991 950.4517,-140.991 943.4517,-140.9909"/>
</g>
<!-- AppComponent  -->
<g id="node15" class="node">
<title>AppComponent </title>
<polygon fill="#80b1d3" stroke="#000000" points="978.439,-252 869.561,-252 869.561,-216 978.439,-216 978.439,-252"/>
<text text-anchor="middle" x="924" y="-229.8" font-family="Times,serif" font-size="14.00" fill="#000000">AppComponent </text>
</g>
<!-- AppModule&#45;&gt;AppComponent  -->
<g id="edge14" class="edge">
<title>AppModule&#45;&gt;AppComponent </title>
<path fill="none" stroke="#000000" stroke-dasharray="1,5" d="M924,-187.1061C924,-187.1061 924,-205.991 924,-205.991"/>
<polygon fill="#000000" stroke="#000000" points="920.5001,-205.9909 924,-215.991 927.5001,-205.991 920.5001,-205.9909"/>
</g>
<!-- AddStoryModule -->
<g id="node9" class="node">
<title>AddStoryModule</title>
<polygon fill="#8dd3c7" stroke="#000000" points="903.9902,-122 900.9902,-126 879.9902,-126 876.9902,-122 790.0098,-122 790.0098,-86 903.9902,-86 903.9902,-122"/>
<text text-anchor="middle" x="847" y="-99.8" font-family="Times,serif" font-size="14.00" fill="#000000">AddStoryModule</text>
</g>
<!-- AddStoryModule&#45;&gt;AppModule -->
<g id="edge8" class="edge">
<title>AddStoryModule&#45;&gt;AppModule</title>
<path fill="none" stroke="#000000" d="M893.0835,-122.1061C893.0835,-122.1061 893.0835,-140.991 893.0835,-140.991"/>
<polygon fill="#000000" stroke="#000000" points="889.5835,-140.9909 893.0835,-150.991 896.5835,-140.991 889.5835,-140.9909"/>
</g>
<!-- SharedModule -->
<g id="node10" class="node">
<title>SharedModule</title>
<polygon fill="#8dd3c7" stroke="#000000" points="772.4231,-122 769.4231,-126 748.4231,-126 745.4231,-122 673.5769,-122 673.5769,-86 772.4231,-86 772.4231,-122"/>
<text text-anchor="middle" x="723" y="-99.8" font-family="Times,serif" font-size="14.00" fill="#000000">SharedModule</text>
</g>
<!-- SharedModule&#45;&gt;AppModule -->
<g id="edge9" class="edge">
<title>SharedModule&#45;&gt;AppModule</title>
<path fill="none" stroke="#000000" d="M723,-122.2396C723,-137.5706 723,-157 723,-157 723,-157 871.8638,-157 871.8638,-157"/>
<polygon fill="#000000" stroke="#000000" points="871.8638,-160.5001 881.8638,-157 871.8638,-153.5001 871.8638,-160.5001"/>
</g>
<!-- LoginModule -->
<g id="node11" class="node">
<title>LoginModule</title>
<polygon fill="#8dd3c7" stroke="#000000" points="655.493,-122 652.493,-126 631.493,-126 628.493,-122 562.507,-122 562.507,-86 655.493,-86 655.493,-122"/>
<text text-anchor="middle" x="609" y="-99.8" font-family="Times,serif" font-size="14.00" fill="#000000">LoginModule</text>
</g>
<!-- LoginModule&#45;&gt;AppModule -->
<g id="edge10" class="edge">
<title>LoginModule&#45;&gt;AppModule</title>
<path fill="none" stroke="#000000" d="M609,-122.0336C609,-139.0597 609,-162 609,-162 609,-162 872.1704,-162 872.1704,-162"/>
<polygon fill="#000000" stroke="#000000" points="872.1705,-165.5001 882.1704,-162 872.1704,-158.5001 872.1705,-165.5001"/>
</g>
<!-- RegisterModule -->
<g id="node12" class="node">
<title>RegisterModule</title>
<polygon fill="#8dd3c7" stroke="#000000" points="544.2022,-122 541.2022,-126 520.2022,-126 517.2022,-122 437.7978,-122 437.7978,-86 544.2022,-86 544.2022,-122"/>
<text text-anchor="middle" x="491" y="-99.8" font-family="Times,serif" font-size="14.00" fill="#000000">RegisterModule</text>
</g>
<!-- RegisterModule&#45;&gt;AppModule -->
<g id="edge11" class="edge">
<title>RegisterModule&#45;&gt;AppModule</title>
<path fill="none" stroke="#000000" d="M491,-122.2222C491,-140.8285 491,-167 491,-167 491,-167 872.0887,-167 872.0887,-167"/>
<polygon fill="#000000" stroke="#000000" points="872.0887,-170.5001 882.0887,-167 872.0887,-163.5001 872.0887,-170.5001"/>
</g>
<!-- ContentModule -->
<g id="node13" class="node">
<title>ContentModule</title>
<polygon fill="#8dd3c7" stroke="#000000" points="419.8823,-122 416.8823,-126 395.8823,-126 392.8823,-122 316.1177,-122 316.1177,-86 419.8823,-86 419.8823,-122"/>
<text text-anchor="middle" x="368" y="-99.8" font-family="Times,serif" font-size="14.00" fill="#000000">ContentModule</text>
</g>
<!-- ContentModule&#45;&gt;AppModule -->
<g id="edge12" class="edge">
<title>ContentModule&#45;&gt;AppModule</title>
<path fill="none" stroke="#000000" d="M368,-122.2228C368,-142.3652 368,-172 368,-172 368,-172 872.2096,-172 872.2096,-172"/>
<polygon fill="#000000" stroke="#000000" points="872.2097,-175.5001 882.2096,-172 872.2096,-168.5001 872.2097,-175.5001"/>
</g>
<!-- SharedLoginModule -->
<g id="node14" class="node">
<title>SharedLoginModule</title>
<polygon fill="#8dd3c7" stroke="#000000" points="297.8655,-122 294.8655,-126 273.8655,-126 270.8655,-122 166.1345,-122 166.1345,-86 297.8655,-86 297.8655,-122"/>
<text text-anchor="middle" x="232" y="-99.8" font-family="Times,serif" font-size="14.00" fill="#000000">SharedLoginModule</text>
</g>
<!-- SharedLoginModule&#45;&gt;AppModule -->
<g id="edge13" class="edge">
<title>SharedLoginModule&#45;&gt;AppModule</title>
<path fill="none" stroke="#000000" d="M232,-122.0449C232,-143.6623 232,-177 232,-177 232,-177 872.2707,-177 872.2707,-177"/>
<polygon fill="#000000" stroke="#000000" points="872.2707,-180.5001 882.2707,-177 872.2706,-173.5001 872.2707,-180.5001"/>
</g>
<!-- AuthService -->
<g id="node16" class="node">
<title>AuthService</title>
<ellipse fill="#fdb462" stroke="#000000" cx="83" cy="-104" rx="59.1083" ry="18"/>
<text text-anchor="middle" x="83" y="-99.8" font-family="Times,serif" font-size="14.00" fill="#000000">AuthService</text>
</g>
<!-- AuthService&#45;&gt;AppModule -->
<g id="edge15" class="edge">
<title>AuthService&#45;&gt;AppModule</title>
<path fill="none" stroke="#000000" d="M83,-122.0908C83,-145.1328 83,-182 83,-182 83,-182 872.2947,-182 872.2947,-182"/>
<polygon fill="#000000" stroke="#000000" points="872.2947,-185.5001 882.2947,-182 872.2946,-178.5001 872.2947,-185.5001"/>
</g>
</g>
</svg>
