<?xml version="1.0" encoding="UTF-8" standalone="no"?>
<!DOCTYPE svg PUBLIC "-//W3C//DTD SVG 1.1//EN"
 "http://www.w3.org/Graphics/SVG/1.1/DTD/svg11.dtd">
<!-- Generated by graphviz version 2.40.1 (20161225.0304)
 -->
<!-- Title: dependencies Pages: 1 -->
<svg width="504pt" height="211pt"
 viewBox="0.00 0.00 504.00 211.00" xmlns="http://www.w3.org/2000/svg" xmlns:xlink="http://www.w3.org/1999/xlink">
<g id="graph0" class="graph" transform="scale(1 1) rotate(0) translate(4 207)">
<title>dependencies</title>
<polygon fill="#ffffff" stroke="transparent" points="-4,4 -4,-207 500,-207 500,4 -4,4"/>
<text text-anchor="start" x="227.0091" y="-42.4" font-family="sans-serif" font-weight="bold" font-size="14.00" fill="#000000">Legend</text>
<polygon fill="#ffffb3" stroke="transparent" points="14,-10 14,-30 34,-30 34,-10 14,-10"/>
<text text-anchor="start" x="37.629" y="-15.4" font-family="sans-serif" font-size="14.00" fill="#000000"> &#160;Declarations</text>
<polygon fill="#8dd3c7" stroke="transparent" points="127,-10 127,-30 147,-30 147,-10 127,-10"/>
<text text-anchor="start" x="150.7251" y="-15.4" font-family="sans-serif" font-size="14.00" fill="#000000"> &#160;Module</text>
<polygon fill="#80b1d3" stroke="transparent" points="213,-10 213,-30 233,-30 233,-10 213,-10"/>
<text text-anchor="start" x="236.7812" y="-15.4" font-family="sans-serif" font-size="14.00" fill="#000000"> &#160;Bootstrap</text>
<polygon fill="#fdb462" stroke="transparent" points="310,-10 310,-30 330,-30 330,-10 310,-10"/>
<text text-anchor="start" x="333.6732" y="-15.4" font-family="sans-serif" font-size="14.00" fill="#000000"> &#160;Providers</text>
<polygon fill="#fb8072" stroke="transparent" points="406,-10 406,-30 426,-30 426,-10 406,-10"/>
<text text-anchor="start" x="429.7258" y="-15.4" font-family="sans-serif" font-size="14.00" fill="#000000"> &#160;Exports</text>
<g id="clust1" class="cluster">
<title>cluster_PlaysModule</title>
<polygon fill="none" stroke="#000000" stroke-dasharray="1,5" points="115,-70 115,-195 381,-195 381,-70 115,-70"/>
</g>
<g id="clust2" class="cluster">
<title>cluster_PlaysModule_declarations</title>
<polygon fill="none" stroke="#000000" points="245,-78 245,-130 373,-130 373,-78 245,-78"/>
</g>
<g id="clust4" class="cluster">
<title>cluster_PlaysModule_imports</title>
<polygon fill="none" stroke="#000000" points="123,-78 123,-130 237,-130 237,-78 123,-78"/>
</g>
<!-- PlaysComponent -->
<g id="node1" class="node">
<title>PlaysComponent</title>
<polygon fill="#ffffb3" stroke="#000000" points="364.6653,-122 253.3347,-122 253.3347,-86 364.6653,-86 364.6653,-122"/>
<text text-anchor="middle" x="309" y="-99.8" font-family="Times,serif" font-size="14.00" fill="#000000">PlaysComponent</text>
</g>
<!-- PlaysModule -->
<g id="node2" class="node">
<title>PlaysModule</title>
<polygon fill="#8dd3c7" stroke="#000000" points="288.8823,-187 285.8823,-191 264.8823,-191 261.8823,-187 199.1177,-187 199.1177,-151 288.8823,-151 288.8823,-187"/>
<text text-anchor="middle" x="244" y="-164.8" font-family="Times,serif" font-size="14.00" fill="#000000">PlaysModule</text>
</g>
<!-- PlaysComponent&#45;&gt;PlaysModule -->
<g id="edge1" class="edge">
<title>PlaysComponent&#45;&gt;PlaysModule</title>
<path fill="none" stroke="#000000" d="M271.0544,-122.1061C271.0544,-122.1061 271.0544,-140.991 271.0544,-140.991"/>
<polygon fill="#000000" stroke="#000000" points="267.5544,-140.9909 271.0544,-150.991 274.5544,-140.991 267.5544,-140.9909"/>
</g>
<!-- SharedModule -->
<g id="node3" class="node">
<title>SharedModule</title>
<polygon fill="#8dd3c7" stroke="#000000" points="229.4231,-122 226.4231,-126 205.4231,-126 202.4231,-122 130.5769,-122 130.5769,-86 229.4231,-86 229.4231,-122"/>
<text text-anchor="middle" x="180" y="-99.8" font-family="Times,serif" font-size="14.00" fill="#000000">SharedModule</text>
</g>
<!-- SharedModule&#45;&gt;PlaysModule -->
<g id="edge2" class="edge">
<title>SharedModule&#45;&gt;PlaysModule</title>
<path fill="none" stroke="#000000" d="M214.135,-122.1061C214.135,-122.1061 214.135,-140.991 214.135,-140.991"/>
<polygon fill="#000000" stroke="#000000" points="210.6351,-140.9909 214.135,-150.991 217.6351,-140.991 210.6351,-140.9909"/>
</g>
</g>
</svg>
