<?xml version="1.0" encoding="UTF-8" standalone="no"?>
<!DOCTYPE svg PUBLIC "-//W3C//DTD SVG 1.1//EN"
 "http://www.w3.org/Graphics/SVG/1.1/DTD/svg11.dtd">
<!-- Generated by graphviz version 2.40.1 (20161225.0304)
 -->
<!-- Title: dependencies Pages: 1 -->
<svg width="853pt" height="211pt"
 viewBox="0.00 0.00 853.00 211.00" xmlns="http://www.w3.org/2000/svg" xmlns:xlink="http://www.w3.org/1999/xlink">
<g id="graph0" class="graph" transform="scale(1 1) rotate(0) translate(4 207)">
<title>dependencies</title>
<polygon fill="#ffffff" stroke="transparent" points="-4,4 -4,-207 849,-207 849,4 -4,4"/>
<text text-anchor="start" x="401.5091" y="-42.4" font-family="sans-serif" font-weight="bold" font-size="14.00" fill="#000000">Legend</text>
<polygon fill="#ffffb3" stroke="transparent" points="188.5,-10 188.5,-30 208.5,-30 208.5,-10 188.5,-10"/>
<text text-anchor="start" x="212.129" y="-15.4" font-family="sans-serif" font-size="14.00" fill="#000000"> &#160;Declarations</text>
<polygon fill="#8dd3c7" stroke="transparent" points="301.5,-10 301.5,-30 321.5,-30 321.5,-10 301.5,-10"/>
<text text-anchor="start" x="325.2251" y="-15.4" font-family="sans-serif" font-size="14.00" fill="#000000"> &#160;Module</text>
<polygon fill="#80b1d3" stroke="transparent" points="387.5,-10 387.5,-30 407.5,-30 407.5,-10 387.5,-10"/>
<text text-anchor="start" x="411.2812" y="-15.4" font-family="sans-serif" font-size="14.00" fill="#000000"> &#160;Bootstrap</text>
<polygon fill="#fdb462" stroke="transparent" points="484.5,-10 484.5,-30 504.5,-30 504.5,-10 484.5,-10"/>
<text text-anchor="start" x="508.1732" y="-15.4" font-family="sans-serif" font-size="14.00" fill="#000000"> &#160;Providers</text>
<polygon fill="#fb8072" stroke="transparent" points="580.5,-10 580.5,-30 600.5,-30 600.5,-10 580.5,-10"/>
<text text-anchor="start" x="604.2258" y="-15.4" font-family="sans-serif" font-size="14.00" fill="#000000"> &#160;Exports</text>
<g id="clust1" class="cluster">
<title>cluster_ContentModule</title>
<polygon fill="none" stroke="#000000" stroke-dasharray="1,5" points="8,-70 8,-195 837,-195 837,-70 8,-70"/>
</g>
<g id="clust3" class="cluster">
<title>cluster_ContentModule_imports</title>
<polygon fill="none" stroke="#000000" points="16,-78 16,-130 829,-130 829,-78 16,-78"/>
</g>
<!-- SharedModule -->
<g id="node1" class="node">
<title>SharedModule</title>
<polygon fill="#8dd3c7" stroke="#000000" points="821.4231,-122 818.4231,-126 797.4231,-126 794.4231,-122 722.5769,-122 722.5769,-86 821.4231,-86 821.4231,-122"/>
<text text-anchor="middle" x="772" y="-99.8" font-family="Times,serif" font-size="14.00" fill="#000000">SharedModule</text>
</g>
<!-- ContentModule -->
<g id="node8" class="node">
<title>ContentModule</title>
<polygon fill="#8dd3c7" stroke="#000000" points="498.8823,-187 495.8823,-191 474.8823,-191 471.8823,-187 395.1177,-187 395.1177,-151 498.8823,-151 498.8823,-187"/>
<text text-anchor="middle" x="447" y="-164.8" font-family="Times,serif" font-size="14.00" fill="#000000">ContentModule</text>
</g>
<!-- SharedModule&#45;&gt;ContentModule -->
<g id="edge1" class="edge">
<title>SharedModule&#45;&gt;ContentModule</title>
<path fill="none" stroke="#000000" d="M772,-122.2921C772,-144.2057 772,-178 772,-178 772,-178 509.2169,-178 509.2169,-178"/>
<polygon fill="#000000" stroke="#000000" points="509.2169,-174.5001 499.2169,-178 509.2168,-181.5001 509.2169,-174.5001"/>
</g>
<!-- BlogModule -->
<g id="node2" class="node">
<title>BlogModule</title>
<polygon fill="#8dd3c7" stroke="#000000" points="704.2773,-122 701.2773,-126 680.2773,-126 677.2773,-122 617.7227,-122 617.7227,-86 704.2773,-86 704.2773,-122"/>
<text text-anchor="middle" x="661" y="-99.8" font-family="Times,serif" font-size="14.00" fill="#000000">BlogModule</text>
</g>
<!-- BlogModule&#45;&gt;ContentModule -->
<g id="edge2" class="edge">
<title>BlogModule&#45;&gt;ContentModule</title>
<path fill="none" stroke="#000000" d="M661,-122.1061C661,-141.3391 661,-169 661,-169 661,-169 509.0766,-169 509.0766,-169"/>
<polygon fill="#000000" stroke="#000000" points="509.0767,-165.5001 499.0766,-169 509.0766,-172.5001 509.0767,-165.5001"/>
</g>
<!-- PlaysModule -->
<g id="node3" class="node">
<title>PlaysModule</title>
<polygon fill="#8dd3c7" stroke="#000000" points="599.8823,-122 596.8823,-126 575.8823,-126 572.8823,-122 510.1177,-122 510.1177,-86 599.8823,-86 599.8823,-122"/>
<text text-anchor="middle" x="555" y="-99.8" font-family="Times,serif" font-size="14.00" fill="#000000">PlaysModule</text>
</g>
<!-- PlaysModule&#45;&gt;ContentModule -->
<g id="edge3" class="edge">
<title>PlaysModule&#45;&gt;ContentModule</title>
<path fill="none" stroke="#000000" d="M555,-122.027C555,-138.3976 555,-160 555,-160 555,-160 509.1019,-160 509.1019,-160"/>
<polygon fill="#000000" stroke="#000000" points="509.1019,-156.5001 499.1019,-160 509.1019,-163.5001 509.1019,-156.5001"/>
</g>
<!-- ProseModule -->
<g id="node4" class="node">
<title>ProseModule</title>
<polygon fill="#8dd3c7" stroke="#000000" points="492.1529,-122 489.1529,-126 468.1529,-126 465.1529,-122 401.8471,-122 401.8471,-86 492.1529,-86 492.1529,-122"/>
<text text-anchor="middle" x="447" y="-99.8" font-family="Times,serif" font-size="14.00" fill="#000000">ProseModule</text>
</g>
<!-- ProseModule&#45;&gt;ContentModule -->
<g id="edge4" class="edge">
<title>ProseModule&#45;&gt;ContentModule</title>
<path fill="none" stroke="#000000" d="M447,-122.1061C447,-122.1061 447,-140.991 447,-140.991"/>
<polygon fill="#000000" stroke="#000000" points="443.5001,-140.9909 447,-150.991 450.5001,-140.991 443.5001,-140.9909"/>
</g>
<!-- SerialModule -->
<g id="node5" class="node">
<title>SerialModule</title>
<polygon fill="#8dd3c7" stroke="#000000" points="384.2036,-122 381.2036,-126 360.2036,-126 357.2036,-122 291.7964,-122 291.7964,-86 384.2036,-86 384.2036,-122"/>
<text text-anchor="middle" x="338" y="-99.8" font-family="Times,serif" font-size="14.00" fill="#000000">SerialModule</text>
</g>
<!-- SerialModule&#45;&gt;ContentModule -->
<g id="edge5" class="edge">
<title>SerialModule&#45;&gt;ContentModule</title>
<path fill="none" stroke="#000000" d="M338,-122.027C338,-138.3976 338,-160 338,-160 338,-160 385.0539,-160 385.0539,-160"/>
<polygon fill="#000000" stroke="#000000" points="385.0539,-163.5001 395.0539,-160 385.0538,-156.5001 385.0539,-163.5001"/>
</g>
<!-- EpisodeModule -->
<g id="node6" class="node">
<title>EpisodeModule</title>
<polygon fill="#8dd3c7" stroke="#000000" points="274.1528,-122 271.1528,-126 250.1528,-126 247.1528,-122 169.8472,-122 169.8472,-86 274.1528,-86 274.1528,-122"/>
<text text-anchor="middle" x="222" y="-99.8" font-family="Times,serif" font-size="14.00" fill="#000000">EpisodeModule</text>
</g>
<!-- EpisodeModule&#45;&gt;ContentModule -->
<g id="edge6" class="edge">
<title>EpisodeModule&#45;&gt;ContentModule</title>
<path fill="none" stroke="#000000" d="M222,-122.1061C222,-141.3391 222,-169 222,-169 222,-169 385.0979,-169 385.0979,-169"/>
<polygon fill="#000000" stroke="#000000" points="385.098,-172.5001 395.0979,-169 385.0979,-165.5001 385.098,-172.5001"/>
</g>
<!-- ScreenplaysModule -->
<g id="node7" class="node">
<title>ScreenplaysModule</title>
<polygon fill="#8dd3c7" stroke="#000000" points="151.6867,-122 148.6867,-126 127.6867,-126 124.6867,-122 24.3133,-122 24.3133,-86 151.6867,-86 151.6867,-122"/>
<text text-anchor="middle" x="88" y="-99.8" font-family="Times,serif" font-size="14.00" fill="#000000">ScreenplaysModule</text>
</g>
<!-- ScreenplaysModule&#45;&gt;ContentModule -->
<g id="edge7" class="edge">
<title>ScreenplaysModule&#45;&gt;ContentModule</title>
<path fill="none" stroke="#000000" d="M88,-122.2921C88,-144.2057 88,-178 88,-178 88,-178 384.7983,-178 384.7983,-178"/>
<polygon fill="#000000" stroke="#000000" points="384.7984,-181.5001 394.7983,-178 384.7983,-174.5001 384.7984,-181.5001"/>
</g>
</g>
</svg>
