<?xml version="1.0" encoding="UTF-8" standalone="no"?>
<!DOCTYPE svg PUBLIC "-//W3C//DTD SVG 1.1//EN"
 "http://www.w3.org/Graphics/SVG/1.1/DTD/svg11.dtd">
<!-- Generated by graphviz version 2.40.1 (20161225.0304)
 -->
<!-- Title: dependencies Pages: 1 -->
<svg width="731pt" height="211pt"
 viewBox="0.00 0.00 731.00 211.00" xmlns="http://www.w3.org/2000/svg" xmlns:xlink="http://www.w3.org/1999/xlink">
<g id="graph0" class="graph" transform="scale(1 1) rotate(0) translate(4 207)">
<title>dependencies</title>
<polygon fill="#ffffff" stroke="transparent" points="-4,4 -4,-207 727,-207 727,4 -4,4"/>
<text text-anchor="start" x="340.5091" y="-42.4" font-family="sans-serif" font-weight="bold" font-size="14.00" fill="#000000">Legend</text>
<polygon fill="#ffffb3" stroke="transparent" points="127.5,-10 127.5,-30 147.5,-30 147.5,-10 127.5,-10"/>
<text text-anchor="start" x="151.129" y="-15.4" font-family="sans-serif" font-size="14.00" fill="#000000"> &#160;Declarations</text>
<polygon fill="#8dd3c7" stroke="transparent" points="240.5,-10 240.5,-30 260.5,-30 260.5,-10 240.5,-10"/>
<text text-anchor="start" x="264.2251" y="-15.4" font-family="sans-serif" font-size="14.00" fill="#000000"> &#160;Module</text>
<polygon fill="#80b1d3" stroke="transparent" points="326.5,-10 326.5,-30 346.5,-30 346.5,-10 326.5,-10"/>
<text text-anchor="start" x="350.2812" y="-15.4" font-family="sans-serif" font-size="14.00" fill="#000000"> &#160;Bootstrap</text>
<polygon fill="#fdb462" stroke="transparent" points="423.5,-10 423.5,-30 443.5,-30 443.5,-10 423.5,-10"/>
<text text-anchor="start" x="447.1732" y="-15.4" font-family="sans-serif" font-size="14.00" fill="#000000"> &#160;Providers</text>
<polygon fill="#fb8072" stroke="transparent" points="519.5,-10 519.5,-30 539.5,-30 539.5,-10 519.5,-10"/>
<text text-anchor="start" x="543.2258" y="-15.4" font-family="sans-serif" font-size="14.00" fill="#000000"> &#160;Exports</text>
<g id="clust1" class="cluster">
<title>cluster_ContentModule</title>
<polygon fill="none" stroke="#000000" stroke-dasharray="1,5" points="8,-70 8,-195 715,-195 715,-70 8,-70"/>
</g>
<g id="clust3" class="cluster">
<title>cluster_ContentModule_imports</title>
<polygon fill="none" stroke="#000000" points="16,-78 16,-130 707,-130 707,-78 16,-78"/>
</g>
<!-- SharedModule -->
<g id="node1" class="node">
<title>SharedModule</title>
<polygon fill="#8dd3c7" stroke="#000000" points="699.4231,-122 696.4231,-126 675.4231,-126 672.4231,-122 600.5769,-122 600.5769,-86 699.4231,-86 699.4231,-122"/>
<text text-anchor="middle" x="650" y="-99.8" font-family="Times,serif" font-size="14.00" fill="#000000">SharedModule</text>
</g>
<!-- ContentModule -->
<g id="node7" class="node">
<title>ContentModule</title>
<polygon fill="#8dd3c7" stroke="#000000" points="430.8823,-187 427.8823,-191 406.8823,-191 403.8823,-187 327.1177,-187 327.1177,-151 430.8823,-151 430.8823,-187"/>
<text text-anchor="middle" x="379" y="-164.8" font-family="Times,serif" font-size="14.00" fill="#000000">ContentModule</text>
</g>
<!-- SharedModule&#45;&gt;ContentModule -->
<g id="edge1" class="edge">
<title>SharedModule&#45;&gt;ContentModule</title>
<path fill="none" stroke="#000000" d="M650,-122.2843C650,-143.3211 650,-175 650,-175 650,-175 440.9309,-175 440.9309,-175"/>
<polygon fill="#000000" stroke="#000000" points="440.9309,-171.5001 430.9309,-175 440.9308,-178.5001 440.9309,-171.5001"/>
</g>
<!-- BlogModule -->
<g id="node2" class="node">
<title>BlogModule</title>
<polygon fill="#8dd3c7" stroke="#000000" points="582.2773,-122 579.2773,-126 558.2773,-126 555.2773,-122 495.7227,-122 495.7227,-86 582.2773,-86 582.2773,-122"/>
<text text-anchor="middle" x="539" y="-99.8" font-family="Times,serif" font-size="14.00" fill="#000000">BlogModule</text>
</g>
<!-- BlogModule&#45;&gt;ContentModule -->
<g id="edge2" class="edge">
<title>BlogModule&#45;&gt;ContentModule</title>
<path fill="none" stroke="#000000" d="M539,-122.0225C539,-139.3734 539,-163 539,-163 539,-163 440.9474,-163 440.9474,-163"/>
<polygon fill="#000000" stroke="#000000" points="440.9474,-159.5001 430.9474,-163 440.9474,-166.5001 440.9474,-159.5001"/>
</g>
<!-- PlaysModule -->
<g id="node3" class="node">
<title>PlaysModule</title>
<polygon fill="#8dd3c7" stroke="#000000" points="477.8823,-122 474.8823,-126 453.8823,-126 450.8823,-122 388.1177,-122 388.1177,-86 477.8823,-86 477.8823,-122"/>
<text text-anchor="middle" x="433" y="-99.8" font-family="Times,serif" font-size="14.00" fill="#000000">PlaysModule</text>
</g>
<!-- PlaysModule&#45;&gt;ContentModule -->
<g id="edge3" class="edge">
<title>PlaysModule&#45;&gt;ContentModule</title>
<path fill="none" stroke="#000000" d="M409.5,-122.1061C409.5,-122.1061 409.5,-140.991 409.5,-140.991"/>
<polygon fill="#000000" stroke="#000000" points="406.0001,-140.9909 409.5,-150.991 413.0001,-140.991 406.0001,-140.9909"/>
</g>
<!-- ProseModule -->
<g id="node4" class="node">
<title>ProseModule</title>
<polygon fill="#8dd3c7" stroke="#000000" points="370.1529,-122 367.1529,-126 346.1529,-126 343.1529,-122 279.8471,-122 279.8471,-86 370.1529,-86 370.1529,-122"/>
<text text-anchor="middle" x="325" y="-99.8" font-family="Times,serif" font-size="14.00" fill="#000000">ProseModule</text>
</g>
<!-- ProseModule&#45;&gt;ContentModule -->
<g id="edge4" class="edge">
<title>ProseModule&#45;&gt;ContentModule</title>
<path fill="none" stroke="#000000" d="M348.6925,-122.1061C348.6925,-122.1061 348.6925,-140.991 348.6925,-140.991"/>
<polygon fill="#000000" stroke="#000000" points="345.1926,-140.9909 348.6925,-150.991 352.1926,-140.991 345.1926,-140.9909"/>
</g>
<!-- SerialModule -->
<g id="node5" class="node">
<title>SerialModule</title>
<polygon fill="#8dd3c7" stroke="#000000" points="262.2036,-122 259.2036,-126 238.2036,-126 235.2036,-122 169.7964,-122 169.7964,-86 262.2036,-86 262.2036,-122"/>
<text text-anchor="middle" x="216" y="-99.8" font-family="Times,serif" font-size="14.00" fill="#000000">SerialModule</text>
</g>
<!-- SerialModule&#45;&gt;ContentModule -->
<g id="edge5" class="edge">
<title>SerialModule&#45;&gt;ContentModule</title>
<path fill="none" stroke="#000000" d="M216,-122.0225C216,-139.3734 216,-163 216,-163 216,-163 316.9776,-163 316.9776,-163"/>
<polygon fill="#000000" stroke="#000000" points="316.9777,-166.5001 326.9776,-163 316.9776,-159.5001 316.9777,-166.5001"/>
</g>
<!-- ScreenplaysModule -->
<g id="node6" class="node">
<title>ScreenplaysModule</title>
<polygon fill="#8dd3c7" stroke="#000000" points="151.6867,-122 148.6867,-126 127.6867,-126 124.6867,-122 24.3133,-122 24.3133,-86 151.6867,-86 151.6867,-122"/>
<text text-anchor="middle" x="88" y="-99.8" font-family="Times,serif" font-size="14.00" fill="#000000">ScreenplaysModule</text>
</g>
<!-- ScreenplaysModule&#45;&gt;ContentModule -->
<g id="edge6" class="edge">
<title>ScreenplaysModule&#45;&gt;ContentModule</title>
<path fill="none" stroke="#000000" d="M88,-122.2843C88,-143.3211 88,-175 88,-175 88,-175 316.975,-175 316.975,-175"/>
<polygon fill="#000000" stroke="#000000" points="316.9751,-178.5001 326.975,-175 316.975,-171.5001 316.9751,-178.5001"/>
</g>
</g>
</svg>
