<?xml version="1.0" encoding="UTF-8" standalone="no"?>
<!DOCTYPE svg PUBLIC "-//W3C//DTD SVG 1.1//EN"
 "http://www.w3.org/Graphics/SVG/1.1/DTD/svg11.dtd">
<!-- Generated by graphviz version 2.40.1 (20161225.0304)
 -->
<!-- Title: dependencies Pages: 1 -->
<svg width="730pt" height="211pt"
 viewBox="0.00 0.00 730.00 211.00" xmlns="http://www.w3.org/2000/svg" xmlns:xlink="http://www.w3.org/1999/xlink">
<g id="graph0" class="graph" transform="scale(1 1) rotate(0) translate(4 207)">
<title>dependencies</title>
<polygon fill="#ffffff" stroke="transparent" points="-4,4 -4,-207 726,-207 726,4 -4,4"/>
<text text-anchor="start" x="340.0091" y="-42.4" font-family="sans-serif" font-weight="bold" font-size="14.00" fill="#000000">Legend</text>
<polygon fill="#ffffb3" stroke="transparent" points="127,-10 127,-30 147,-30 147,-10 127,-10"/>
<text text-anchor="start" x="150.629" y="-15.4" font-family="sans-serif" font-size="14.00" fill="#000000"> &#160;Declarations</text>
<polygon fill="#8dd3c7" stroke="transparent" points="240,-10 240,-30 260,-30 260,-10 240,-10"/>
<text text-anchor="start" x="263.7251" y="-15.4" font-family="sans-serif" font-size="14.00" fill="#000000"> &#160;Module</text>
<polygon fill="#80b1d3" stroke="transparent" points="326,-10 326,-30 346,-30 346,-10 326,-10"/>
<text text-anchor="start" x="349.7812" y="-15.4" font-family="sans-serif" font-size="14.00" fill="#000000"> &#160;Bootstrap</text>
<polygon fill="#fdb462" stroke="transparent" points="423,-10 423,-30 443,-30 443,-10 423,-10"/>
<text text-anchor="start" x="446.6732" y="-15.4" font-family="sans-serif" font-size="14.00" fill="#000000"> &#160;Providers</text>
<polygon fill="#fb8072" stroke="transparent" points="519,-10 519,-30 539,-30 539,-10 519,-10"/>
<text text-anchor="start" x="542.7258" y="-15.4" font-family="sans-serif" font-size="14.00" fill="#000000"> &#160;Exports</text>
<g id="clust1" class="cluster">
<title>cluster_ContentModule</title>
<polygon fill="none" stroke="#000000" stroke-dasharray="1,5" points="8,-70 8,-195 714,-195 714,-70 8,-70"/>
</g>
<g id="clust3" class="cluster">
<title>cluster_ContentModule_imports</title>
<polygon fill="none" stroke="#000000" points="16,-78 16,-130 706,-130 706,-78 16,-78"/>
</g>
<!-- SharedModule -->
<g id="node1" class="node">
<title>SharedModule</title>
<polygon fill="#8dd3c7" stroke="#000000" points="698.4231,-122 695.4231,-126 674.4231,-126 671.4231,-122 599.5769,-122 599.5769,-86 698.4231,-86 698.4231,-122"/>
<text text-anchor="middle" x="649" y="-99.8" font-family="Times,serif" font-size="14.00" fill="#000000">SharedModule</text>
</g>
<!-- ContentModule -->
<g id="node7" class="node">
<title>ContentModule</title>
<polygon fill="#8dd3c7" stroke="#000000" points="427.8823,-187 424.8823,-191 403.8823,-191 400.8823,-187 324.1177,-187 324.1177,-151 427.8823,-151 427.8823,-187"/>
<text text-anchor="middle" x="376" y="-164.8" font-family="Times,serif" font-size="14.00" fill="#000000">ContentModule</text>
</g>
<!-- SharedModule&#45;&gt;ContentModule -->
<g id="edge1" class="edge">
<title>SharedModule&#45;&gt;ContentModule</title>
<path fill="none" stroke="#000000" d="M649,-122.2843C649,-143.3211 649,-175 649,-175 649,-175 437.9918,-175 437.9918,-175"/>
<polygon fill="#000000" stroke="#000000" points="437.9918,-171.5001 427.9918,-175 437.9918,-178.5001 437.9918,-171.5001"/>
</g>
<!-- SerialModule -->
<g id="node2" class="node">
<title>SerialModule</title>
<polygon fill="#8dd3c7" stroke="#000000" points="582.2036,-122 579.2036,-126 558.2036,-126 555.2036,-122 489.7964,-122 489.7964,-86 582.2036,-86 582.2036,-122"/>
<text text-anchor="middle" x="536" y="-99.8" font-family="Times,serif" font-size="14.00" fill="#000000">SerialModule</text>
</g>
<!-- SerialModule&#45;&gt;ContentModule -->
<g id="edge2" class="edge">
<title>SerialModule&#45;&gt;ContentModule</title>
<path fill="none" stroke="#000000" d="M536,-122.0225C536,-139.3734 536,-163 536,-163 536,-163 437.9474,-163 437.9474,-163"/>
<polygon fill="#000000" stroke="#000000" points="437.9474,-159.5001 427.9474,-163 437.9474,-166.5001 437.9474,-159.5001"/>
</g>
<!-- BlogModule -->
<g id="node3" class="node">
<title>BlogModule</title>
<polygon fill="#8dd3c7" stroke="#000000" points="472.2773,-122 469.2773,-126 448.2773,-126 445.2773,-122 385.7227,-122 385.7227,-86 472.2773,-86 472.2773,-122"/>
<text text-anchor="middle" x="429" y="-99.8" font-family="Times,serif" font-size="14.00" fill="#000000">BlogModule</text>
</g>
<!-- BlogModule&#45;&gt;ContentModule -->
<g id="edge3" class="edge">
<title>BlogModule&#45;&gt;ContentModule</title>
<path fill="none" stroke="#000000" d="M406.7763,-122.1061C406.7763,-122.1061 406.7763,-140.991 406.7763,-140.991"/>
<polygon fill="#000000" stroke="#000000" points="403.2764,-140.9909 406.7763,-150.991 410.2764,-140.991 403.2764,-140.9909"/>
</g>
<!-- PlaysModule -->
<g id="node4" class="node">
<title>PlaysModule</title>
<polygon fill="#8dd3c7" stroke="#000000" points="367.8823,-122 364.8823,-126 343.8823,-126 340.8823,-122 278.1177,-122 278.1177,-86 367.8823,-86 367.8823,-122"/>
<text text-anchor="middle" x="323" y="-99.8" font-family="Times,serif" font-size="14.00" fill="#000000">PlaysModule</text>
</g>
<!-- PlaysModule&#45;&gt;ContentModule -->
<g id="edge4" class="edge">
<title>PlaysModule&#45;&gt;ContentModule</title>
<path fill="none" stroke="#000000" d="M346,-122.1061C346,-122.1061 346,-140.991 346,-140.991"/>
<polygon fill="#000000" stroke="#000000" points="342.5001,-140.9909 346,-150.991 349.5001,-140.991 342.5001,-140.9909"/>
</g>
<!-- ProseModule -->
<g id="node5" class="node">
<title>ProseModule</title>
<polygon fill="#8dd3c7" stroke="#000000" points="260.1529,-122 257.1529,-126 236.1529,-126 233.1529,-122 169.8471,-122 169.8471,-86 260.1529,-86 260.1529,-122"/>
<text text-anchor="middle" x="215" y="-99.8" font-family="Times,serif" font-size="14.00" fill="#000000">ProseModule</text>
</g>
<!-- ProseModule&#45;&gt;ContentModule -->
<g id="edge5" class="edge">
<title>ProseModule&#45;&gt;ContentModule</title>
<path fill="none" stroke="#000000" d="M215,-122.0225C215,-139.3734 215,-163 215,-163 215,-163 313.7279,-163 313.7279,-163"/>
<polygon fill="#000000" stroke="#000000" points="313.7279,-166.5001 323.7279,-163 313.7279,-159.5001 313.7279,-166.5001"/>
</g>
<!-- ScreenplaysModule -->
<g id="node6" class="node">
<title>ScreenplaysModule</title>
<polygon fill="#8dd3c7" stroke="#000000" points="151.6867,-122 148.6867,-126 127.6867,-126 124.6867,-122 24.3133,-122 24.3133,-86 151.6867,-86 151.6867,-122"/>
<text text-anchor="middle" x="88" y="-99.8" font-family="Times,serif" font-size="14.00" fill="#000000">ScreenplaysModule</text>
</g>
<!-- ScreenplaysModule&#45;&gt;ContentModule -->
<g id="edge6" class="edge">
<title>ScreenplaysModule&#45;&gt;ContentModule</title>
<path fill="none" stroke="#000000" d="M88,-122.2843C88,-143.3211 88,-175 88,-175 88,-175 313.8454,-175 313.8454,-175"/>
<polygon fill="#000000" stroke="#000000" points="313.8454,-178.5001 323.8454,-175 313.8453,-171.5001 313.8454,-178.5001"/>
</g>
</g>
</svg>
