<svg width="18" height="20" xmlns="http://www.w3.org/2000/svg">
 <!-- Created with Method Draw - http://github.com/duopixel/Method-Draw/ -->
 <g>
  <title>background</title>
  <rect fill="#ffffff" id="canvas_background" height="22" width="20" y="-1" x="-1"/>
  <g display="none" overflow="visible" y="0" x="0" height="100%" width="100%" id="canvasGrid">
   <rect fill="url(#gridpattern)" stroke-width="0" y="0" x="0" height="100%" width="100%"/>
  </g>
 </g>
 <g>
  <title>Layer 1</title>
  <line stroke-linecap="undefined" stroke-linejoin="undefined" id="svg_3" y2="18.406696" x2="4.95297" y1="1.499812" x1="1.921606" fill-opacity="null" stroke-opacity="null" stroke-width="0.5" stroke="#000" fill="none"/>
  <line stroke="#000" stroke-linecap="undefined" stroke-linejoin="undefined" id="svg_4" y2="18.375445" x2="13.359533" y1="1.468561" x1="16.234643" fill-opacity="null" stroke-opacity="null" stroke-width="0.5" fill="none"/>
  <ellipse stroke="#000" ry="0.515644" rx="4.406415" id="svg_5" cy="18.609829" cx="9.078124" fill-opacity="null" stroke-opacity="null" stroke-width="0.5" fill="none"/>
  <ellipse ry="0.484393" rx="7.46903" id="svg_6" cy="1.546689" cx="8.95312" fill-opacity="null" stroke-opacity="null" stroke-width="0.5" stroke="#000" fill="none"/>
  <rect stroke="null" id="svg_13" height="2.093828" width="8.094053" y="16.500374" x="5.109225" fill-opacity="null" stroke-opacity="null" stroke-width="0.5" fill="#ffffff"/>
  <path stroke="#000" id="svg_17" d="m10.408705,7.813981l-0.994431,-0.215331l0.36637,-0.233899c0.201502,-0.128646 0.384205,-0.253185 0.406004,-0.276752c0.05415,-0.058539 -0.620204,-1.332619 -0.704778,-1.331565c-0.037178,0.000515 -0.296238,0.493864 -0.575688,1.096448c-0.281473,0.606935 -0.561601,1.069163 -0.628062,1.036323c-0.786614,-0.388628 -1.428432,-0.781834 -1.428432,-0.875118c0,-0.063718 0.246806,-0.632111 0.548462,-1.263098l0.548462,-1.147246l1.495401,0l1.495401,0l0.390341,0.754806l0.390344,0.754806l0.407215,-0.255427c0.28229,-0.17707 0.389778,-0.202497 0.350371,-0.082895c-0.34696,1.053164 -0.864678,2.281173 -0.956705,2.26926c-0.063714,-0.008241 -0.563335,-0.111884 -1.110273,-0.230313l0,0zm-4.637889,4.698617c-0.378438,-0.7968 -0.717607,-1.542834 -0.753704,-1.657858c-0.037046,-0.118031 0.070889,-0.539795 0.247793,-0.968261l0.313427,-0.759141l-0.320401,-0.231407c-0.426388,-0.307951 -0.267896,-0.402798 0.863189,-0.516564l0.893926,-0.08991l0.35064,1.132747c0.192855,0.623011 0.375317,1.213206 0.405477,1.311552c0.031453,0.102564 -0.119078,0.034323 -0.353023,-0.160041l-0.407856,-0.338854l-0.284715,0.671973c-0.15659,0.369591 -0.286935,0.713163 -0.28965,0.763492c-0.002722,0.050329 0.477883,0.107923 1.068001,0.127983l1.072939,0.036471l0.07002,0.959583c0.038513,0.527774 0.062063,0.966637 0.052338,0.975253c-0.009724,0.008608 -0.517775,0.055273 -1.129002,0.10369l-1.111324,0.088027l-0.688074,-1.448736l0,0.000001zm4.235295,1.407859c-0.649676,-1.198895 -0.660968,-1.109719 0.304655,-2.405633l0.619865,-0.831889l-0.065835,0.607919l-0.065838,0.607919l0.694628,0c0.382045,0 0.694632,-0.037355 0.694632,-0.083005c0,-0.045658 -0.211973,-0.558449 -0.471049,-1.139551c-0.259076,-0.581102 -0.470066,-1.105275 -0.468868,-1.164829c0.00269,-0.133537 1.360733,-1.236219 1.425295,-1.157284c0.025581,0.031277 0.277606,0.588336 0.560057,1.237921l0.513553,1.181046l-0.690999,1.362747c-0.380055,0.749502 -0.745204,1.435847 -0.811438,1.525203c-0.066242,0.089356 -0.436626,0.198568 -0.82308,0.242686c-0.737646,0.084223 -0.717565,0.063937 -0.825721,0.834077c-0.018927,0.134779 -0.239635,-0.171039 -0.589856,-0.817329l0,0.000001z" fill-opacity="null" stroke-opacity="null" stroke-width="0.5" fill="none"/>
 </g>
</svg>