<?xml version="1.0" encoding="UTF-8" standalone="no"?>
<!DOCTYPE svg PUBLIC "-//W3C//DTD SVG 1.1//EN"
 "http://www.w3.org/Graphics/SVG/1.1/DTD/svg11.dtd">
<!-- Generated by graphviz version 2.40.1 (20161225.0304)
 -->
<!-- Title: dependencies Pages: 1 -->
<svg width="716pt" height="284pt"
 viewBox="0.00 0.00 716.00 284.00" xmlns="http://www.w3.org/2000/svg" xmlns:xlink="http://www.w3.org/1999/xlink">
<g id="graph0" class="graph" transform="scale(1 1) rotate(0) translate(4 280)">
<title>dependencies</title>
<polygon fill="#ffffff" stroke="transparent" points="-4,4 -4,-280 712,-280 712,4 -4,4"/>
<text text-anchor="start" x="333.0091" y="-42.4" font-family="sans-serif" font-weight="bold" font-size="14.00" fill="#000000">Legend</text>
<polygon fill="#ffffb3" stroke="transparent" points="120,-10 120,-30 140,-30 140,-10 120,-10"/>
<text text-anchor="start" x="143.629" y="-15.4" font-family="sans-serif" font-size="14.00" fill="#000000"> &#160;Declarations</text>
<polygon fill="#8dd3c7" stroke="transparent" points="233,-10 233,-30 253,-30 253,-10 233,-10"/>
<text text-anchor="start" x="256.7251" y="-15.4" font-family="sans-serif" font-size="14.00" fill="#000000"> &#160;Module</text>
<polygon fill="#80b1d3" stroke="transparent" points="319,-10 319,-30 339,-30 339,-10 319,-10"/>
<text text-anchor="start" x="342.7812" y="-15.4" font-family="sans-serif" font-size="14.00" fill="#000000"> &#160;Bootstrap</text>
<polygon fill="#fdb462" stroke="transparent" points="416,-10 416,-30 436,-30 436,-10 416,-10"/>
<text text-anchor="start" x="439.6732" y="-15.4" font-family="sans-serif" font-size="14.00" fill="#000000"> &#160;Providers</text>
<polygon fill="#fb8072" stroke="transparent" points="512,-10 512,-30 532,-30 532,-10 512,-10"/>
<text text-anchor="start" x="535.7258" y="-15.4" font-family="sans-serif" font-size="14.00" fill="#000000"> &#160;Exports</text>
<g id="clust1" class="cluster">
<title>cluster_BlogModule</title>
<polygon fill="none" stroke="#000000" stroke-dasharray="1,5" points="8,-70 8,-268 700,-268 700,-70 8,-70"/>
</g>
<g id="clust2" class="cluster">
<title>cluster_BlogModule_declarations</title>
<polygon fill="none" stroke="#000000" points="280,-78 280,-130 692,-130 692,-78 280,-78"/>
</g>
<g id="clust6" class="cluster">
<title>cluster_BlogModule_imports</title>
<polygon fill="none" stroke="#000000" points="158,-78 158,-130 272,-130 272,-78 158,-78"/>
</g>
<g id="clust7" class="cluster">
<title>cluster_BlogModule_exports</title>
<polygon fill="none" stroke="#000000" points="278,-208 278,-260 436,-260 436,-208 278,-208"/>
</g>
<g id="clust9" class="cluster">
<title>cluster_BlogModule_providers</title>
<polygon fill="none" stroke="#000000" points="16,-78 16,-130 150,-130 150,-78 16,-78"/>
</g>
<!-- BlogComponent -->
<g id="node1" class="node">
<title>BlogComponent</title>
<polygon fill="#ffffb3" stroke="#000000" points="684.0605,-122 575.9395,-122 575.9395,-86 684.0605,-86 684.0605,-122"/>
<text text-anchor="middle" x="630" y="-99.8" font-family="Times,serif" font-size="14.00" fill="#000000">BlogComponent</text>
</g>
<!-- BlogModule -->
<g id="node4" class="node">
<title>BlogModule</title>
<polygon fill="#8dd3c7" stroke="#000000" points="400.2773,-187 397.2773,-191 376.2773,-191 373.2773,-187 313.7227,-187 313.7227,-151 400.2773,-151 400.2773,-187"/>
<text text-anchor="middle" x="357" y="-164.8" font-family="Times,serif" font-size="14.00" fill="#000000">BlogModule</text>
</g>
<!-- BlogComponent&#45;&gt;BlogModule -->
<g id="edge1" class="edge">
<title>BlogComponent&#45;&gt;BlogModule</title>
<path fill="none" stroke="#000000" d="M630,-122.2843C630,-143.3211 630,-175 630,-175 630,-175 410.5595,-175 410.5595,-175"/>
<polygon fill="#000000" stroke="#000000" points="410.5596,-171.5001 400.5595,-175 410.5595,-178.5001 410.5596,-171.5001"/>
</g>
<!-- BlogsComponent -->
<g id="node2" class="node">
<title>BlogsComponent</title>
<polygon fill="#ffffb3" stroke="#000000" points="558.0042,-122 443.9958,-122 443.9958,-86 558.0042,-86 558.0042,-122"/>
<text text-anchor="middle" x="501" y="-99.8" font-family="Times,serif" font-size="14.00" fill="#000000">BlogsComponent</text>
</g>
<!-- BlogsComponent&#45;&gt;BlogModule -->
<g id="edge2" class="edge">
<title>BlogsComponent&#45;&gt;BlogModule</title>
<path fill="none" stroke="#000000" d="M501,-122.0225C501,-139.3734 501,-163 501,-163 501,-163 410.5955,-163 410.5955,-163"/>
<polygon fill="#000000" stroke="#000000" points="410.5956,-159.5001 400.5955,-163 410.5955,-166.5001 410.5956,-159.5001"/>
</g>
<!-- BlogFormComponent -->
<g id="node3" class="node">
<title>BlogFormComponent</title>
<polygon fill="#ffffb3" stroke="#000000" points="426.3934,-122 287.6066,-122 287.6066,-86 426.3934,-86 426.3934,-122"/>
<text text-anchor="middle" x="357" y="-99.8" font-family="Times,serif" font-size="14.00" fill="#000000">BlogFormComponent</text>
</g>
<!-- BlogFormComponent&#45;&gt;BlogModule -->
<g id="edge3" class="edge">
<title>BlogFormComponent&#45;&gt;BlogModule</title>
<path fill="none" stroke="#000000" d="M357,-122.1061C357,-122.1061 357,-140.991 357,-140.991"/>
<polygon fill="#000000" stroke="#000000" points="353.5001,-140.9909 357,-150.991 360.5001,-140.991 353.5001,-140.9909"/>
</g>
<!-- BlogFormComponent  -->
<g id="node6" class="node">
<title>BlogFormComponent </title>
<polygon fill="#fb8072" stroke="#000000" points="428.3939,-252 285.6061,-252 285.6061,-216 428.3939,-216 428.3939,-252"/>
<text text-anchor="middle" x="357" y="-229.8" font-family="Times,serif" font-size="14.00" fill="#000000">BlogFormComponent </text>
</g>
<!-- BlogModule&#45;&gt;BlogFormComponent  -->
<g id="edge5" class="edge">
<title>BlogModule&#45;&gt;BlogFormComponent </title>
<path fill="none" stroke="#000000" stroke-dasharray="5,2" d="M357,-187.1061C357,-187.1061 357,-205.991 357,-205.991"/>
<polygon fill="#000000" stroke="#000000" points="353.5001,-205.9909 357,-215.991 360.5001,-205.991 353.5001,-205.9909"/>
</g>
<!-- SharedModule -->
<g id="node5" class="node">
<title>SharedModule</title>
<polygon fill="#8dd3c7" stroke="#000000" points="264.4231,-122 261.4231,-126 240.4231,-126 237.4231,-122 165.5769,-122 165.5769,-86 264.4231,-86 264.4231,-122"/>
<text text-anchor="middle" x="215" y="-99.8" font-family="Times,serif" font-size="14.00" fill="#000000">SharedModule</text>
</g>
<!-- SharedModule&#45;&gt;BlogModule -->
<g id="edge4" class="edge">
<title>SharedModule&#45;&gt;BlogModule</title>
<path fill="none" stroke="#000000" d="M215,-122.0225C215,-139.3734 215,-163 215,-163 215,-163 303.6237,-163 303.6237,-163"/>
<polygon fill="#000000" stroke="#000000" points="303.6238,-166.5001 313.6237,-163 303.6237,-159.5001 303.6238,-166.5001"/>
</g>
<!-- CrudService -->
<g id="node7" class="node">
<title>CrudService</title>
<ellipse fill="#fdb462" stroke="#000000" cx="83" cy="-104" rx="59.1083" ry="18"/>
<text text-anchor="middle" x="83" y="-99.8" font-family="Times,serif" font-size="14.00" fill="#000000">CrudService</text>
</g>
<!-- CrudService&#45;&gt;BlogModule -->
<g id="edge6" class="edge">
<title>CrudService&#45;&gt;BlogModule</title>
<path fill="none" stroke="#000000" d="M83,-122.2843C83,-143.3211 83,-175 83,-175 83,-175 303.5839,-175 303.5839,-175"/>
<polygon fill="#000000" stroke="#000000" points="303.5839,-178.5001 313.5839,-175 303.5839,-171.5001 303.5839,-178.5001"/>
</g>
</g>
</svg>
