<?xml version="1.0" encoding="UTF-8" standalone="no"?>
<!DOCTYPE svg PUBLIC "-//W3C//DTD SVG 1.1//EN"
 "http://www.w3.org/Graphics/SVG/1.1/DTD/svg11.dtd">
<!-- Generated by graphviz version 2.40.1 (20161225.0304)
 -->
<!-- Title: dependencies Pages: 1 -->
<svg width="3188pt" height="504pt"
 viewBox="0.00 0.00 3188.00 504.00" xmlns="http://www.w3.org/2000/svg" xmlns:xlink="http://www.w3.org/1999/xlink">
<g id="graph0" class="graph" transform="scale(1 1) rotate(0) translate(4 500)">
<title>dependencies</title>
<polygon fill="#ffffff" stroke="transparent" points="-4,4 -4,-500 3184,-500 3184,4 -4,4"/>
<text text-anchor="start" x="1569.0091" y="-42.4" font-family="sans-serif" font-weight="bold" font-size="14.00" fill="#000000">Legend</text>
<polygon fill="#ffffb3" stroke="transparent" points="1356,-10 1356,-30 1376,-30 1376,-10 1356,-10"/>
<text text-anchor="start" x="1379.629" y="-15.4" font-family="sans-serif" font-size="14.00" fill="#000000"> &#160;Declarations</text>
<polygon fill="#8dd3c7" stroke="transparent" points="1469,-10 1469,-30 1489,-30 1489,-10 1469,-10"/>
<text text-anchor="start" x="1492.7251" y="-15.4" font-family="sans-serif" font-size="14.00" fill="#000000"> &#160;Module</text>
<polygon fill="#80b1d3" stroke="transparent" points="1555,-10 1555,-30 1575,-30 1575,-10 1555,-10"/>
<text text-anchor="start" x="1578.7812" y="-15.4" font-family="sans-serif" font-size="14.00" fill="#000000"> &#160;Bootstrap</text>
<polygon fill="#fdb462" stroke="transparent" points="1652,-10 1652,-30 1672,-30 1672,-10 1652,-10"/>
<text text-anchor="start" x="1675.6732" y="-15.4" font-family="sans-serif" font-size="14.00" fill="#000000"> &#160;Providers</text>
<polygon fill="#fb8072" stroke="transparent" points="1748,-10 1748,-30 1768,-30 1768,-10 1748,-10"/>
<text text-anchor="start" x="1771.7258" y="-15.4" font-family="sans-serif" font-size="14.00" fill="#000000"> &#160;Exports</text>
<g id="clust1" class="cluster">
<title>cluster_AddStoryModalModule</title>
<polygon fill="none" stroke="#000000" stroke-dasharray="1,5" points="8,-70 8,-206 212,-206 212,-70 8,-70"/>
</g>
<g id="clust2" class="cluster">
<title>cluster_AddStoryModalModule_declarations</title>
<polygon fill="none" stroke="#000000" points="16,-78 16,-130 204,-130 204,-78 16,-78"/>
</g>
<g id="clust8" class="cluster">
<title>cluster_AddStoryModule</title>
<polygon fill="none" stroke="#000000" stroke-dasharray="1,5" points="220,-70 220,-206 388,-206 388,-70 220,-70"/>
</g>
<g id="clust9" class="cluster">
<title>cluster_AddStoryModule_declarations</title>
<polygon fill="none" stroke="#000000" points="228,-78 228,-130 380,-130 380,-78 228,-78"/>
</g>
<g id="clust15" class="cluster">
<title>cluster_AppModule</title>
<polygon fill="none" stroke="#000000" stroke-dasharray="1,5" points="793,-146 793,-488 2362,-488 2362,-146 793,-146"/>
</g>
<g id="clust16" class="cluster">
<title>cluster_AppModule_declarations</title>
<polygon fill="none" stroke="#000000" points="1204,-298 1204,-350 2354,-350 2354,-298 1204,-298"/>
</g>
<g id="clust17" class="cluster">
<title>cluster_AppModule_AppComponent_providers</title>
<polygon fill="none" stroke="#000000" points="1494,-230 1494,-282 1656,-282 1656,-230 1494,-230"/>
</g>
<g id="clust25" class="cluster">
<title>cluster_AppModule_imports</title>
<polygon fill="none" stroke="#000000" points="833,-154 833,-350 1196,-350 1196,-154 833,-154"/>
</g>
<g id="clust27" class="cluster">
<title>cluster_AppModule_bootstrap</title>
<polygon fill="none" stroke="#000000" points="1214,-428 1214,-480 1338,-480 1338,-428 1214,-428"/>
</g>
<g id="clust29" class="cluster">
<title>cluster_AuthModule</title>
<polygon fill="none" stroke="#000000" stroke-dasharray="1,5" points="333,-230 333,-282 437,-282 437,-230 333,-230"/>
</g>
<g id="clust35" class="cluster">
<title>cluster_BlogModule</title>
<polygon fill="none" stroke="#000000" stroke-dasharray="1,5" points="3032,-146 3032,-282 3172,-282 3172,-146 3032,-146"/>
</g>
<g id="clust36" class="cluster">
<title>cluster_BlogModule_declarations</title>
<polygon fill="none" stroke="#000000" points="3040,-154 3040,-206 3164,-206 3164,-154 3040,-154"/>
</g>
<g id="clust42" class="cluster">
<title>cluster_ChapterIdModule</title>
<polygon fill="none" stroke="#000000" stroke-dasharray="1,5" points="2370,-363 2370,-415 2502,-415 2502,-363 2370,-363"/>
</g>
<g id="clust49" class="cluster">
<title>cluster_ChapterModule</title>
<polygon fill="none" stroke="#000000" stroke-dasharray="1,5" points="2510,-363 2510,-415 2630,-415 2630,-363 2510,-363"/>
</g>
<g id="clust56" class="cluster">
<title>cluster_ContentModule</title>
<polygon fill="none" stroke="#000000" stroke-dasharray="1,5" points="2370,-222 2370,-290 2746,-290 2746,-222 2370,-222"/>
</g>
<g id="clust58" class="cluster">
<title>cluster_ContentModule_imports</title>
<polygon fill="none" stroke="#000000" points="2378,-230 2378,-282 2738,-282 2738,-230 2378,-230"/>
</g>
<g id="clust62" class="cluster">
<title>cluster_LoginModule</title>
<polygon fill="none" stroke="#000000" stroke-dasharray="1,5" points="1502,-70 1502,-138 1648,-138 1648,-70 1502,-70"/>
</g>
<g id="clust63" class="cluster">
<title>cluster_LoginModule_declarations</title>
<polygon fill="none" stroke="#000000" points="1510,-78 1510,-130 1640,-130 1640,-78 1510,-78"/>
</g>
<g id="clust69" class="cluster">
<title>cluster_PlaysModule</title>
<polygon fill="none" stroke="#000000" stroke-dasharray="1,5" points="2692,-146 2692,-214 2836,-214 2836,-146 2692,-146"/>
</g>
<g id="clust70" class="cluster">
<title>cluster_PlaysModule_declarations</title>
<polygon fill="none" stroke="#000000" points="2700,-154 2700,-206 2828,-206 2828,-154 2700,-154"/>
</g>
<g id="clust83" class="cluster">
<title>cluster_RegisterModule</title>
<polygon fill="none" stroke="#000000" stroke-dasharray="1,5" points="2370,-146 2370,-214 2530,-214 2530,-146 2370,-146"/>
</g>
<g id="clust84" class="cluster">
<title>cluster_RegisterModule_declarations</title>
<polygon fill="none" stroke="#000000" points="2378,-154 2378,-206 2522,-206 2522,-154 2378,-154"/>
</g>
<g id="clust90" class="cluster">
<title>cluster_ScreenplaysModule</title>
<polygon fill="none" stroke="#000000" stroke-dasharray="1,5" points="2844,-146 2844,-214 3024,-214 3024,-146 2844,-146"/>
</g>
<g id="clust91" class="cluster">
<title>cluster_ScreenplaysModule_declarations</title>
<polygon fill="none" stroke="#000000" points="2852,-154 2852,-206 3016,-206 3016,-154 2852,-154"/>
</g>
<g id="clust97" class="cluster">
<title>cluster_SerialModule</title>
<polygon fill="none" stroke="#000000" stroke-dasharray="1,5" points="2538,-146 2538,-214 2684,-214 2684,-146 2538,-146"/>
</g>
<g id="clust98" class="cluster">
<title>cluster_SerialModule_declarations</title>
<polygon fill="none" stroke="#000000" points="2546,-154 2546,-206 2676,-206 2676,-154 2546,-154"/>
</g>
<g id="clust104" class="cluster">
<title>cluster_SharedLoginModule</title>
<polygon fill="none" stroke="#000000" stroke-dasharray="1,5" points="445,-222 445,-290 785,-290 785,-222 445,-222"/>
</g>
<g id="clust105" class="cluster">
<title>cluster_SharedLoginModule_declarations</title>
<polygon fill="none" stroke="#000000" points="621,-230 621,-282 777,-282 777,-230 621,-230"/>
</g>
<g id="clust108" class="cluster">
<title>cluster_SharedLoginModule_exports</title>
<polygon fill="none" stroke="#000000" points="453,-230 453,-282 613,-282 613,-230 453,-230"/>
</g>
<g id="clust111" class="cluster">
<title>cluster_SharedModule</title>
<polygon fill="none" stroke="#000000" stroke-dasharray="1,5" points="396,-70 396,-138 1494,-138 1494,-70 396,-70"/>
</g>
<g id="clust112" class="cluster">
<title>cluster_SharedModule_declarations</title>
<polygon fill="none" stroke="#000000" points="838,-78 838,-130 1486,-130 1486,-78 838,-78"/>
</g>
<g id="clust120" class="cluster">
<title>cluster_SharedModule_exports</title>
<polygon fill="none" stroke="#000000" points="404,-78 404,-130 830,-130 830,-78 404,-78"/>
</g>
<!-- AddStoryModalComponent -->
<g id="node1" class="node">
<title>AddStoryModalComponent</title>
<polygon fill="#ffffb3" stroke="#000000" points="196.3229,-122 23.6771,-122 23.6771,-86 196.3229,-86 196.3229,-122"/>
<text text-anchor="middle" x="110" y="-99.8" font-family="Times,serif" font-size="14.00" fill="#000000">AddStoryModalComponent</text>
</g>
<!-- AddStoryModalModule -->
<g id="node2" class="node">
<title>AddStoryModalModule</title>
<polygon fill="#8dd3c7" stroke="#000000" points="185.0407,-198 182.0407,-202 161.0407,-202 158.0407,-198 34.9593,-198 34.9593,-162 185.0407,-162 185.0407,-198"/>
<text text-anchor="middle" x="110" y="-175.8" font-family="Times,serif" font-size="14.00" fill="#000000">AddStoryModalModule</text>
</g>
<!-- AddStoryModalComponent&#45;&gt;AddStoryModalModule -->
<g id="edge1" class="edge">
<title>AddStoryModalComponent&#45;&gt;AddStoryModalModule</title>
<path fill="none" stroke="#000000" d="M110,-122.0109C110,-122.0109 110,-151.855 110,-151.855"/>
<polygon fill="#000000" stroke="#000000" points="106.5001,-151.8549 110,-161.855 113.5001,-151.855 106.5001,-151.8549"/>
</g>
<!-- AddStoryComponent -->
<g id="node3" class="node">
<title>AddStoryComponent</title>
<polygon fill="#ffffb3" stroke="#000000" points="371.773,-122 236.227,-122 236.227,-86 371.773,-86 371.773,-122"/>
<text text-anchor="middle" x="304" y="-99.8" font-family="Times,serif" font-size="14.00" fill="#000000">AddStoryComponent</text>
</g>
<!-- AddStoryModule -->
<g id="node4" class="node">
<title>AddStoryModule</title>
<polygon fill="#8dd3c7" stroke="#000000" points="369.9902,-198 366.9902,-202 345.9902,-202 342.9902,-198 256.0098,-198 256.0098,-162 369.9902,-162 369.9902,-198"/>
<text text-anchor="middle" x="313" y="-175.8" font-family="Times,serif" font-size="14.00" fill="#000000">AddStoryModule</text>
</g>
<!-- AddStoryComponent&#45;&gt;AddStoryModule -->
<g id="edge2" class="edge">
<title>AddStoryComponent&#45;&gt;AddStoryModule</title>
<path fill="none" stroke="#000000" d="M313,-122.0109C313,-122.0109 313,-151.855 313,-151.855"/>
<polygon fill="#000000" stroke="#000000" points="309.5001,-151.8549 313,-161.855 316.5001,-151.855 309.5001,-151.8549"/>
</g>
<!-- AppModule -->
<g id="node13" class="node">
<title>AppModule</title>
<polygon fill="#8dd3c7" stroke="#000000" points="1317.6571,-407 1314.6571,-411 1293.6571,-411 1290.6571,-407 1234.3429,-407 1234.3429,-371 1317.6571,-371 1317.6571,-407"/>
<text text-anchor="middle" x="1276" y="-384.8" font-family="Times,serif" font-size="14.00" fill="#000000">AppModule</text>
</g>
<!-- AddStoryModule&#45;&gt;AppModule -->
<g id="edge12" class="edge">
<title>AddStoryModule&#45;&gt;AppModule</title>
<path fill="none" stroke="#000000" d="M298.6157,-198.249C298.6157,-251.5079 298.6157,-403 298.6157,-403 298.6157,-403 1224.3157,-403 1224.3157,-403"/>
<polygon fill="#000000" stroke="#000000" points="1224.3157,-406.5001 1234.3157,-403 1224.3156,-399.5001 1224.3157,-406.5001"/>
</g>
<!-- ProseModule -->
<g id="node28" class="node">
<title>ProseModule</title>
<polygon fill="#8dd3c7" stroke="#000000" points="2476.1529,-274 2473.1529,-278 2452.1529,-278 2449.1529,-274 2385.8471,-274 2385.8471,-238 2476.1529,-238 2476.1529,-274"/>
<text text-anchor="middle" x="2431" y="-251.8" font-family="Times,serif" font-size="14.00" fill="#000000">ProseModule</text>
</g>
<!-- AddStoryModule&#45;&gt;ProseModule -->
<g id="edge36" class="edge">
<title>AddStoryModule&#45;&gt;ProseModule</title>
<path fill="none" stroke="#000000" d="M355.6108,-198.2434C355.6108,-205.4297 355.6108,-212 355.6108,-212 355.6108,-212 2416.1138,-212 2416.1138,-212 2416.1138,-212 2416.1138,-227.8495 2416.1138,-227.8495"/>
<polygon fill="#000000" stroke="#000000" points="2412.6139,-227.8494 2416.1138,-237.8495 2419.6139,-227.8495 2412.6139,-227.8494"/>
</g>
<!-- AppComponent -->
<g id="node5" class="node">
<title>AppComponent</title>
<polygon fill="#ffffb3" stroke="#000000" points="1627.9399,-342 1522.0601,-342 1522.0601,-306 1627.9399,-306 1627.9399,-342"/>
<text text-anchor="middle" x="1575" y="-319.8" font-family="Times,serif" font-size="14.00" fill="#000000">AppComponent</text>
</g>
<!-- AppComponent&#45;&gt;AppModule -->
<g id="edge3" class="edge">
<title>AppComponent&#45;&gt;AppModule</title>
<path fill="none" stroke="#000000" d="M1575,-342.0225C1575,-359.3734 1575,-383 1575,-383 1575,-383 1327.8895,-383 1327.8895,-383"/>
<polygon fill="#000000" stroke="#000000" points="1327.8895,-379.5001 1317.8895,-383 1327.8895,-386.5001 1327.8895,-379.5001"/>
</g>
<!-- ProseComponent -->
<g id="node6" class="node">
<title>ProseComponent</title>
<polygon fill="#ffffb3" stroke="#000000" points="1758.4356,-342 1645.5644,-342 1645.5644,-306 1758.4356,-306 1758.4356,-342"/>
<text text-anchor="middle" x="1702" y="-319.8" font-family="Times,serif" font-size="14.00" fill="#000000">ProseComponent</text>
</g>
<!-- ProseComponent&#45;&gt;AppModule -->
<g id="edge5" class="edge">
<title>ProseComponent&#45;&gt;AppModule</title>
<path fill="none" stroke="#000000" d="M1702,-342.2222C1702,-360.8285 1702,-387 1702,-387 1702,-387 1328.0124,-387 1328.0124,-387"/>
<polygon fill="#000000" stroke="#000000" points="1328.0124,-383.5001 1318.0124,-387 1328.0123,-390.5001 1328.0124,-383.5001"/>
</g>
<!-- ProseComponent&#45;&gt;ProseModule -->
<g id="edge35" class="edge">
<title>ProseComponent&#45;&gt;ProseModule</title>
<path fill="none" stroke="#000000" d="M1684.541,-305.7772C1684.541,-285.6348 1684.541,-256 1684.541,-256 1684.541,-256 2375.7084,-256 2375.7084,-256"/>
<polygon fill="#000000" stroke="#000000" points="2375.7084,-259.5001 2385.7084,-256 2375.7083,-252.5001 2375.7084,-259.5001"/>
</g>
<!-- ProseComponent&#45;&gt;ProseModule -->
<g id="edge37" class="edge">
<title>ProseComponent&#45;&gt;ProseModule</title>
<path fill="none" stroke="#000000" d="M1721.3792,-305.9775C1721.3792,-288.6266 1721.3792,-265 1721.3792,-265 1721.3792,-265 2375.8015,-265 2375.8015,-265"/>
<polygon fill="#000000" stroke="#000000" points="2375.8015,-268.5001 2385.8015,-265 2375.8014,-261.5001 2375.8015,-268.5001"/>
</g>
<!-- ChapterComponent -->
<g id="node7" class="node">
<title>ChapterComponent</title>
<polygon fill="#ffffb3" stroke="#000000" points="2345.6499,-342 2220.3501,-342 2220.3501,-306 2345.6499,-306 2345.6499,-342"/>
<text text-anchor="middle" x="2283" y="-319.8" font-family="Times,serif" font-size="14.00" fill="#000000">ChapterComponent</text>
</g>
<!-- ChapterComponent&#45;&gt;AppModule -->
<g id="edge6" class="edge">
<title>ChapterComponent&#45;&gt;AppModule</title>
<path fill="none" stroke="#000000" d="M2283,-342.3228C2283,-365.6602 2283,-403 2283,-403 2283,-403 1327.6697,-403 1327.6697,-403"/>
<polygon fill="#000000" stroke="#000000" points="1327.6697,-399.5001 1317.6697,-403 1327.6696,-406.5001 1327.6697,-399.5001"/>
</g>
<!-- ChapterModule -->
<g id="node26" class="node">
<title>ChapterModule</title>
<polygon fill="#8dd3c7" stroke="#000000" points="2621.8669,-407 2618.8669,-411 2597.8669,-411 2594.8669,-407 2518.1331,-407 2518.1331,-371 2621.8669,-371 2621.8669,-407"/>
<text text-anchor="middle" x="2570" y="-384.8" font-family="Times,serif" font-size="14.00" fill="#000000">ChapterModule</text>
</g>
<!-- ChapterComponent&#45;&gt;ChapterModule -->
<g id="edge24" class="edge">
<title>ChapterComponent&#45;&gt;ChapterModule</title>
<path fill="none" stroke="#000000" d="M2345.835,-324C2425.0489,-324 2551.0039,-324 2551.0039,-324 2551.0039,-324 2551.0039,-360.8939 2551.0039,-360.8939"/>
<polygon fill="#000000" stroke="#000000" points="2547.5039,-360.8938 2551.0039,-370.8939 2554.5039,-360.8939 2547.5039,-360.8938"/>
</g>
<!-- ChapterIdComponent -->
<g id="node8" class="node">
<title>ChapterIdComponent</title>
<polygon fill="#ffffb3" stroke="#000000" points="2202.8104,-342 2065.1896,-342 2065.1896,-306 2202.8104,-306 2202.8104,-342"/>
<text text-anchor="middle" x="2134" y="-319.8" font-family="Times,serif" font-size="14.00" fill="#000000">ChapterIdComponent</text>
</g>
<!-- ChapterIdComponent&#45;&gt;AppModule -->
<g id="edge7" class="edge">
<title>ChapterIdComponent&#45;&gt;AppModule</title>
<path fill="none" stroke="#000000" d="M2111.115,-342.1554C2111.115,-364.3519 2111.115,-399 2111.115,-399 2111.115,-399 1327.6992,-399 1327.6992,-399"/>
<polygon fill="#000000" stroke="#000000" points="1327.6992,-395.5001 1317.6992,-399 1327.6992,-402.5001 1327.6992,-395.5001"/>
</g>
<!-- ChapterIdModule -->
<g id="node25" class="node">
<title>ChapterIdModule</title>
<polygon fill="#8dd3c7" stroke="#000000" points="2493.5284,-407 2490.5284,-411 2469.5284,-411 2466.5284,-407 2378.4716,-407 2378.4716,-371 2493.5284,-371 2493.5284,-407"/>
<text text-anchor="middle" x="2436" y="-384.8" font-family="Times,serif" font-size="14.00" fill="#000000">ChapterIdModule</text>
</g>
<!-- ChapterIdComponent&#45;&gt;ChapterIdModule -->
<g id="edge23" class="edge">
<title>ChapterIdComponent&#45;&gt;ChapterIdModule</title>
<path fill="none" stroke="#000000" d="M2156.885,-342.1243C2156.885,-356.7832 2156.885,-375 2156.885,-375 2156.885,-375 2368.1672,-375 2368.1672,-375"/>
<polygon fill="#000000" stroke="#000000" points="2368.1672,-378.5001 2378.1672,-375 2368.1672,-371.5001 2368.1672,-378.5001"/>
</g>
<!-- HomeComponent -->
<g id="node9" class="node">
<title>HomeComponent</title>
<polygon fill="#ffffb3" stroke="#000000" points="2047.5451,-342 1932.4549,-342 1932.4549,-306 2047.5451,-306 2047.5451,-342"/>
<text text-anchor="middle" x="1990" y="-319.8" font-family="Times,serif" font-size="14.00" fill="#000000">HomeComponent</text>
</g>
<!-- HomeComponent&#45;&gt;AppModule -->
<g id="edge8" class="edge">
<title>HomeComponent&#45;&gt;AppModule</title>
<path fill="none" stroke="#000000" d="M1990,-342.2843C1990,-363.3211 1990,-395 1990,-395 1990,-395 1327.7357,-395 1327.7357,-395"/>
<polygon fill="#000000" stroke="#000000" points="1327.7358,-391.5001 1317.7357,-395 1327.7357,-398.5001 1327.7358,-391.5001"/>
</g>
<!-- NotFoundComponent -->
<g id="node10" class="node">
<title>NotFoundComponent</title>
<polygon fill="#ffffb3" stroke="#000000" points="1914.1122,-342 1775.8878,-342 1775.8878,-306 1914.1122,-306 1914.1122,-342"/>
<text text-anchor="middle" x="1845" y="-319.8" font-family="Times,serif" font-size="14.00" fill="#000000">NotFoundComponent</text>
</g>
<!-- NotFoundComponent&#45;&gt;AppModule -->
<g id="edge9" class="edge">
<title>NotFoundComponent&#45;&gt;AppModule</title>
<path fill="none" stroke="#000000" d="M1845,-342.308C1845,-362.1455 1845,-391 1845,-391 1845,-391 1327.8399,-391 1327.8399,-391"/>
<polygon fill="#000000" stroke="#000000" points="1327.84,-387.5001 1317.8399,-391 1327.8399,-394.5001 1327.84,-387.5001"/>
</g>
<!-- AppHeaderComponent -->
<g id="node11" class="node">
<title>AppHeaderComponent</title>
<polygon fill="#ffffb3" stroke="#000000" points="1503.8501,-342 1358.1499,-342 1358.1499,-306 1503.8501,-306 1503.8501,-342"/>
<text text-anchor="middle" x="1431" y="-319.8" font-family="Times,serif" font-size="14.00" fill="#000000">AppHeaderComponent</text>
</g>
<!-- AppHeaderComponent&#45;&gt;AppModule -->
<g id="edge10" class="edge">
<title>AppHeaderComponent&#45;&gt;AppModule</title>
<path fill="none" stroke="#000000" d="M1431,-342.0091C1431,-358.0494 1431,-379 1431,-379 1431,-379 1327.9452,-379 1327.9452,-379"/>
<polygon fill="#000000" stroke="#000000" points="1327.9453,-375.5001 1317.9452,-379 1327.9452,-382.5001 1327.9453,-375.5001"/>
</g>
<!-- EditNavComponent -->
<g id="node12" class="node">
<title>EditNavComponent</title>
<polygon fill="#ffffb3" stroke="#000000" points="1339.9874,-342 1212.0126,-342 1212.0126,-306 1339.9874,-306 1339.9874,-342"/>
<text text-anchor="middle" x="1276" y="-319.8" font-family="Times,serif" font-size="14.00" fill="#000000">EditNavComponent</text>
</g>
<!-- EditNavComponent&#45;&gt;AppModule -->
<g id="edge11" class="edge">
<title>EditNavComponent&#45;&gt;AppModule</title>
<path fill="none" stroke="#000000" d="M1276,-342.1061C1276,-342.1061 1276,-360.991 1276,-360.991"/>
<polygon fill="#000000" stroke="#000000" points="1272.5001,-360.9909 1276,-370.991 1279.5001,-360.991 1272.5001,-360.9909"/>
</g>
<!-- AppComponent  -->
<g id="node21" class="node">
<title>AppComponent </title>
<polygon fill="#80b1d3" stroke="#000000" points="1330.439,-472 1221.561,-472 1221.561,-436 1330.439,-436 1330.439,-472"/>
<text text-anchor="middle" x="1276" y="-449.8" font-family="Times,serif" font-size="14.00" fill="#000000">AppComponent </text>
</g>
<!-- AppModule&#45;&gt;AppComponent  -->
<g id="edge19" class="edge">
<title>AppModule&#45;&gt;AppComponent </title>
<path fill="none" stroke="#000000" stroke-dasharray="1,5" d="M1276,-407.1061C1276,-407.1061 1276,-425.991 1276,-425.991"/>
<polygon fill="#000000" stroke="#000000" points="1272.5001,-425.9909 1276,-435.991 1279.5001,-425.991 1272.5001,-425.9909"/>
</g>
<!-- FirebaseService -->
<g id="node14" class="node">
<title>FirebaseService</title>
<ellipse fill="#fdb462" stroke="#000000" cx="1575" cy="-256" rx="72.9063" ry="18"/>
<text text-anchor="middle" x="1575" y="-251.8" font-family="Times,serif" font-size="14.00" fill="#000000">FirebaseService</text>
</g>
<!-- FirebaseService&#45;&gt;AppComponent -->
<g id="edge4" class="edge">
<title>FirebaseService&#45;&gt;AppComponent</title>
<path fill="none" stroke="#000000" d="M1575,-274.2228C1575,-274.2228 1575,-295.7269 1575,-295.7269"/>
<polygon fill="#000000" stroke="#000000" points="1571.5001,-295.7269 1575,-305.7269 1578.5001,-295.727 1571.5001,-295.7269"/>
</g>
<!-- SharedModule -->
<g id="node15" class="node">
<title>SharedModule</title>
<polygon fill="#8dd3c7" stroke="#000000" points="1146.4231,-198 1143.4231,-202 1122.4231,-202 1119.4231,-198 1047.5769,-198 1047.5769,-162 1146.4231,-162 1146.4231,-198"/>
<text text-anchor="middle" x="1097" y="-175.8" font-family="Times,serif" font-size="14.00" fill="#000000">SharedModule</text>
</g>
<!-- SharedModule&#45;&gt;AppModule -->
<g id="edge13" class="edge">
<title>SharedModule&#45;&gt;AppModule</title>
<path fill="none" stroke="#000000" d="M1071.08,-198.1924C1071.08,-248.3636 1071.08,-385 1071.08,-385 1071.08,-385 1224.0369,-385 1224.0369,-385"/>
<polygon fill="#000000" stroke="#000000" points="1224.0369,-388.5001 1234.0369,-385 1224.0368,-381.5001 1224.0369,-388.5001"/>
</g>
<!-- SerialModule -->
<g id="node18" class="node">
<title>SerialModule</title>
<polygon fill="#8dd3c7" stroke="#000000" points="1188.2036,-274 1185.2036,-278 1164.2036,-278 1161.2036,-274 1095.7964,-274 1095.7964,-238 1188.2036,-238 1188.2036,-274"/>
<text text-anchor="middle" x="1142" y="-251.8" font-family="Times,serif" font-size="14.00" fill="#000000">SerialModule</text>
</g>
<!-- SharedModule&#45;&gt;SerialModule -->
<g id="edge44" class="edge">
<title>SharedModule&#45;&gt;SerialModule</title>
<path fill="none" stroke="#000000" d="M1105.9609,-198.0109C1105.9609,-198.0109 1105.9609,-227.855 1105.9609,-227.855"/>
<polygon fill="#000000" stroke="#000000" points="1102.461,-227.8549 1105.9609,-237.855 1109.461,-227.855 1102.461,-227.8549"/>
</g>
<!-- ContentModule -->
<g id="node19" class="node">
<title>ContentModule</title>
<polygon fill="#8dd3c7" stroke="#000000" points="1187.8823,-342 1184.8823,-346 1163.8823,-346 1160.8823,-342 1084.1177,-342 1084.1177,-306 1187.8823,-306 1187.8823,-342"/>
<text text-anchor="middle" x="1136" y="-319.8" font-family="Times,serif" font-size="14.00" fill="#000000">ContentModule</text>
</g>
<!-- SharedModule&#45;&gt;ContentModule -->
<g id="edge25" class="edge">
<title>SharedModule&#45;&gt;ContentModule</title>
<path fill="none" stroke="#000000" d="M1089.9786,-198.2377C1089.9786,-198.2377 1089.9786,-295.9104 1089.9786,-295.9104"/>
<polygon fill="#000000" stroke="#000000" points="1086.4787,-295.9103 1089.9786,-305.9104 1093.4787,-295.9104 1086.4787,-295.9103"/>
</g>
<!-- AuthModule -->
<g id="node22" class="node">
<title>AuthModule</title>
<polygon fill="#8dd3c7" stroke="#000000" points="428.5482,-274 425.5482,-278 404.5482,-278 401.5482,-274 341.4518,-274 341.4518,-238 428.5482,-238 428.5482,-274"/>
<text text-anchor="middle" x="385" y="-251.8" font-family="Times,serif" font-size="14.00" fill="#000000">AuthModule</text>
</g>
<!-- SharedModule&#45;&gt;AuthModule -->
<g id="edge20" class="edge">
<title>SharedModule&#45;&gt;AuthModule</title>
<path fill="none" stroke="#000000" d="M1050.3669,-198.32C1050.3669,-206.7883 1050.3669,-215 1050.3669,-215 1050.3669,-215 420.5991,-215 420.5991,-215 420.5991,-215 420.5991,-227.8975 420.5991,-227.8975"/>
<polygon fill="#000000" stroke="#000000" points="417.0991,-227.8974 420.5991,-237.8975 424.0991,-227.8975 417.0991,-227.8974"/>
</g>
<!-- BlogModule -->
<g id="node24" class="node">
<title>BlogModule</title>
<polygon fill="#8dd3c7" stroke="#000000" points="3126.2773,-274 3123.2773,-278 3102.2773,-278 3099.2773,-274 3039.7227,-274 3039.7227,-238 3126.2773,-238 3126.2773,-274"/>
<text text-anchor="middle" x="3083" y="-251.8" font-family="Times,serif" font-size="14.00" fill="#000000">BlogModule</text>
</g>
<!-- SharedModule&#45;&gt;BlogModule -->
<g id="edge22" class="edge">
<title>SharedModule&#45;&gt;BlogModule</title>
<path fill="none" stroke="#000000" d="M1136.1485,-198.1679C1136.1485,-200.4478 1136.1485,-202 1136.1485,-202 1136.1485,-202 3043.6659,-202 3043.6659,-202 3043.6659,-202 3043.6659,-227.7181 3043.6659,-227.7181"/>
<polygon fill="#000000" stroke="#000000" points="3040.1659,-227.718 3043.6659,-237.7181 3047.1659,-227.7181 3040.1659,-227.718"/>
</g>
<!-- PlaysModule -->
<g id="node27" class="node">
<title>PlaysModule</title>
<polygon fill="#8dd3c7" stroke="#000000" points="2583.8823,-274 2580.8823,-278 2559.8823,-278 2556.8823,-274 2494.1177,-274 2494.1177,-238 2583.8823,-238 2583.8823,-274"/>
<text text-anchor="middle" x="2539" y="-251.8" font-family="Times,serif" font-size="14.00" fill="#000000">PlaysModule</text>
</g>
<!-- SharedModule&#45;&gt;PlaysModule -->
<g id="edge34" class="edge">
<title>SharedModule&#45;&gt;PlaysModule</title>
<path fill="none" stroke="#000000" d="M1116.0234,-198.207C1116.0234,-203.5549 1116.0234,-208 1116.0234,-208 1116.0234,-208 2504.0256,-208 2504.0256,-208 2504.0256,-208 2504.0256,-227.8533 2504.0256,-227.8533"/>
<polygon fill="#000000" stroke="#000000" points="2500.5257,-227.8532 2504.0256,-237.8533 2507.5257,-227.8533 2500.5257,-227.8532"/>
</g>
<!-- SharedModule&#45;&gt;ProseModule -->
<g id="edge38" class="edge">
<title>SharedModule&#45;&gt;ProseModule</title>
<path fill="none" stroke="#000000" d="M1146.2726,-191C1301.0195,-191 1767.0807,-191 1767.0807,-191 1767.0807,-191 1767.0807,-247 1767.0807,-247 1767.0807,-247 2375.6274,-247 2375.6274,-247"/>
<polygon fill="#000000" stroke="#000000" points="2375.6275,-250.5001 2385.6274,-247 2375.6274,-243.5001 2375.6275,-250.5001"/>
</g>
<!-- ScreenplaysModule -->
<g id="node29" class="node">
<title>ScreenplaysModule</title>
<polygon fill="#8dd3c7" stroke="#000000" points="2729.6867,-274 2726.6867,-278 2705.6867,-278 2702.6867,-274 2602.3133,-274 2602.3133,-238 2729.6867,-238 2729.6867,-274"/>
<text text-anchor="middle" x="2666" y="-251.8" font-family="Times,serif" font-size="14.00" fill="#000000">ScreenplaysModule</text>
</g>
<!-- SharedModule&#45;&gt;ScreenplaysModule -->
<g id="edge42" class="edge">
<title>SharedModule&#45;&gt;ScreenplaysModule</title>
<path fill="none" stroke="#000000" d="M1126.086,-198.1686C1126.086,-202.0459 1126.086,-205 1126.086,-205 1126.086,-205 2635.1999,-205 2635.1999,-205 2635.1999,-205 2635.1999,-227.8757 2635.1999,-227.8757"/>
<polygon fill="#000000" stroke="#000000" points="2631.6999,-227.8757 2635.1999,-237.8757 2638.6999,-227.8757 2631.6999,-227.8757"/>
</g>
<!-- AuthFormComponent  -->
<g id="node36" class="node">
<title>AuthFormComponent </title>
<polygon fill="#fb8072" stroke="#000000" points="604.6635,-274 461.3365,-274 461.3365,-238 604.6635,-238 604.6635,-274"/>
<text text-anchor="middle" x="533" y="-251.8" font-family="Times,serif" font-size="14.00" fill="#000000">AuthFormComponent </text>
</g>
<!-- SharedModule&#45;&gt;AuthFormComponent  -->
<g id="edge56" class="edge">
<title>SharedModule&#45;&gt;AuthFormComponent </title>
<path fill="none" stroke="#000000" stroke-dasharray="5,2" d="M1052.945,-198.1097C1052.945,-207.897 1052.945,-218 1052.945,-218 1052.945,-218 589.6752,-218 589.6752,-218 589.6752,-218 589.6752,-227.8903 589.6752,-227.8903"/>
<polygon fill="#000000" stroke="#000000" points="586.1753,-227.8903 589.6752,-237.8903 593.1753,-227.8904 586.1753,-227.8903"/>
</g>
<!-- ToolbarComponent  -->
<g id="node41" class="node">
<title>ToolbarComponent </title>
<polygon fill="#fb8072" stroke="#000000" points="541.6509,-122 412.3491,-122 412.3491,-86 541.6509,-86 541.6509,-122"/>
<text text-anchor="middle" x="477" y="-99.8" font-family="Times,serif" font-size="14.00" fill="#000000">ToolbarComponent </text>
</g>
<!-- SharedModule&#45;&gt;ToolbarComponent  -->
<g id="edge53" class="edge">
<title>SharedModule&#45;&gt;ToolbarComponent </title>
<path fill="none" stroke="#000000" stroke-dasharray="5,2" d="M1067.4733,-161.793C1067.4733,-156.4451 1067.4733,-152 1067.4733,-152 1067.4733,-152 501.4969,-152 501.4969,-152 501.4969,-152 501.4969,-132.1467 501.4969,-132.1467"/>
<polygon fill="#000000" stroke="#000000" points="504.9969,-132.1467 501.4969,-122.1467 497.9969,-132.1468 504.9969,-132.1467"/>
</g>
<!-- NavbarComponent  -->
<g id="node42" class="node">
<title>NavbarComponent </title>
<polygon fill="#fb8072" stroke="#000000" points="822.0288,-122 695.9712,-122 695.9712,-86 822.0288,-86 822.0288,-122"/>
<text text-anchor="middle" x="759" y="-99.8" font-family="Times,serif" font-size="14.00" fill="#000000">NavbarComponent </text>
</g>
<!-- SharedModule&#45;&gt;NavbarComponent  -->
<g id="edge54" class="edge">
<title>SharedModule&#45;&gt;NavbarComponent </title>
<path fill="none" stroke="#000000" stroke-dasharray="5,2" d="M1106.8422,-161.8533C1106.8422,-148.2605 1106.8422,-132 1106.8422,-132 1106.8422,-132 795.4231,-132 795.4231,-132 795.4231,-132 795.4231,-131.0207 795.4231,-131.0207"/>
<polygon fill="#000000" stroke="#000000" points="798.9232,-132.2069 795.4231,-122.207 791.9232,-132.207 798.9232,-132.2069"/>
</g>
<!-- LoginComponent  -->
<g id="node43" class="node">
<title>LoginComponent </title>
<polygon fill="#fb8072" stroke="#000000" points="678.2759,-122 559.7241,-122 559.7241,-86 678.2759,-86 678.2759,-122"/>
<text text-anchor="middle" x="619" y="-99.8" font-family="Times,serif" font-size="14.00" fill="#000000">LoginComponent </text>
</g>
<!-- SharedModule&#45;&gt;LoginComponent  -->
<g id="edge55" class="edge">
<title>SharedModule&#45;&gt;LoginComponent </title>
<path fill="none" stroke="#000000" stroke-dasharray="5,2" d="M1087.1578,-161.8903C1087.1578,-152.103 1087.1578,-142 1087.1578,-142 1087.1578,-142 653.6531,-142 653.6531,-142 653.6531,-142 653.6531,-132.1097 653.6531,-132.1097"/>
<polygon fill="#000000" stroke="#000000" points="657.1531,-132.1096 653.6531,-122.1097 650.1531,-132.1097 657.1531,-132.1096"/>
</g>
<!-- LoginModule -->
<g id="node16" class="node">
<title>LoginModule</title>
<polygon fill="#8dd3c7" stroke="#000000" points="933.493,-274 930.493,-278 909.493,-278 906.493,-274 840.507,-274 840.507,-238 933.493,-238 933.493,-274"/>
<text text-anchor="middle" x="887" y="-251.8" font-family="Times,serif" font-size="14.00" fill="#000000">LoginModule</text>
</g>
<!-- LoginModule&#45;&gt;AppModule -->
<g id="edge14" class="edge">
<title>LoginModule&#45;&gt;AppModule</title>
<path fill="none" stroke="#000000" d="M887,-274.2733C887,-312.6253 887,-398 887,-398 887,-398 1224.0006,-398 1224.0006,-398"/>
<polygon fill="#000000" stroke="#000000" points="1224.0006,-401.5001 1234.0006,-398 1224.0006,-394.5001 1224.0006,-401.5001"/>
</g>
<!-- RegisterModule -->
<g id="node17" class="node">
<title>RegisterModule</title>
<polygon fill="#8dd3c7" stroke="#000000" points="1058.2022,-274 1055.2022,-278 1034.2022,-278 1031.2022,-274 951.7978,-274 951.7978,-238 1058.2022,-238 1058.2022,-274"/>
<text text-anchor="middle" x="1005" y="-251.8" font-family="Times,serif" font-size="14.00" fill="#000000">RegisterModule</text>
</g>
<!-- RegisterModule&#45;&gt;AppModule -->
<g id="edge15" class="edge">
<title>RegisterModule&#45;&gt;AppModule</title>
<path fill="none" stroke="#000000" d="M1005,-274.2142C1005,-310.6396 1005,-389 1005,-389 1005,-389 1224.2502,-389 1224.2502,-389"/>
<polygon fill="#000000" stroke="#000000" points="1224.2502,-392.5001 1234.2502,-389 1224.2501,-385.5001 1224.2502,-392.5001"/>
</g>
<!-- SerialModule&#45;&gt;AppModule -->
<g id="edge16" class="edge">
<title>SerialModule&#45;&gt;AppModule</title>
<path fill="none" stroke="#000000" d="M1188.2049,-256C1196.4933,-256 1202.5558,-256 1202.5558,-256 1202.5558,-256 1202.5558,-376 1202.5558,-376 1202.5558,-376 1224.129,-376 1224.129,-376"/>
<polygon fill="#000000" stroke="#000000" points="1224.129,-379.5001 1234.129,-376 1224.1289,-372.5001 1224.129,-379.5001"/>
</g>
<!-- SerialModule&#45;&gt;ContentModule -->
<g id="edge26" class="edge">
<title>SerialModule&#45;&gt;ContentModule</title>
<path fill="none" stroke="#000000" d="M1111.2388,-274.2228C1111.2388,-274.2228 1111.2388,-295.7269 1111.2388,-295.7269"/>
<polygon fill="#000000" stroke="#000000" points="1107.7389,-295.7269 1111.2388,-305.7269 1114.7389,-295.727 1107.7389,-295.7269"/>
</g>
<!-- ContentModule&#45;&gt;AppModule -->
<g id="edge17" class="edge">
<title>ContentModule&#45;&gt;AppModule</title>
<path fill="none" stroke="#000000" d="M1136,-342.027C1136,-358.3976 1136,-380 1136,-380 1136,-380 1223.9954,-380 1223.9954,-380"/>
<polygon fill="#000000" stroke="#000000" points="1223.9954,-383.5001 1233.9954,-380 1223.9953,-376.5001 1223.9954,-383.5001"/>
</g>
<!-- SharedLoginModule -->
<g id="node20" class="node">
<title>SharedLoginModule</title>
<polygon fill="#8dd3c7" stroke="#000000" points="972.8655,-198 969.8655,-202 948.8655,-202 945.8655,-198 841.1345,-198 841.1345,-162 972.8655,-162 972.8655,-198"/>
<text text-anchor="middle" x="907" y="-175.8" font-family="Times,serif" font-size="14.00" fill="#000000">SharedLoginModule</text>
</g>
<!-- SharedLoginModule&#45;&gt;AppModule -->
<g id="edge18" class="edge">
<title>SharedLoginModule&#45;&gt;AppModule</title>
<path fill="none" stroke="#000000" d="M942.6978,-198.2455C942.6978,-249.9967 942.6978,-394 942.6978,-394 942.6978,-394 1224.1245,-394 1224.1245,-394"/>
<polygon fill="#000000" stroke="#000000" points="1224.1246,-397.5001 1234.1245,-394 1224.1245,-390.5001 1224.1246,-397.5001"/>
</g>
<!-- SharedLoginModule&#45;&gt;LoginModule -->
<g id="edge32" class="edge">
<title>SharedLoginModule&#45;&gt;LoginModule</title>
<path fill="none" stroke="#000000" d="M871.877,-198.0109C871.877,-198.0109 871.877,-227.855 871.877,-227.855"/>
<polygon fill="#000000" stroke="#000000" points="868.3771,-227.8549 871.877,-237.855 875.3771,-227.855 868.3771,-227.8549"/>
</g>
<!-- SharedLoginModule&#45;&gt;RegisterModule -->
<g id="edge40" class="edge">
<title>SharedLoginModule&#45;&gt;RegisterModule</title>
<path fill="none" stroke="#000000" d="M962.4159,-198.0109C962.4159,-198.0109 962.4159,-227.855 962.4159,-227.855"/>
<polygon fill="#000000" stroke="#000000" points="958.9159,-227.8549 962.4159,-237.855 965.9159,-227.855 958.9159,-227.8549"/>
</g>
<!-- SharedLoginModule&#45;&gt;AuthFormComponent  -->
<g id="edge46" class="edge">
<title>SharedLoginModule&#45;&gt;AuthFormComponent </title>
<path fill="none" stroke="#000000" stroke-dasharray="5,2" d="M840.9646,-174C744.0759,-174 574.7687,-174 574.7687,-174 574.7687,-174 574.7687,-227.8015 574.7687,-227.8015"/>
<polygon fill="#000000" stroke="#000000" points="571.2688,-227.8015 574.7687,-237.8015 578.2688,-227.8016 571.2688,-227.8015"/>
</g>
<!-- BlogComponent -->
<g id="node23" class="node">
<title>BlogComponent</title>
<polygon fill="#ffffb3" stroke="#000000" points="3156.0605,-198 3047.9395,-198 3047.9395,-162 3156.0605,-162 3156.0605,-198"/>
<text text-anchor="middle" x="3102" y="-175.8" font-family="Times,serif" font-size="14.00" fill="#000000">BlogComponent</text>
</g>
<!-- BlogComponent&#45;&gt;BlogModule -->
<g id="edge21" class="edge">
<title>BlogComponent&#45;&gt;BlogModule</title>
<path fill="none" stroke="#000000" d="M3087.0544,-198.0109C3087.0544,-198.0109 3087.0544,-227.855 3087.0544,-227.855"/>
<polygon fill="#000000" stroke="#000000" points="3083.5544,-227.8549 3087.0544,-237.855 3090.5544,-227.855 3083.5544,-227.8549"/>
</g>
<!-- BlogModule&#45;&gt;ContentModule -->
<g id="edge27" class="edge">
<title>BlogModule&#45;&gt;ContentModule</title>
<path fill="none" stroke="#000000" d="M3083,-274.1505C3083,-286.2708 3083,-300 3083,-300 3083,-300 1172.6006,-300 1172.6006,-300 1172.6006,-300 1172.6006,-300.581 1172.6006,-300.581"/>
<polygon fill="#000000" stroke="#000000" points="1169.1008,-295.8097 1172.6006,-305.8097 1176.1008,-295.8098 1169.1008,-295.8097"/>
</g>
<!-- PlaysModule&#45;&gt;ContentModule -->
<g id="edge28" class="edge">
<title>PlaysModule&#45;&gt;ContentModule</title>
<path fill="none" stroke="#000000" d="M2506.0628,-274.0328C2506.0628,-280.8526 2506.0628,-287 2506.0628,-287 2506.0628,-287 1141.9197,-287 1141.9197,-287 1141.9197,-287 1141.9197,-295.9336 1141.9197,-295.9336"/>
<polygon fill="#000000" stroke="#000000" points="1138.4198,-295.9335 1141.9197,-305.9336 1145.4198,-295.9336 1138.4198,-295.9335"/>
</g>
<!-- ProseModule&#45;&gt;ContentModule -->
<g id="edge29" class="edge">
<title>ProseModule&#45;&gt;ContentModule</title>
<path fill="none" stroke="#000000" d="M2431,-274.1686C2431,-278.0459 2431,-281 2431,-281 2431,-281 1126.5792,-281 1126.5792,-281 1126.5792,-281 1126.5792,-295.5146 1126.5792,-295.5146"/>
<polygon fill="#000000" stroke="#000000" points="1123.0793,-295.5145 1126.5792,-305.5146 1130.0793,-295.5146 1123.0793,-295.5145"/>
</g>
<!-- ScreenplaysModule&#45;&gt;ContentModule -->
<g id="edge30" class="edge">
<title>ScreenplaysModule&#45;&gt;ContentModule</title>
<path fill="none" stroke="#000000" d="M2612.17,-274.1097C2612.17,-283.897 2612.17,-294 2612.17,-294 2612.17,-294 1157.2602,-294 1157.2602,-294 1157.2602,-294 1157.2602,-295.8568 1157.2602,-295.8568"/>
<polygon fill="#000000" stroke="#000000" points="1153.7603,-295.8568 1157.2602,-305.8568 1160.7603,-295.8568 1153.7603,-295.8568"/>
</g>
<!-- LoginComponent -->
<g id="node30" class="node">
<title>LoginComponent</title>
<polygon fill="#ffffb3" stroke="#000000" points="1632.2758,-122 1517.7242,-122 1517.7242,-86 1632.2758,-86 1632.2758,-122"/>
<text text-anchor="middle" x="1575" y="-99.8" font-family="Times,serif" font-size="14.00" fill="#000000">LoginComponent</text>
</g>
<!-- LoginComponent&#45;&gt;SharedModule -->
<g id="edge49" class="edge">
<title>LoginComponent&#45;&gt;SharedModule</title>
<path fill="none" stroke="#000000" d="M1555.8707,-122.1532C1555.8707,-145.7566 1555.8707,-184 1555.8707,-184 1555.8707,-184 1156.5432,-184 1156.5432,-184"/>
<polygon fill="#000000" stroke="#000000" points="1156.5432,-180.5001 1146.5432,-184 1156.5432,-187.5001 1156.5432,-180.5001"/>
</g>
<!-- LoginComponent&#45;&gt;LoginModule -->
<g id="edge31" class="edge">
<title>LoginComponent&#45;&gt;LoginModule</title>
<path fill="none" stroke="#000000" d="M1594.1293,-122.1149C1594.1293,-155.8699 1594.1293,-225 1594.1293,-225 1594.1293,-225 902.6868,-225 902.6868,-225 902.6868,-225 902.6868,-227.9672 902.6868,-227.9672"/>
<polygon fill="#000000" stroke="#000000" points="899.1869,-227.9671 902.6868,-237.9672 906.1869,-227.9672 899.1869,-227.9671"/>
</g>
<!-- PlaysComponent -->
<g id="node31" class="node">
<title>PlaysComponent</title>
<polygon fill="#ffffb3" stroke="#000000" points="2819.6653,-198 2708.3347,-198 2708.3347,-162 2819.6653,-162 2819.6653,-198"/>
<text text-anchor="middle" x="2764" y="-175.8" font-family="Times,serif" font-size="14.00" fill="#000000">PlaysComponent</text>
</g>
<!-- PlaysComponent&#45;&gt;PlaysModule -->
<g id="edge33" class="edge">
<title>PlaysComponent&#45;&gt;PlaysModule</title>
<path fill="none" stroke="#000000" d="M2718.8805,-198.0091C2718.8805,-214.0494 2718.8805,-235 2718.8805,-235 2718.8805,-235 2573.9631,-235 2573.9631,-235 2573.9631,-235 2573.9631,-235.292 2573.9631,-235.292"/>
<polygon fill="#000000" stroke="#000000" points="2570.4634,-227.9198 2573.9631,-237.92 2577.4634,-227.9201 2570.4634,-227.9198"/>
</g>
<!-- RegisterComponent -->
<g id="node32" class="node">
<title>RegisterComponent</title>
<polygon fill="#ffffb3" stroke="#000000" points="2513.9846,-198 2386.0154,-198 2386.0154,-162 2513.9846,-162 2513.9846,-198"/>
<text text-anchor="middle" x="2450" y="-175.8" font-family="Times,serif" font-size="14.00" fill="#000000">RegisterComponent</text>
</g>
<!-- RegisterComponent&#45;&gt;RegisterModule -->
<g id="edge39" class="edge">
<title>RegisterComponent&#45;&gt;RegisterModule</title>
<path fill="none" stroke="#000000" d="M2446.22,-198.1467C2446.22,-211.7395 2446.22,-228 2446.22,-228 2446.22,-228 1035.2065,-228 1035.2065,-228 1035.2065,-228 1035.2065,-228.9793 1035.2065,-228.9793"/>
<polygon fill="#000000" stroke="#000000" points="1031.7066,-227.793 1035.2065,-237.793 1038.7066,-227.7931 1031.7066,-227.793"/>
</g>
<!-- ScreenplaysComponent -->
<g id="node33" class="node">
<title>ScreenplaysComponent</title>
<polygon fill="#ffffb3" stroke="#000000" points="3008.4692,-198 2859.5308,-198 2859.5308,-162 3008.4692,-162 3008.4692,-198"/>
<text text-anchor="middle" x="2934" y="-175.8" font-family="Times,serif" font-size="14.00" fill="#000000">ScreenplaysComponent</text>
</g>
<!-- ScreenplaysComponent&#45;&gt;ScreenplaysModule -->
<g id="edge41" class="edge">
<title>ScreenplaysComponent&#45;&gt;ScreenplaysModule</title>
<path fill="none" stroke="#000000" d="M2934,-198.0109C2934,-220.4852 2934,-256 2934,-256 2934,-256 2739.8522,-256 2739.8522,-256"/>
<polygon fill="#000000" stroke="#000000" points="2739.8522,-252.5001 2729.8522,-256 2739.8522,-259.5001 2739.8522,-252.5001"/>
</g>
<!-- SerialComponent -->
<g id="node34" class="node">
<title>SerialComponent</title>
<polygon fill="#ffffb3" stroke="#000000" points="2667.986,-198 2554.014,-198 2554.014,-162 2667.986,-162 2667.986,-198"/>
<text text-anchor="middle" x="2611" y="-175.8" font-family="Times,serif" font-size="14.00" fill="#000000">SerialComponent</text>
</g>
<!-- SerialComponent&#45;&gt;SerialModule -->
<g id="edge43" class="edge">
<title>SerialComponent&#45;&gt;SerialModule</title>
<path fill="none" stroke="#000000" d="M2563.985,-198.1871C2563.985,-213.1824 2563.985,-232 2563.985,-232 2563.985,-232 1167.1564,-232 1167.1564,-232 1167.1564,-232 1167.1564,-232.581 1167.1564,-232.581"/>
<polygon fill="#000000" stroke="#000000" points="1163.6566,-227.8097 1167.1564,-237.8097 1170.6566,-227.8098 1163.6566,-227.8097"/>
</g>
<!-- AuthFormComponent -->
<g id="node35" class="node">
<title>AuthFormComponent</title>
<polygon fill="#ffffb3" stroke="#000000" points="768.6638,-274 629.3362,-274 629.3362,-238 768.6638,-238 768.6638,-274"/>
<text text-anchor="middle" x="699" y="-251.8" font-family="Times,serif" font-size="14.00" fill="#000000">AuthFormComponent</text>
</g>
<!-- AuthFormComponent&#45;&gt;SharedModule -->
<g id="edge50" class="edge">
<title>AuthFormComponent&#45;&gt;SharedModule</title>
<path fill="none" stroke="#000000" d="M720.2676,-237.8056C720.2676,-229.7218 720.2676,-222 720.2676,-222 720.2676,-222 1055.523,-222 1055.523,-222 1055.523,-222 1055.523,-208.0555 1055.523,-208.0555"/>
<polygon fill="#000000" stroke="#000000" points="1059.0231,-208.0555 1055.523,-198.0555 1052.0231,-208.0556 1059.0231,-208.0555"/>
</g>
<!-- AuthFormComponent&#45;&gt;SharedLoginModule -->
<g id="edge45" class="edge">
<title>AuthFormComponent&#45;&gt;SharedLoginModule</title>
<path fill="none" stroke="#000000" d="M744.5497,-237.9733C744.5497,-217.2328 744.5497,-186 744.5497,-186 744.5497,-186 830.9252,-186 830.9252,-186"/>
<polygon fill="#000000" stroke="#000000" points="830.9253,-189.5001 840.9252,-186 830.9252,-182.5001 830.9253,-189.5001"/>
</g>
<!-- ToolbarComponent -->
<g id="node37" class="node">
<title>ToolbarComponent</title>
<polygon fill="#ffffb3" stroke="#000000" points="1477.6513,-122 1352.3487,-122 1352.3487,-86 1477.6513,-86 1477.6513,-122"/>
<text text-anchor="middle" x="1415" y="-99.8" font-family="Times,serif" font-size="14.00" fill="#000000">ToolbarComponent</text>
</g>
<!-- ToolbarComponent&#45;&gt;SharedModule -->
<g id="edge47" class="edge">
<title>ToolbarComponent&#45;&gt;SharedModule</title>
<path fill="none" stroke="#000000" d="M1417.9502,-122.0449C1417.9502,-143.6623 1417.9502,-177 1417.9502,-177 1417.9502,-177 1156.4451,-177 1156.4451,-177"/>
<polygon fill="#000000" stroke="#000000" points="1156.4451,-173.5001 1146.4451,-177 1156.4451,-180.5001 1156.4451,-173.5001"/>
</g>
<!-- NavbarComponent -->
<g id="node38" class="node">
<title>NavbarComponent</title>
<polygon fill="#ffffb3" stroke="#000000" points="1334.0297,-122 1211.9703,-122 1211.9703,-86 1334.0297,-86 1334.0297,-122"/>
<text text-anchor="middle" x="1273" y="-99.8" font-family="Times,serif" font-size="14.00" fill="#000000">NavbarComponent</text>
</g>
<!-- NavbarComponent&#45;&gt;SharedModule -->
<g id="edge48" class="edge">
<title>NavbarComponent&#45;&gt;SharedModule</title>
<path fill="none" stroke="#000000" d="M1273.1354,-122.0348C1273.1354,-141.5762 1273.1354,-170 1273.1354,-170 1273.1354,-170 1156.5322,-170 1156.5322,-170"/>
<polygon fill="#000000" stroke="#000000" points="1156.5323,-166.5001 1146.5322,-170 1156.5322,-173.5001 1156.5323,-166.5001"/>
</g>
<!-- AuthRememberComponent -->
<g id="node39" class="node">
<title>AuthRememberComponent</title>
<polygon fill="#ffffb3" stroke="#000000" points="1193.252,-122 1022.748,-122 1022.748,-86 1193.252,-86 1193.252,-122"/>
<text text-anchor="middle" x="1108" y="-99.8" font-family="Times,serif" font-size="14.00" fill="#000000">AuthRememberComponent</text>
</g>
<!-- AuthRememberComponent&#45;&gt;SharedModule -->
<g id="edge51" class="edge">
<title>AuthRememberComponent&#45;&gt;SharedModule</title>
<path fill="none" stroke="#000000" d="M1126.5267,-122.0109C1126.5267,-122.0109 1126.5267,-151.855 1126.5267,-151.855"/>
<polygon fill="#000000" stroke="#000000" points="1123.0268,-151.8549 1126.5267,-161.855 1130.0268,-151.855 1123.0268,-151.8549"/>
</g>
<!-- AuthMessageComponent -->
<g id="node40" class="node">
<title>AuthMessageComponent</title>
<polygon fill="#ffffb3" stroke="#000000" points="1004.3075,-122 845.6925,-122 845.6925,-86 1004.3075,-86 1004.3075,-122"/>
<text text-anchor="middle" x="925" y="-99.8" font-family="Times,serif" font-size="14.00" fill="#000000">AuthMessageComponent</text>
</g>
<!-- AuthMessageComponent&#45;&gt;SharedModule -->
<g id="edge52" class="edge">
<title>AuthMessageComponent&#45;&gt;SharedModule</title>
<path fill="none" stroke="#000000" d="M988.5432,-122.0109C988.5432,-144.4852 988.5432,-180 988.5432,-180 988.5432,-180 1037.5323,-180 1037.5323,-180"/>
<polygon fill="#000000" stroke="#000000" points="1037.5323,-183.5001 1047.5323,-180 1037.5323,-176.5001 1037.5323,-183.5001"/>
</g>
</g>
</svg>
